{"glyphs":{"0":{"ha":742,"x_min":64,"x_max":677,"o":"m 372 -20 q 144 67 223 -20 q 64 302 64 155 l 64 812 q 141 1053 64 965 q 372 1141 218 1141 q 601 1053 524 1141 q 677 812 677 964 l 677 302 q 597 68 677 156 q 372 -20 517 -20 m 302 308 q 372 186 302 186 q 441 308 441 186 l 441 805 q 440 831 441 821 q 438 859 440 841 q 432 887 437 876 q 420 910 427 899 q 400 928 413 922 q 372 934 388 934 q 348 931 359 934 q 331 920 338 928 q 318 906 323 912 q 310 886 313 899 q 306 867 307 873 q 303 844 304 860 q 302 824 302 829 q 302 805 302 820 l 302 308 z "},"1":{"ha":736,"x_min":132,"x_max":522,"o":"m 289 0 l 289 893 l 132 828 l 132 1001 q 250 1062 185 1026 q 340 1124 315 1099 l 522 1124 l 522 0 l 289 0 z "},"2":{"ha":736,"x_min":75,"x_max":694,"o":"m 75 0 l 75 164 l 342 578 q 368 618 349 589 q 397 663 388 648 q 421 705 406 677 q 444 752 437 732 q 458 797 452 772 q 464 846 464 823 q 441 925 464 899 q 393 945 422 945 q 377 943 386 945 q 318 901 337 938 q 300 789 300 863 l 300 734 l 75 734 l 75 793 q 92 931 75 869 q 146 1042 110 994 q 244 1116 183 1090 q 388 1142 306 1142 q 616 1064 538 1142 q 694 844 694 985 q 691 801 694 823 q 685 763 688 780 q 674 724 682 745 q 662 689 667 702 q 645 653 657 675 q 628 620 633 630 q 607 586 623 610 q 587 555 591 562 q 564 522 582 548 q 542 490 546 495 l 336 182 l 663 182 l 663 0 l 75 0 z "},"3":{"ha":731,"x_min":65,"x_max":684,"o":"m 376 -20 q 229 4 290 -20 q 132 77 168 29 q 81 188 97 125 q 65 332 65 250 l 65 372 l 298 372 l 298 332 q 315 211 298 246 q 379 175 332 175 q 439 210 425 175 q 454 325 454 244 q 430 454 454 413 q 336 496 405 494 l 296 496 l 296 659 l 332 659 q 429 697 403 660 q 454 822 454 735 q 436 923 454 890 q 374 956 418 956 q 314 921 330 956 q 298 817 298 886 l 298 760 l 65 760 l 65 827 q 147 1060 65 978 q 373 1142 229 1142 q 602 1064 521 1142 q 684 837 684 985 q 645 674 684 741 q 545 591 606 607 q 684 331 684 541 q 667 189 684 251 q 615 78 650 126 q 519 5 579 31 q 376 -20 458 -20 z "},"4":{"ha":742,"x_min":46,"x_max":704,"o":"m 221 427 l 388 427 l 388 897 l 221 427 m 388 0 l 388 258 l 46 258 l 46 433 l 337 1124 l 596 1124 l 596 427 l 704 427 l 704 258 l 596 258 l 596 0 l 388 0 z "},"5":{"ha":735,"x_min":79,"x_max":682,"o":"m 373 -20 q 248 -3 300 -20 q 163 42 195 14 q 112 117 131 71 q 85 213 92 163 q 79 330 79 263 l 303 330 q 320 190 303 230 q 382 153 336 153 q 388 153 385 153 q 412 157 401 153 q 431 171 423 161 q 444 189 439 180 q 453 217 450 198 q 458 249 456 235 q 461 290 460 263 q 462 335 462 317 q 463 387 463 353 q 459 463 463 432 q 448 523 456 494 q 421 566 439 551 q 376 580 403 580 q 288 477 304 580 l 86 477 l 106 1124 l 633 1124 l 633 930 l 294 930 l 280 699 q 334 733 296 718 q 418 751 372 747 q 448 753 433 753 q 614 670 554 753 q 682 394 682 575 q 677 280 682 330 q 660 181 672 230 q 626 97 648 132 q 571 34 604 62 q 488 -7 537 7 q 373 -20 438 -20 z "},"6":{"ha":741,"x_min":70,"x_max":688,"o":"m 384 155 q 421 167 407 155 q 443 205 435 178 q 453 263 450 231 q 455 345 455 294 q 455 389 455 373 q 453 427 454 404 q 449 461 452 449 q 441 488 446 474 q 428 510 435 503 q 408 522 420 517 q 382 527 397 527 q 336 512 357 527 q 306 479 315 498 l 306 299 q 384 155 306 155 m 380 -16 q 239 11 300 -16 q 142 89 179 39 q 88 206 106 140 q 70 354 70 272 l 70 755 q 78 881 70 825 q 107 986 86 936 q 163 1068 128 1036 q 252 1121 197 1101 q 380 1140 307 1140 q 515 1121 459 1140 q 604 1065 570 1103 q 652 975 637 1027 q 668 851 667 923 l 668 831 l 449 831 q 437 936 449 907 q 381 964 425 964 q 320 919 334 964 q 306 740 306 873 l 306 640 q 360 686 323 669 q 444 704 397 703 q 451 704 448 704 q 557 681 512 704 q 633 611 606 656 q 674 509 661 566 q 688 381 688 452 q 672 219 688 289 q 623 95 657 150 q 528 12 589 41 q 380 -16 467 -16 z "},"7":{"ha":696,"x_min":90,"x_max":621,"o":"m 151 0 l 393 949 l 90 949 l 90 1124 l 621 1124 l 621 966 l 377 0 l 151 0 z "},"8":{"ha":736,"x_min":60,"x_max":675,"o":"m 368 676 q 437 844 437 676 q 419 933 437 901 q 368 966 401 966 q 315 933 332 966 q 297 844 297 901 q 368 676 297 676 m 368 153 q 400 161 386 153 q 422 182 414 168 q 435 212 430 197 q 443 248 441 227 q 446 284 446 269 q 447 318 447 298 q 446 360 447 342 q 443 400 446 378 q 435 436 441 421 q 421 464 430 451 q 399 484 413 477 q 368 490 386 490 q 331 480 347 490 q 308 455 316 470 q 295 415 300 439 q 289 369 290 390 q 288 318 288 348 q 290 264 288 287 q 299 213 292 241 q 324 169 307 184 q 368 153 341 153 m 368 -18 q 223 8 284 -18 q 127 81 163 33 q 75 192 92 129 q 60 323 60 250 q 60 335 60 329 q 93 492 62 423 q 189 593 125 561 q 111 688 141 627 q 78 836 80 749 q 78 848 78 842 q 150 1059 78 983 q 368 1139 225 1139 q 585 1059 510 1139 q 655 848 656 983 q 655 836 655 842 q 623 688 653 749 q 546 593 593 627 q 642 491 609 560 q 675 335 674 422 q 675 317 675 326 q 662 191 675 247 q 610 81 646 129 q 513 8 574 33 q 368 -18 452 -18 z "},"9":{"ha":741,"x_min":60,"x_max":677,"o":"m 369 597 q 439 644 414 597 l 439 825 q 436 879 439 857 q 427 924 434 902 q 404 957 419 945 q 366 968 389 968 q 310 925 323 968 q 296 779 296 882 q 297 728 296 745 q 299 685 297 711 q 306 647 301 659 q 318 621 310 635 q 338 602 326 608 q 369 597 351 597 m 366 -16 q 231 2 286 -16 q 142 59 175 21 q 94 149 109 97 q 79 274 79 201 l 79 292 l 298 292 q 311 189 298 218 q 368 159 323 159 q 426 203 414 159 q 439 384 439 248 l 439 484 q 386 437 422 454 q 302 420 350 421 q 296 420 299 420 q 189 445 235 420 q 113 518 141 471 q 73 625 85 566 q 60 755 60 684 q 76 915 60 846 q 129 1035 93 983 q 224 1113 164 1086 q 366 1140 283 1140 q 601 1045 526 1140 q 677 782 677 950 l 677 368 q 669 243 677 298 q 639 138 661 188 q 583 55 618 88 q 494 3 549 22 q 366 -16 439 -16 z "}," ":{"ha":357,"x_min":0,"x_max":0,"o":""},"!":{"ha":355,"x_min":63,"x_max":292,"o":"m 132 286 l 67 1122 l 292 1122 l 211 286 l 132 286 m 63 0 l 63 211 l 277 211 l 277 0 l 63 0 z "},"\"":{"ha":495,"x_min":39,"x_max":491,"o":"m 298 708 l 298 1124 l 491 1124 l 402 708 l 298 708 m 39 708 l 39 1124 l 233 1124 l 144 708 l 39 708 z "},"#":{"ha":741,"x_min":64,"x_max":678,"o":"m 307 516 l 416 516 l 434 673 l 326 673 l 307 516 m 95 -1 l 139 374 l 64 374 l 67 516 l 159 516 l 177 673 l 68 673 l 72 817 l 202 817 l 237 1124 l 387 1124 l 351 817 l 458 817 l 494 1124 l 643 1124 l 606 817 l 678 817 l 675 673 l 582 673 l 564 516 l 673 516 l 669 374 l 543 374 l 498 -1 l 351 -1 l 395 374 l 287 374 l 242 -1 l 95 -1 z "},"$":{"ha":676,"x_min":31,"x_max":648,"o":"m 323 -150 l 323 -15 q 107 78 178 -8 q 31 341 36 163 l 243 374 q 269 220 245 268 q 341 172 293 172 q 404 254 404 172 q 388 337 404 299 q 348 403 372 376 q 281 467 324 430 l 182 553 q 122 610 146 584 q 76 671 98 635 q 42 750 53 707 q 31 846 31 793 q 106 1052 31 976 q 311 1139 180 1128 l 311 1267 l 382 1267 l 382 1139 q 462 1124 426 1137 q 523 1093 498 1111 q 566 1047 547 1074 q 596 995 585 1021 q 613 937 606 969 q 623 878 621 904 q 627 821 625 852 l 412 793 q 410 841 411 822 q 406 880 409 859 q 399 914 404 901 q 386 938 394 927 q 367 954 378 949 q 338 958 355 959 q 289 931 306 958 q 271 871 271 904 q 279 813 271 839 q 306 762 287 787 q 338 726 326 738 q 378 688 350 713 l 474 604 q 542 536 513 568 q 596 463 570 504 q 635 373 622 422 q 648 267 648 323 q 579 77 648 155 q 393 -14 509 -1 l 393 -150 l 323 -150 z "},"%":{"ha":1405,"x_min":62,"x_max":1343,"o":"m 467 0 l 808 1124 l 937 1124 l 595 0 l 467 0 m 1078 -2 q 875 71 937 -2 q 813 298 813 144 l 813 346 q 873 571 813 502 q 1078 640 933 640 q 1283 571 1222 640 q 1343 349 1343 503 l 1343 297 q 1281 71 1343 144 q 1078 -2 1219 -2 m 1042 151 q 1049 148 1042 151 q 1078 144 1057 144 q 1113 151 1099 144 q 1136 171 1128 159 q 1148 205 1144 182 q 1154 249 1153 228 q 1155 307 1155 271 l 1155 340 q 1154 397 1155 378 q 1149 438 1154 416 q 1137 470 1145 460 q 1115 486 1129 479 q 1078 492 1100 492 q 1041 486 1055 492 q 1018 470 1026 479 q 1006 438 1010 460 q 1001 397 1002 417 q 1000 341 1000 378 l 1000 306 q 1001 249 1000 270 q 1007 204 1002 227 q 1019 170 1011 182 q 1042 151 1027 159 m 530 558 q 499 521 530 558 q 326 485 468 485 q 123 558 184 485 q 62 785 62 631 l 62 833 q 122 1058 62 989 q 326 1126 182 1126 q 531 1058 471 1126 q 592 836 592 990 l 592 784 q 530 558 592 631 m 291 638 q 298 634 291 638 q 326 631 305 631 q 362 638 347 631 q 385 657 376 646 q 397 692 393 669 q 402 736 401 715 q 404 793 404 758 l 404 827 q 403 884 404 865 q 398 925 402 903 q 386 957 394 947 q 363 973 378 966 q 326 979 349 979 q 289 973 304 979 q 267 957 275 966 q 255 925 258 947 q 250 884 251 904 q 249 828 249 865 l 249 793 q 250 735 249 757 q 255 691 251 714 q 268 657 260 669 q 291 638 276 646 z "},"&":{"ha":793,"x_min":56,"x_max":734,"o":"m 338 684 q 414 913 414 832 q 395 962 414 944 q 349 981 376 981 q 304 958 321 981 q 286 900 286 936 q 296 828 286 870 q 321 740 306 786 q 338 684 336 693 m 316 136 q 418 186 380 136 q 292 444 304 416 q 236 262 236 352 q 260 171 236 206 q 316 136 284 136 m 312 -18 q 127 56 199 -18 q 56 246 56 130 q 101 436 56 342 q 214 597 146 530 q 176 669 201 622 q 138 745 151 717 q 112 813 124 772 q 100 890 100 853 q 166 1069 100 997 q 340 1141 231 1141 q 520 1077 449 1141 q 591 902 591 1012 q 585 839 591 869 q 566 780 579 808 q 541 731 553 752 q 508 683 530 709 q 473 642 486 656 q 436 601 461 628 q 401 565 410 574 l 532 322 q 559 420 548 351 q 572 553 570 490 l 727 553 q 706 357 727 439 q 643 196 684 275 q 682 166 656 179 q 734 151 707 154 l 734 -15 q 695 -21 711 -21 q 666 -18 680 -21 q 637 -8 652 -16 q 612 5 622 0 q 587 23 603 9 q 565 40 570 36 q 542 60 559 44 q 523 78 524 77 q 431 7 486 32 q 312 -18 376 -18 z "},"'":{"ha":326,"x_min":60,"x_max":246,"o":"m 60 708 l 60 1124 l 246 1124 l 170 708 l 60 708 z "},"(":{"ha":469,"x_min":87,"x_max":420,"o":"m 420 -251 q 328 -239 370 -251 q 255 -206 286 -227 q 198 -152 223 -185 q 155 -82 172 -119 q 125 4 138 -45 q 105 100 113 54 q 94 208 98 147 q 88 320 90 269 q 87 438 87 372 q 89 597 87 530 q 99 742 92 665 q 121 874 107 820 q 160 982 136 928 q 220 1067 185 1035 q 306 1118 255 1099 q 420 1137 356 1137 l 420 979 q 321 849 347 979 q 296 438 296 720 q 322 34 296 161 q 420 -92 349 -92 l 420 -251 z "},")":{"ha":453,"x_min":49,"x_max":382,"o":"m 49 -251 l 49 -92 q 147 35 120 -92 q 174 439 174 163 q 148 850 174 721 q 49 979 123 979 l 49 1137 q 133 1128 94 1137 q 201 1101 171 1120 q 256 1059 231 1083 q 299 1001 281 1036 q 331 932 317 967 q 353 849 345 897 q 368 758 362 802 q 377 657 374 714 q 381 551 380 601 q 382 439 382 502 q 381 321 382 372 q 376 209 380 269 q 364 101 372 148 q 344 4 357 54 q 314 -82 332 -45 q 272 -152 297 -118 q 215 -206 246 -185 q 141 -239 183 -227 q 49 -251 99 -251 z "},"*":{"ha":588,"x_min":56,"x_max":561,"o":"m 239 625 l 105 703 l 204 845 l 56 902 l 106 1038 l 242 963 l 224 1124 l 393 1124 l 376 962 l 511 1038 l 561 901 l 412 844 l 513 704 l 378 625 l 308 773 l 239 625 z "},"+":{"ha":625,"x_min":36,"x_max":588,"o":"m 236 287 l 236 509 l 36 509 l 36 643 l 236 643 l 236 861 l 386 861 l 386 643 l 588 643 l 588 509 l 386 509 l 386 287 l 236 287 z "},",":{"ha":330,"x_min":60,"x_max":274,"o":"m 93 -195 l 79 -121 q 178 0 178 -98 l 60 0 l 60 212 l 274 212 l 273 27 q 93 -195 273 -180 z "},"-":{"ha":536,"x_min":88,"x_max":448,"o":"m 88 410 l 88 556 l 448 556 l 448 410 l 88 410 z "},".":{"ha":337,"x_min":63,"x_max":278,"o":"m 63 0 l 63 213 l 278 213 l 278 0 l 63 0 z "},"/":{"ha":587,"x_min":60,"x_max":526,"o":"m 60 0 l 402 1124 l 526 1124 l 184 0 l 60 0 z "},":":{"ha":382,"x_min":92,"x_max":304,"o":"m 92 571 l 92 781 l 304 781 l 304 571 l 92 571 m 92 81 l 92 290 l 304 290 l 304 81 l 92 81 z "},";":{"ha":393,"x_min":92,"x_max":307,"o":"m 92 587 l 92 799 l 304 799 l 304 587 l 92 587 m 125 -161 l 111 -88 q 211 26 211 -73 l 92 26 l 92 237 l 307 237 l 307 53 q 261 -106 307 -52 q 125 -161 216 -161 z "},"<":{"ha":553,"x_min":43,"x_max":473,"o":"m 473 134 l 43 434 l 43 611 l 473 912 l 473 713 l 206 524 l 473 332 l 473 134 z "},"=":{"ha":615,"x_min":87,"x_max":529,"o":"m 87 608 l 87 746 l 529 746 l 529 608 l 87 608 m 87 345 l 87 483 l 529 483 l 529 345 l 87 345 z "},">":{"ha":553,"x_min":76,"x_max":506,"o":"m 76 134 l 76 332 l 343 524 l 76 713 l 76 912 l 506 611 l 506 434 l 76 134 z "},"?":{"ha":673,"x_min":47,"x_max":625,"o":"m 174 0 l 174 215 l 395 215 l 395 0 l 174 0 m 180 295 l 180 475 q 345 661 281 559 q 401 846 401 752 q 401 867 401 857 q 323 947 396 947 q 274 926 292 948 q 258 878 258 908 q 258 869 258 874 q 273 798 258 842 l 68 751 q 47 869 47 833 q 47 892 47 882 q 57 977 46 937 q 102 1063 71 1025 q 188 1122 133 1101 q 318 1143 243 1143 q 546 1068 467 1143 q 625 858 625 993 q 556 619 625 736 q 386 431 488 502 l 386 295 l 180 295 z "},"@":{"ha":1323,"x_min":74,"x_max":1281,"o":"m 660 299 q 732 342 720 311 l 774 667 q 761 681 774 676 q 736 686 747 686 q 644 646 684 686 q 586 550 604 606 q 568 432 568 493 q 568 429 568 430 q 589 334 568 372 q 654 299 610 299 q 660 299 656 299 m 657 -178 q 313 -98 451 -178 q 117 130 175 -18 q 74 373 74 237 q 80 481 74 425 q 146 745 94 626 q 283 948 198 864 q 490 1079 369 1033 q 756 1125 610 1125 q 963 1096 871 1125 q 1117 1013 1055 1066 q 1219 886 1179 960 q 1272 724 1259 812 q 1281 615 1280 672 q 1277 535 1281 576 q 1258 427 1273 481 q 1215 320 1244 374 q 1146 227 1185 267 q 1049 162 1107 187 q 922 137 991 137 q 809 163 860 137 q 743 241 759 190 q 691 178 726 203 q 611 148 656 152 q 589 146 600 146 q 479 179 528 146 q 396 283 422 217 q 372 415 372 342 q 372 433 372 425 q 386 539 374 484 q 422 650 397 593 q 483 751 448 707 q 571 823 518 795 q 688 851 625 851 q 709 849 699 851 q 727 842 719 847 q 742 832 736 837 q 755 820 749 828 q 766 807 762 812 q 774 792 770 802 q 781 779 779 783 q 787 766 783 775 q 791 756 791 757 l 804 842 l 985 842 l 923 385 q 918 316 918 343 q 923 277 918 290 q 937 264 928 267 q 955 262 946 262 q 1017 288 985 262 q 1087 387 1058 321 q 1122 532 1116 453 q 1126 608 1126 572 q 1116 718 1127 667 q 1055 861 1100 800 q 931 955 1010 922 q 740 988 851 988 q 569 962 646 988 q 435 890 491 936 q 339 780 380 844 q 276 643 299 716 q 245 484 254 569 q 238 378 238 428 q 248 267 238 319 q 315 103 264 172 q 457 -2 366 34 q 678 -39 549 -39 q 813 -26 733 -39 q 953 7 893 -13 l 979 -133 q 657 -178 788 -178 z "},"A":{"ha":764,"x_min":29,"x_max":734,"o":"m 324 387 l 444 387 l 384 823 l 324 387 m 29 0 l 242 1124 l 523 1124 l 734 0 l 505 0 l 467 239 l 302 239 l 264 0 l 29 0 z "},"B":{"ha":817,"x_min":83,"x_max":768,"o":"m 331 675 l 378 675 q 487 711 458 675 q 516 825 516 747 q 370 958 516 958 l 331 958 l 331 675 m 331 174 l 383 174 q 496 213 464 174 q 529 337 529 252 q 496 471 529 432 q 380 511 463 511 l 331 511 l 331 174 m 83 0 l 83 1124 l 376 1124 q 488 1118 439 1124 q 586 1093 537 1112 q 666 1042 634 1074 q 716 956 697 1010 q 733 840 734 906 q 733 830 733 835 q 568 604 730 633 q 716 523 665 591 q 768 334 767 454 q 768 326 768 330 q 682 81 768 161 q 429 0 594 0 l 83 0 z "},"C":{"ha":781,"x_min":67,"x_max":728,"o":"m 405 -16 q 244 11 311 -16 q 139 87 178 37 q 84 205 101 138 q 67 361 67 271 l 67 762 q 84 921 67 853 q 139 1039 101 988 q 244 1115 178 1089 q 405 1140 310 1140 q 560 1117 496 1140 q 660 1049 624 1094 q 712 947 696 1004 q 728 815 728 890 l 728 716 l 486 716 l 486 829 q 485 869 486 856 q 480 904 484 883 q 468 937 476 926 q 444 956 460 947 q 405 964 428 964 q 366 956 382 964 q 341 936 349 947 q 327 903 332 924 q 321 865 322 882 q 320 823 320 848 l 320 299 q 338 196 320 231 q 405 160 355 160 q 443 169 427 160 q 467 189 459 177 q 480 221 475 200 q 485 258 484 242 q 486 299 486 273 l 486 417 l 728 417 l 728 320 q 719 211 728 260 q 687 119 709 162 q 628 47 664 76 q 535 1 591 18 q 405 -16 479 -16 z "},"D":{"ha":811,"x_min":83,"x_max":744,"o":"m 83 0 l 83 1124 l 366 1124 q 549 1105 476 1124 q 665 1040 622 1085 q 726 931 709 996 q 744 768 744 866 l 744 363 q 726 198 744 264 q 665 86 708 132 q 550 20 622 41 q 369 0 477 0 l 83 0 m 331 172 l 369 172 q 417 176 397 172 q 451 189 437 180 q 472 209 464 199 q 483 240 479 220 q 488 278 487 260 q 489 326 489 296 l 489 810 q 486 876 489 852 q 470 918 482 899 q 434 944 458 937 q 368 951 410 951 l 331 951 l 331 172 z "},"E":{"ha":621,"x_min":83,"x_max":591,"o":"m 83 0 l 83 1124 l 588 1124 l 588 955 l 331 955 l 331 677 l 527 677 l 527 504 l 331 504 l 331 168 l 591 168 l 591 0 l 83 0 z "},"F":{"ha":602,"x_min":83,"x_max":570,"o":"m 83 0 l 83 1124 l 570 1124 l 570 956 l 331 956 l 331 673 l 536 673 l 536 499 l 331 499 l 331 0 l 83 0 z "},"G":{"ha":807,"x_min":67,"x_max":736,"o":"m 376 -16 q 230 11 291 -16 q 134 92 170 39 q 83 214 99 144 q 67 374 67 283 l 67 747 q 78 881 67 822 q 112 989 88 940 q 175 1072 136 1039 q 271 1122 214 1104 q 405 1140 329 1140 q 534 1124 478 1140 q 628 1081 591 1109 q 690 1011 666 1053 q 724 921 713 970 q 734 810 734 871 l 734 739 l 491 739 l 491 829 q 490 871 491 855 q 485 907 489 888 q 472 938 480 927 q 447 957 463 949 q 408 964 431 964 q 368 956 385 964 q 342 934 351 947 q 329 901 334 922 q 322 862 323 880 q 321 820 321 845 l 321 305 q 341 199 321 238 q 414 160 361 160 q 512 310 512 160 l 512 436 l 410 436 l 410 585 l 736 585 l 736 0 l 572 0 l 557 94 q 376 -16 508 -16 z "},"H":{"ha":846,"x_min":87,"x_max":758,"o":"m 87 0 l 87 1124 l 336 1124 l 336 670 l 509 670 l 509 1124 l 758 1124 l 758 0 l 509 0 l 509 492 l 336 492 l 336 0 l 87 0 z "},"I":{"ha":417,"x_min":85,"x_max":333,"o":"m 85 0 l 85 1124 l 333 1124 l 333 0 l 85 0 z "},"J":{"ha":485,"x_min":18,"x_max":401,"o":"m 18 -27 l 18 146 q 26 146 22 146 q 125 167 98 145 q 153 260 153 190 l 153 1124 l 401 1124 l 401 250 q 388 129 400 178 q 346 43 375 79 q 265 -10 316 7 q 138 -27 214 -27 l 18 -27 z "},"K":{"ha":787,"x_min":83,"x_max":773,"o":"m 83 0 l 83 1124 l 331 1124 l 331 667 l 521 1124 l 763 1124 l 555 616 l 773 0 l 519 0 l 355 503 l 331 464 l 331 0 l 83 0 z "},"L":{"ha":614,"x_min":83,"x_max":589,"o":"m 83 0 l 83 1124 l 331 1124 l 331 168 l 589 168 l 589 0 l 83 0 z "},"M":{"ha":977,"x_min":79,"x_max":898,"o":"m 79 0 l 98 1124 l 363 1124 l 488 467 l 623 1124 l 880 1124 l 898 0 l 720 0 l 702 746 l 570 0 l 414 0 l 276 751 l 259 0 l 79 0 z "},"N":{"ha":777,"x_min":83,"x_max":695,"o":"m 83 0 l 83 1124 l 258 1124 l 489 585 l 489 1124 l 695 1124 l 695 0 l 527 0 l 295 582 l 295 0 l 83 0 z "},"O":{"ha":812,"x_min":67,"x_max":746,"o":"m 406 -16 q 246 9 312 -16 q 141 83 180 34 q 84 199 102 132 q 67 355 67 265 l 67 770 q 84 927 67 861 q 141 1042 102 994 q 246 1116 180 1091 q 406 1140 312 1140 q 667 1047 588 1140 q 746 770 746 954 l 746 355 q 667 78 746 172 q 406 -16 588 -16 m 367 168 q 375 164 367 168 q 406 160 383 160 q 444 168 428 160 q 469 188 460 176 q 483 218 478 199 q 490 254 488 237 q 491 294 491 271 l 491 833 q 490 872 491 855 q 483 907 488 888 q 469 937 478 926 q 444 957 460 949 q 406 964 428 964 q 367 957 383 964 q 342 938 351 949 q 329 907 334 926 q 323 872 324 888 q 322 833 322 857 l 322 294 q 323 254 322 270 q 329 219 324 238 q 342 188 334 199 q 367 168 351 176 z "},"P":{"ha":788,"x_min":83,"x_max":755,"o":"m 331 652 l 410 652 q 499 686 477 652 q 522 802 522 720 q 520 851 522 831 q 512 891 518 871 q 493 923 505 911 q 460 943 481 935 q 410 950 439 950 l 331 950 l 331 652 m 83 0 l 83 1124 l 458 1124 q 681 1041 607 1124 q 755 798 755 958 q 744 685 755 735 q 711 600 732 635 q 661 542 689 566 q 594 504 632 517 q 516 485 556 490 q 429 479 477 479 l 331 479 l 331 0 l 83 0 z "},"Q":{"ha":812,"x_min":67,"x_max":746,"o":"m 367 168 q 375 164 367 168 q 406 160 383 160 q 444 168 428 160 q 469 188 460 176 q 483 218 478 199 q 490 254 488 237 q 491 294 491 271 l 491 833 q 490 872 491 855 q 483 907 488 888 q 469 937 478 926 q 444 957 460 949 q 406 964 428 964 q 367 957 383 964 q 342 938 351 949 q 329 907 334 926 q 323 872 324 888 q 322 833 322 857 l 322 294 q 323 254 322 270 q 329 219 324 238 q 342 188 334 199 q 367 168 351 176 m 659 -221 q 539 -140 608 -200 q 429 -16 470 -79 l 406 -16 q 246 9 312 -16 q 141 83 180 34 q 84 199 102 132 q 67 355 67 265 l 67 770 q 84 927 67 861 q 141 1042 102 994 q 246 1116 180 1091 q 406 1140 312 1140 q 667 1047 588 1140 q 746 770 746 954 l 746 355 q 597 24 746 102 q 710 -73 664 -48 l 659 -221 z "},"R":{"ha":830,"x_min":83,"x_max":781,"o":"m 331 646 l 395 646 q 502 686 471 646 q 533 804 533 725 q 505 920 533 882 q 408 958 477 958 l 331 958 l 331 646 m 83 0 l 83 1124 l 389 1124 q 515 1116 460 1124 q 618 1088 570 1108 q 698 1034 667 1067 q 747 949 729 1001 q 764 827 764 897 q 734 649 764 716 q 627 545 705 582 l 781 0 l 524 0 l 401 503 l 331 503 l 331 0 l 83 0 z "},"S":{"ha":713,"x_min":58,"x_max":676,"o":"m 381 -16 q 143 70 221 -16 q 58 341 64 155 l 271 374 q 297 220 273 268 q 369 172 321 172 q 432 254 432 172 q 416 337 432 299 q 376 403 399 376 q 309 467 352 430 l 210 553 q 150 610 174 584 q 103 671 126 635 q 70 750 81 707 q 59 846 59 793 q 143 1063 59 986 q 374 1140 227 1139 q 465 1129 424 1140 q 534 1101 506 1118 q 584 1056 562 1083 q 617 1003 605 1029 q 638 942 630 976 q 650 881 647 909 q 654 821 653 853 l 439 793 q 438 841 439 822 q 434 880 437 859 q 427 914 431 901 q 414 938 422 927 q 394 954 406 949 q 366 958 382 959 q 316 931 334 958 q 299 871 299 904 q 307 813 299 839 q 334 762 315 787 q 366 726 353 738 q 406 688 378 713 l 502 604 q 570 536 541 568 q 624 463 598 504 q 663 373 650 422 q 676 267 676 323 q 595 65 676 145 q 381 -16 513 -16 z "},"T":{"ha":620,"x_min":14,"x_max":606,"o":"m 186 0 l 186 941 l 14 941 l 14 1124 l 606 1124 l 606 941 l 435 941 l 435 0 l 186 0 z "},"U":{"ha":815,"x_min":75,"x_max":740,"o":"m 408 -16 q 274 0 331 -16 q 179 45 216 16 q 118 121 141 75 q 85 223 94 168 q 75 354 75 279 l 75 1124 l 321 1124 l 321 317 q 322 272 321 291 q 329 232 323 254 q 342 196 334 210 q 368 173 351 182 q 408 164 385 164 q 447 173 431 164 q 472 196 463 182 q 486 232 481 210 q 492 273 491 254 q 494 317 494 292 l 494 1124 l 740 1124 l 740 354 q 724 195 740 260 q 671 80 708 129 q 568 8 633 31 q 408 -16 503 -16 z "},"V":{"ha":731,"x_min":31,"x_max":702,"o":"m 235 0 l 31 1124 l 243 1124 l 364 366 l 476 1124 l 702 1124 l 496 0 l 235 0 z "},"W":{"ha":971,"x_min":39,"x_max":932,"o":"m 174 0 l 39 1124 l 250 1124 l 316 471 l 402 1124 l 566 1124 l 656 475 l 724 1124 l 932 1124 l 796 0 l 581 0 l 485 678 l 393 0 l 174 0 z "},"X":{"ha":715,"x_min":9,"x_max":706,"o":"m 9 0 l 229 606 l 19 1124 l 254 1124 l 377 821 l 476 1124 l 685 1124 l 488 542 l 706 0 l 473 0 l 337 335 l 216 0 l 9 0 z "},"Y":{"ha":686,"x_min":11,"x_max":675,"o":"m 225 0 l 225 460 l 11 1124 l 245 1124 l 352 768 l 449 1124 l 675 1124 l 463 460 l 463 0 l 225 0 z "},"Z":{"ha":600,"x_min":42,"x_max":563,"o":"m 42 0 l 42 151 l 315 956 l 53 956 l 53 1124 l 561 1124 l 561 987 l 281 168 l 563 168 l 563 0 l 42 0 z "},"[":{"ha":465,"x_min":72,"x_max":423,"o":"m 72 -258 l 73 1124 l 423 1124 l 423 1036 l 250 1036 l 250 -170 l 422 -170 l 422 -258 l 72 -258 z "},"\\":{"ha":587,"x_min":60,"x_max":526,"o":"m 402 0 l 60 1124 l 184 1124 l 526 0 l 402 0 z "},"]":{"ha":452,"x_min":28,"x_max":380,"o":"m 29 -258 l 29 -171 l 202 -171 l 201 1036 l 28 1036 l 28 1124 l 378 1124 l 380 -258 l 29 -258 z "},"^":{"ha":663,"x_min":42,"x_max":621,"o":"m 42 659 l 241 1124 l 422 1124 l 621 659 l 429 659 l 331 931 l 234 659 l 42 659 z "},"_":{"ha":511,"x_min":0,"x_max":511,"o":"m 0 -232 l 0 -79 l 511 -79 l 511 -232 l 0 -232 z "},"`":{"ha":429,"x_min":57,"x_max":374,"o":"m 233 845 l 57 1124 l 290 1124 l 374 845 l 233 845 z "},"a":{"ha":662,"x_min":50,"x_max":611,"o":"m 318 142 q 352 153 334 142 q 380 180 369 164 l 380 399 q 291 323 326 372 q 256 227 256 274 q 273 165 256 188 q 318 142 291 142 m 236 -14 q 100 46 151 -13 q 50 182 50 106 q 59 255 50 221 q 83 315 69 290 q 122 363 97 340 q 168 402 147 387 q 221 433 188 416 q 275 458 255 450 q 331 479 296 466 q 380 498 366 492 l 380 578 q 370 630 380 612 q 332 648 359 648 q 283 585 286 648 l 278 526 l 66 534 q 67 547 66 536 q 68 560 68 559 q 150 754 78 692 q 354 817 221 817 q 535 751 473 817 q 597 575 597 685 l 597 201 q 611 0 597 124 l 410 0 q 391 114 392 98 q 335 22 374 59 q 236 -14 296 -14 z "},"b":{"ha":703,"x_min":71,"x_max":644,"o":"m 361 134 q 362 134 361 134 q 404 159 391 134 q 417 224 418 184 l 417 596 q 403 657 417 633 q 363 679 390 679 q 359 679 361 679 q 298 652 331 677 l 298 153 q 361 134 331 134 m 598 54 q 576 20 598 54 q 468 -14 553 -14 q 298 60 383 -14 l 298 0 l 71 0 l 71 1124 l 298 1124 l 298 744 q 465 817 379 817 q 473 817 469 817 q 602 747 559 814 q 644 579 644 681 l 644 237 q 598 54 644 122 z "},"c":{"ha":650,"x_min":55,"x_max":603,"o":"m 332 -14 q 127 57 200 -14 q 55 257 55 129 l 55 547 q 127 746 55 675 q 332 817 200 817 q 533 756 463 817 q 603 575 603 695 l 603 490 l 385 490 l 385 581 q 372 644 385 627 q 333 661 359 661 q 294 640 307 661 q 282 568 282 619 l 282 235 q 295 163 282 182 q 333 143 307 143 q 372 161 359 143 q 385 221 385 179 l 385 327 l 603 327 l 603 230 q 532 48 603 111 q 332 -14 461 -14 z "},"d":{"ha":699,"x_min":59,"x_max":629,"o":"m 343 132 q 402 151 367 132 l 402 656 q 345 674 372 674 q 300 650 315 674 q 286 587 286 626 l 286 221 q 300 157 286 182 q 343 132 313 132 m 245 -14 q 107 49 155 -14 q 59 236 59 112 l 59 562 q 107 747 59 677 q 245 817 155 817 q 402 753 329 817 l 402 1124 l 629 1124 l 629 0 l 402 0 l 402 61 q 245 -14 326 -14 z "},"e":{"ha":652,"x_min":55,"x_max":600,"o":"m 279 493 l 390 493 l 390 573 q 375 636 390 618 q 332 655 360 655 q 293 633 306 655 q 279 559 279 612 l 279 493 m 333 -14 q 127 57 200 -14 q 55 258 55 128 l 55 545 q 128 746 55 675 q 333 817 201 817 q 533 748 467 817 q 600 545 600 679 l 600 387 l 279 387 l 279 246 q 292 173 279 197 q 333 148 304 148 q 390 226 390 148 l 390 279 l 600 279 l 600 233 q 530 49 600 113 q 333 -14 460 -14 z "},"f":{"ha":445,"x_min":24,"x_max":429,"o":"m 100 0 l 100 649 l 24 649 l 24 803 l 100 803 l 100 859 q 103 927 100 899 q 114 984 106 955 q 137 1032 122 1013 q 177 1066 153 1051 q 237 1089 201 1082 q 321 1097 273 1097 q 429 1090 370 1097 l 429 922 q 381 928 390 928 q 327 866 327 928 l 327 803 l 429 803 l 429 649 l 327 649 l 327 0 l 100 0 z "},"g":{"ha":693,"x_min":35,"x_max":712,"o":"m 343 384 q 393 416 382 384 q 405 532 405 448 q 394 650 405 619 q 342 681 384 681 q 318 677 328 681 q 301 663 308 673 q 291 643 294 653 q 285 613 287 633 q 283 577 283 593 q 283 532 283 562 q 285 468 283 492 q 293 423 287 444 q 311 393 298 402 q 343 384 323 384 m 372 -99 q 454 -87 428 -99 q 482 -49 479 -76 q 483 -35 483 -42 q 468 3 483 -9 q 399 24 449 19 l 277 39 q 245 -41 245 -8 q 274 -85 245 -71 q 372 -99 302 -99 m 373 -241 q 314 -240 340 -241 q 251 -235 287 -239 q 186 -226 214 -232 q 128 -208 157 -220 q 79 -181 98 -197 q 47 -141 60 -165 q 35 -88 35 -117 q 149 71 35 -8 q 76 111 99 90 q 49 161 53 133 q 47 183 47 172 q 66 242 47 216 q 146 321 91 277 q 59 521 59 385 q 132 744 59 671 q 338 817 205 817 q 522 747 467 817 q 630 836 572 806 l 660 851 l 712 741 q 648 715 692 734 q 578 680 604 695 q 618 522 618 618 q 552 320 618 393 q 354 248 487 248 q 285 255 322 248 q 226 272 248 262 q 201 222 201 240 q 202 216 201 219 q 276 186 205 196 q 362 174 295 182 q 450 163 429 165 q 613 101 566 147 q 661 -31 661 56 q 646 -116 661 -79 q 600 -182 632 -153 q 510 -226 567 -211 q 373 -241 453 -241 z "},"h":{"ha":707,"x_min":72,"x_max":642,"o":"m 72 0 l 72 1124 l 298 1124 l 298 731 q 494 817 384 817 q 604 764 566 817 q 642 630 642 712 l 642 0 l 415 0 l 415 596 q 406 641 415 627 q 370 655 396 656 q 298 626 340 655 l 298 0 l 72 0 z "},"i":{"ha":370,"x_min":71,"x_max":299,"o":"m 71 938 l 71 1097 l 299 1097 l 299 938 l 71 938 m 73 0 l 73 803 l 299 803 l 299 0 l 73 0 z "},"j":{"ha":383,"x_min":-13,"x_max":315,"o":"m 87 938 l 87 1097 l 315 1097 l 315 938 l 87 938 m -13 -230 l -13 -68 q 27 -73 20 -73 q 89 -5 89 -73 l 89 803 l 315 803 l 315 -33 q 261 -189 315 -130 q 107 -248 208 -248 q -13 -230 49 -248 z "},"k":{"ha":749,"x_min":71,"x_max":745,"o":"m 71 1 l 71 1125 l 296 1125 l 296 502 l 490 803 l 745 803 l 533 474 l 743 0 l 495 0 l 355 381 l 296 306 l 296 1 l 71 1 z "},"l":{"ha":380,"x_min":80,"x_max":307,"o":"m 80 0 l 80 1124 l 307 1124 l 307 0 l 80 0 z "},"m":{"ha":1046,"x_min":71,"x_max":981,"o":"m 71 0 l 71 803 l 292 803 l 292 738 q 484 818 373 818 q 567 793 531 818 q 621 723 602 769 q 826 818 705 818 q 939 766 897 818 q 981 624 981 715 l 981 0 l 758 0 l 758 601 q 747 649 758 634 q 711 663 735 664 q 637 633 674 661 l 637 624 l 637 0 l 416 0 l 416 601 q 405 649 416 633 q 368 663 393 664 q 292 632 334 661 l 292 0 l 71 0 z "},"n":{"ha":705,"x_min":71,"x_max":639,"o":"m 71 0 l 71 803 l 297 803 l 297 723 q 492 817 393 817 q 601 764 563 817 q 639 630 639 712 l 639 0 l 412 0 l 412 596 q 403 641 412 627 q 368 655 393 656 q 297 627 339 655 l 297 0 l 71 0 z "},"o":{"ha":671,"x_min":55,"x_max":616,"o":"m 541 54 q 503 20 541 54 q 334 -14 466 -14 q 129 54 203 -14 q 55 250 55 121 l 55 553 q 129 749 55 682 q 334 817 203 817 q 541 749 466 817 q 616 553 616 681 l 616 250 q 541 54 616 121 m 334 138 q 379 162 367 138 q 392 234 392 186 l 392 568 q 379 641 392 617 q 334 665 367 665 q 291 641 303 665 q 278 568 278 616 l 278 234 q 291 162 278 187 q 334 138 303 138 z "},"p":{"ha":701,"x_min":71,"x_max":643,"o":"m 358 134 q 359 134 359 134 q 401 159 388 134 q 416 224 415 184 l 416 596 q 401 657 416 633 q 362 679 387 679 q 356 679 359 679 q 297 652 330 677 l 297 153 q 358 134 330 134 m 71 -264 l 71 803 l 297 803 l 297 744 q 464 817 380 817 q 471 817 468 817 q 601 747 558 814 q 643 579 643 681 l 643 237 q 597 54 643 122 q 467 -14 551 -14 q 297 60 382 -14 l 297 -264 l 71 -264 z "},"q":{"ha":701,"x_min":58,"x_max":631,"o":"m 344 132 q 405 154 369 132 l 405 655 q 345 674 370 674 q 300 650 315 674 q 286 587 286 626 l 286 221 q 300 157 286 182 q 344 132 314 132 m 405 -264 l 405 65 q 245 -14 326 -14 q 106 49 154 -14 q 58 236 58 112 l 58 562 q 106 747 58 677 q 245 817 154 817 q 405 749 329 817 l 405 803 l 631 803 l 631 -264 l 405 -264 z "},"r":{"ha":515,"x_min":73,"x_max":492,"o":"m 73 0 l 73 803 l 300 803 l 300 669 q 460 813 374 813 q 492 808 473 813 l 492 607 q 455 612 473 612 q 300 515 362 607 l 300 0 l 73 0 z "},"s":{"ha":587,"x_min":26,"x_max":562,"o":"m 306 -14 q 136 34 203 -14 q 26 188 68 83 l 183 256 q 237 168 206 199 q 296 140 265 140 q 302 140 299 140 q 338 156 323 141 q 351 194 352 172 q 343 219 351 205 q 313 253 335 232 q 283 281 292 273 q 244 314 275 288 l 182 368 q 45 593 45 483 q 80 710 45 658 q 170 789 114 762 q 292 817 227 817 q 457 763 391 817 q 550 610 523 709 l 404 542 q 364 622 390 587 q 306 659 338 656 q 304 659 304 659 q 266 646 279 659 q 250 612 251 632 q 347 496 248 579 q 359 486 355 489 l 419 431 q 472 384 454 401 q 515 336 490 366 q 551 273 540 305 q 562 205 562 241 q 526 85 562 136 q 432 10 489 35 q 306 -14 374 -14 z "},"t":{"ha":491,"x_min":18,"x_max":456,"o":"m 298 -9 q 231 1 261 -8 q 180 24 201 10 q 143 60 159 39 q 118 105 127 82 q 104 159 109 128 q 96 217 98 189 q 94 281 94 245 l 94 655 l 18 655 l 18 803 l 94 803 l 94 1046 l 323 1046 l 323 803 l 438 803 l 438 655 l 323 655 l 323 240 q 395 175 323 177 q 415 175 404 174 q 434 177 427 176 q 448 179 441 178 q 456 180 455 180 l 456 2 q 321 -10 383 -10 q 298 -9 310 -10 z "},"u":{"ha":699,"x_min":64,"x_max":627,"o":"m 211 -14 q 102 39 140 -14 q 64 173 64 91 l 64 803 l 290 803 l 290 200 q 301 155 290 170 q 336 140 311 140 q 401 165 363 141 l 401 803 l 627 803 l 627 0 l 401 0 l 401 74 q 211 -14 308 -14 z "},"v":{"ha":585,"x_min":14,"x_max":574,"o":"m 174 0 l 14 803 l 231 803 l 297 289 l 358 803 l 574 803 l 411 0 l 174 0 z "},"w":{"ha":831,"x_min":29,"x_max":801,"o":"m 148 0 l 29 803 l 218 803 l 276 347 l 340 803 l 503 803 l 558 337 l 625 803 l 801 803 l 680 0 l 486 0 l 417 450 l 340 0 l 148 0 z "},"x":{"ha":613,"x_min":14,"x_max":609,"o":"m 14 0 l 184 440 l 22 803 l 250 803 l 336 610 l 412 803 l 587 803 l 427 406 l 609 0 l 380 0 l 282 220 l 203 0 l 14 0 z "},"y":{"ha":621,"x_min":3,"x_max":606,"o":"m 92 -233 l 92 -76 q 195 -61 167 -76 q 221 -7 221 -47 q 220 2 221 -3 q 191 128 216 37 q 97 466 183 160 q 3 803 11 771 l 217 803 l 317 340 l 393 803 l 606 803 l 417 -43 q 130 -233 375 -233 q 123 -233 127 -233 l 92 -233 z "},"z":{"ha":543,"x_min":48,"x_max":507,"o":"m 48 0 l 48 146 l 269 637 l 65 637 l 65 803 l 504 803 l 504 665 l 283 166 l 507 166 l 507 0 l 48 0 z "},"{":{"ha":520,"x_min":66,"x_max":477,"o":"m 477 -271 q 379 -267 421 -271 q 303 -255 336 -264 q 246 -235 269 -246 q 207 -204 223 -224 q 180 -165 190 -185 q 165 -113 170 -144 q 158 -50 159 -81 q 156 26 156 -19 l 156 141 q 156 207 156 183 q 154 257 155 231 q 150 296 153 283 q 143 323 148 309 q 133 341 138 336 q 116 351 127 347 q 95 357 106 356 q 66 358 83 358 l 66 520 q 95 521 83 520 q 116 527 106 522 q 133 537 127 532 q 143 555 138 542 q 150 582 148 569 q 154 621 153 595 q 156 671 155 647 q 156 737 156 695 l 156 852 q 158 928 156 897 q 165 991 159 959 q 180 1043 170 1023 q 207 1083 190 1063 q 246 1113 223 1102 q 303 1133 269 1124 q 379 1145 336 1142 q 477 1149 421 1149 l 477 997 q 418 992 438 997 q 386 970 398 988 q 370 923 373 951 q 366 840 366 895 l 366 711 q 340 520 366 585 q 246 439 314 455 q 340 358 314 423 q 366 168 366 293 l 366 39 q 370 -45 366 -16 q 386 -92 373 -73 q 418 -114 398 -110 q 477 -119 438 -119 l 477 -271 z "},"|":{"ha":365,"x_min":89,"x_max":276,"o":"m 89 -248 l 90 1124 l 276 1124 l 276 -248 l 89 -248 z "},"}":{"ha":529,"x_min":52,"x_max":463,"o":"m 52 -271 l 52 -119 q 111 -114 92 -119 q 144 -92 131 -110 q 160 -45 157 -73 q 163 39 163 -17 l 163 168 q 189 358 163 293 q 283 439 215 423 q 189 520 215 455 q 163 711 163 585 l 163 840 q 160 923 163 895 q 144 970 157 951 q 111 992 131 988 q 52 997 92 997 l 52 1149 q 151 1145 108 1149 q 227 1133 193 1142 q 283 1113 260 1124 q 323 1083 307 1102 q 350 1043 340 1063 q 365 991 359 1023 q 372 928 370 959 q 374 852 374 897 l 374 737 q 374 671 374 695 q 376 621 374 647 q 379 582 377 595 q 386 555 381 569 q 397 537 391 542 q 413 527 403 532 q 435 521 424 522 q 463 520 446 520 l 463 358 q 435 357 446 358 q 413 351 424 356 q 397 341 403 347 q 386 323 391 336 q 379 296 381 309 q 376 257 377 283 q 374 207 374 231 q 374 141 374 183 l 374 26 q 372 -50 374 -19 q 365 -113 370 -81 q 350 -165 359 -144 q 323 -204 340 -185 q 283 -235 307 -224 q 227 -255 260 -246 q 151 -267 193 -264 q 52 -271 108 -271 z "},"~":{"ha":671,"x_min":56,"x_max":623,"o":"m 456 463 q 393 475 429 463 q 329 504 357 488 q 270 532 300 519 q 222 545 240 545 q 177 526 205 545 q 127 478 149 508 l 56 572 q 132 662 85 622 q 220 703 178 703 q 300 682 254 703 q 389 642 347 662 q 450 622 430 622 q 545 688 486 622 l 623 606 q 550 507 599 551 q 456 463 501 463 z "}," ":{"ha":357,"x_min":0,"x_max":0,"o":""},"¡":{"ha":329,"x_min":51,"x_max":280,"o":"m 66 695 l 66 906 l 280 906 l 280 695 l 66 695 m 51 -216 l 132 621 l 211 621 l 276 -216 l 51 -216 z "},"¢":{"ha":632,"x_min":52,"x_max":600,"o":"m 294 -179 l 294 -12 q 115 68 178 -3 q 52 257 52 138 l 52 547 q 115 736 52 666 q 294 815 178 806 l 294 980 l 351 980 l 351 816 q 536 751 472 811 q 600 575 600 690 l 600 490 l 381 490 l 381 576 q 369 639 381 622 q 330 656 356 656 q 291 635 303 656 q 279 562 279 614 l 279 239 q 292 168 279 188 q 330 148 304 148 q 369 166 357 148 q 381 226 381 184 l 381 327 l 600 327 l 600 230 q 535 54 600 115 q 351 -14 471 -8 l 351 -179 l 294 -179 z "},"£":{"ha":679,"x_min":28,"x_max":637,"o":"m 28 0 l 28 127 l 111 166 l 111 445 l 28 445 l 28 622 l 111 622 l 111 747 q 113 837 111 798 q 121 919 115 876 q 140 993 128 962 q 172 1053 152 1024 q 221 1100 193 1082 q 290 1129 250 1118 q 382 1140 331 1140 q 489 1125 444 1140 q 562 1084 534 1109 q 607 1018 590 1058 q 631 935 625 979 q 637 836 637 892 l 637 802 l 439 802 q 438 861 439 840 q 432 906 437 882 q 415 940 427 930 q 384 951 403 951 q 362 946 371 951 q 347 928 353 941 q 337 903 340 916 q 332 866 334 890 q 330 823 330 842 q 329 771 329 804 l 329 621 l 493 621 l 493 445 l 329 445 l 329 191 l 631 191 l 631 0 l 28 0 z "},"¤":{"ha":772,"x_min":57,"x_max":715,"o":"m 225 422 q 258 388 225 422 q 386 353 290 353 q 547 422 481 353 q 613 587 613 490 q 548 753 613 684 q 386 821 482 821 q 225 753 290 821 q 159 587 159 684 q 225 422 159 490 m 77 258 l 57 279 l 168 389 q 92 587 92 473 q 168 786 92 702 l 57 896 l 77 916 l 187 806 q 384 884 270 884 q 386 884 385 884 q 388 884 387 884 q 585 806 502 884 l 694 916 l 715 896 l 605 786 q 680 587 680 701 q 604 389 680 473 l 715 279 l 694 258 l 585 368 q 388 290 502 290 q 386 290 387 290 q 384 290 385 290 q 187 368 270 290 l 77 258 z "},"¥":{"ha":661,"x_min":2,"x_max":666,"o":"m 216 0 l 216 165 l 101 165 l 101 279 l 216 279 l 216 370 l 101 370 l 101 486 l 188 486 l 2 1124 l 235 1124 l 343 695 l 439 1124 l 666 1124 l 482 486 l 570 486 l 570 370 l 454 370 l 454 279 l 570 279 l 570 165 l 454 165 l 454 0 l 216 0 z "},"¦":{"ha":302,"x_min":72,"x_max":230,"o":"m 72 559 l 72 1124 l 230 1124 l 230 559 l 72 559 m 72 -248 l 72 317 l 230 317 l 230 -248 l 72 -248 z "},"§":{"ha":657,"x_min":60,"x_max":591,"o":"m 356 503 q 410 568 410 532 q 368 629 410 604 l 302 668 q 259 642 275 660 q 243 601 243 624 q 250 572 243 587 q 270 551 257 558 l 356 503 m 324 -9 q 156 53 220 -9 q 66 218 92 115 l 217 258 q 261 183 233 216 q 328 150 290 150 q 384 167 363 150 q 406 214 405 184 q 383 279 407 251 q 300 342 359 307 l 177 418 q 67 587 67 484 q 68 599 67 593 q 105 701 72 658 q 187 760 139 743 q 101 834 139 785 q 60 938 63 884 q 60 951 60 945 q 92 1059 60 1012 q 189 1137 128 1111 q 325 1162 250 1162 q 498 1099 431 1162 q 591 931 566 1036 l 443 895 q 402 976 428 945 q 334 1006 377 1006 q 332 1006 333 1006 q 279 989 298 1005 q 260 942 260 973 q 262 923 260 932 q 269 906 265 913 q 279 891 272 899 q 291 879 287 883 q 306 867 296 874 q 320 858 317 860 q 334 849 323 855 q 347 842 346 842 l 455 775 q 581 583 581 698 q 552 489 581 528 q 471 416 524 451 q 558 323 530 368 q 587 220 587 279 q 517 54 587 117 q 324 -9 447 -9 z "},"¨":{"ha":590,"x_min":54,"x_max":536,"o":"m 353 919 l 353 1124 l 536 1124 l 536 919 l 353 919 m 54 919 l 54 1124 l 237 1124 l 237 919 l 54 919 z "},"©":{"ha":1225,"x_min":59,"x_max":1166,"o":"m 822 16 q 775 -1 822 16 q 614 -18 728 -18 q 405 16 499 -18 q 248 106 311 50 q 141 239 184 163 q 78 396 98 315 q 59 564 59 478 q 78 733 59 651 q 141 890 98 814 q 248 1023 184 966 q 405 1113 311 1079 q 614 1147 499 1147 q 822 1113 728 1147 q 978 1023 916 1079 q 1084 890 1041 966 q 1147 733 1128 814 q 1166 564 1166 651 q 1147 396 1166 477 q 1085 238 1128 314 q 979 106 1042 163 q 822 16 916 50 m 616 39 q 796 68 714 39 q 935 147 878 97 q 1029 265 991 197 q 1086 407 1068 332 q 1104 564 1104 482 q 1086 720 1104 645 q 1029 862 1068 795 q 935 979 991 929 q 797 1057 878 1028 q 616 1086 715 1086 q 434 1057 517 1086 q 296 979 352 1028 q 201 862 239 929 q 144 720 162 795 q 126 564 126 645 q 144 407 126 482 q 201 265 162 332 q 296 147 239 197 q 434 68 352 97 q 616 39 517 39 m 613 172 q 391 241 469 172 q 313 436 313 311 l 313 702 q 391 896 313 827 q 613 965 469 965 q 830 906 754 965 q 906 730 906 847 l 906 652 l 671 652 l 671 730 q 656 793 671 776 q 614 810 642 810 q 571 789 585 810 q 557 717 557 768 l 557 418 q 571 347 557 367 q 614 328 585 328 q 657 346 643 328 q 671 405 671 363 l 671 494 l 906 494 l 906 409 q 829 232 906 292 q 613 172 753 172 z "},"ª":{"ha":671,"x_min":79,"x_max":588,"o":"m 328 568 q 386 604 363 568 l 386 780 q 304 715 336 757 q 273 636 273 674 q 288 587 273 605 q 328 568 304 568 m 253 434 q 126 485 173 435 q 79 600 79 534 q 89 661 79 632 q 111 710 98 689 q 148 750 125 731 q 191 782 171 770 q 241 807 211 793 q 291 827 271 820 q 342 844 311 833 q 386 859 373 854 l 386 934 q 345 994 386 994 q 311 971 320 994 q 296 891 301 949 l 101 897 q 170 1080 102 1019 q 363 1141 239 1141 q 532 1081 475 1141 q 588 918 588 1021 l 588 446 l 410 446 l 397 538 q 342 463 380 492 q 253 434 305 434 z "},"«":{"ha":678,"x_min":50,"x_max":624,"o":"m 624 47 l 352 374 l 352 453 l 624 779 l 624 559 l 486 413 l 624 267 l 624 47 m 321 47 l 50 374 l 50 453 l 321 779 l 321 559 l 184 413 l 321 267 l 321 47 z "},"¬":{"ha":690,"x_min":64,"x_max":625,"o":"m 513 286 l 513 503 l 64 503 l 64 655 l 625 655 l 625 286 l 513 286 z "},"­":{"ha":516,"x_min":90,"x_max":437,"o":"m 90 378 l 90 524 l 437 524 l 437 378 l 90 378 z "},"®":{"ha":1237,"x_min":66,"x_max":1171,"o":"m 827 15 q 780 -2 827 15 q 619 -19 733 -19 q 411 15 505 -19 q 254 105 317 49 q 148 237 191 161 q 86 394 105 313 q 66 562 66 475 q 86 730 66 648 q 148 887 105 811 q 254 1019 191 962 q 411 1108 317 1075 q 619 1142 505 1142 q 827 1108 733 1142 q 983 1019 920 1075 q 1089 887 1046 962 q 1151 730 1132 811 q 1171 562 1171 648 q 1152 393 1171 475 q 1089 236 1133 312 q 984 104 1046 161 q 827 15 921 48 m 618 55 q 791 83 713 55 q 923 160 869 112 q 1014 273 977 208 q 1068 411 1051 338 q 1085 561 1085 484 q 1068 711 1085 639 q 1014 848 1051 783 q 923 961 977 913 q 791 1037 869 1009 q 618 1065 713 1065 q 445 1037 524 1065 q 312 961 366 1009 q 221 848 258 913 q 167 711 184 783 q 150 561 150 639 q 167 411 150 484 q 221 274 184 339 q 312 160 258 208 q 445 83 366 112 q 618 55 524 55 m 568 605 l 595 605 q 675 632 652 605 q 698 710 698 659 q 611 807 698 807 l 568 807 l 568 605 m 385 214 l 385 915 l 615 915 q 806 872 743 915 q 870 723 870 829 q 848 615 870 655 q 770 548 825 574 l 892 214 l 699 214 l 605 512 l 568 512 l 568 214 l 385 214 z "},"¯":{"ha":248,"x_min":-45,"x_max":304,"o":"m -45 1018 l -45 1124 l 304 1124 l 304 1018 l -45 1018 z "},"°":{"ha":749,"x_min":95,"x_max":655,"o":"m 374 589 q 171 664 248 589 q 95 865 95 740 q 171 1065 95 990 q 374 1139 248 1139 q 578 1064 500 1139 q 655 865 655 989 q 578 664 655 740 q 374 589 502 589 m 374 712 q 474 754 438 712 q 511 865 511 797 q 475 974 511 932 q 374 1015 439 1015 q 274 974 310 1015 q 238 865 238 932 q 274 754 238 797 q 374 712 310 712 z "},"±":{"ha":667,"x_min":90,"x_max":578,"o":"m 90 0 l 90 138 l 578 138 l 578 0 l 90 0 m 262 256 l 262 435 l 90 435 l 90 568 l 262 568 l 262 747 l 406 747 l 406 568 l 578 568 l 578 435 l 406 435 l 406 256 l 262 256 z "},"²":{"ha":600,"x_min":96,"x_max":540,"o":"m 97 421 l 97 551 l 288 846 q 316 888 294 854 q 347 936 338 921 q 366 980 356 951 q 376 1033 376 1008 q 359 1089 376 1070 q 324 1104 345 1104 q 313 1103 319 1104 q 261 952 261 1096 l 96 952 l 96 994 q 151 1178 96 1109 q 318 1246 205 1246 q 481 1190 423 1246 q 540 1031 540 1133 q 535 980 540 1006 q 524 938 530 955 q 504 893 518 920 q 483 855 490 867 q 456 813 476 844 q 431 775 437 783 l 290 555 l 518 555 l 518 421 l 97 421 z "},"³":{"ha":600,"x_min":88,"x_max":540,"o":"m 317 408 q 207 427 252 408 q 136 480 161 445 q 99 562 111 516 q 88 670 88 608 l 88 706 l 260 706 l 260 667 q 273 579 260 605 q 317 553 286 553 q 360 577 348 553 q 372 652 372 601 q 354 746 372 715 q 288 777 336 777 l 247 777 l 247 888 l 285 888 q 353 920 334 888 q 372 1015 372 951 q 314 1109 372 1109 q 260 1015 260 1109 l 260 958 l 88 958 l 88 1018 q 148 1186 88 1126 q 313 1246 208 1246 q 480 1190 421 1246 q 540 1023 540 1133 q 511 905 540 956 q 443 845 482 855 q 540 661 540 807 q 486 476 540 543 q 317 408 432 408 z "},"´":{"ha":429,"x_min":75,"x_max":392,"o":"m 75 845 l 160 1124 l 392 1124 l 216 845 l 75 845 z "},"µ":{"ha":682,"x_min":58,"x_max":620,"o":"m 58 -259 l 58 803 l 284 803 l 284 207 q 294 162 284 176 q 329 148 303 147 q 393 172 355 148 l 393 803 l 620 803 l 620 0 l 393 0 l 393 64 q 302 5 349 22 q 285 -1 292 1 l 285 -259 l 58 -259 z "},"¶":{"ha":724,"x_min":49,"x_max":629,"o":"m 262 -133 l 262 681 q 107 741 165 683 q 49 901 49 799 q 63 990 49 951 q 102 1054 78 1029 q 162 1095 127 1079 q 235 1118 197 1112 q 319 1124 273 1124 l 629 1124 l 629 -133 l 505 -133 l 505 997 l 393 997 l 393 -133 l 262 -133 z "},"·":{"ha":310,"x_min":49,"x_max":262,"o":"m 49 418 l 49 627 l 262 627 l 262 418 l 49 418 z "},"¸":{"ha":385,"x_min":73,"x_max":387,"o":"m 73 -369 l 73 -271 q 138 -281 101 -279 q 155 -282 146 -282 q 208 -275 182 -282 q 240 -241 240 -265 q 218 -196 240 -215 q 170 -170 196 -178 q 112 -161 143 -163 l 112 0 l 196 0 l 196 -92 q 331 -133 276 -95 q 387 -234 387 -172 q 358 -320 387 -285 q 282 -372 329 -357 q 186 -385 237 -386 q 180 -385 183 -385 q 73 -369 126 -385 z "},"¹":{"ha":595,"x_min":110,"x_max":418,"o":"m 248 421 l 248 1049 l 110 1015 l 110 1142 q 132 1149 112 1143 q 163 1161 151 1156 q 197 1175 176 1166 q 233 1192 218 1184 q 262 1211 248 1200 q 286 1232 277 1221 l 418 1232 l 418 421 l 248 421 z "},"º":{"ha":671,"x_min":96,"x_max":576,"o":"m 334 571 q 378 593 365 571 q 391 658 391 614 l 391 918 q 378 982 391 960 q 334 1004 365 1004 q 279 918 279 1004 l 279 658 q 334 571 279 571 m 335 433 q 159 490 223 433 q 96 655 96 547 l 96 920 q 159 1085 96 1028 q 335 1141 223 1141 q 510 1084 445 1141 q 576 920 576 1027 l 576 655 q 510 491 576 549 q 335 433 445 433 z "},"»":{"ha":689,"x_min":62,"x_max":640,"o":"m 365 47 l 365 267 l 507 414 l 365 559 l 365 779 l 640 453 l 640 374 l 365 47 m 62 47 l 62 267 l 205 414 l 62 559 l 62 779 l 338 453 l 338 374 l 62 47 z "},"¼":{"ha":954,"x_min":71,"x_max":884,"o":"m 595 258 l 696 258 l 696 437 l 595 258 m 148 0 l 667 1124 l 781 1124 l 261 0 l 148 0 m 153 562 l 153 945 l 71 907 l 71 1011 q 214 1124 162 1059 l 288 1124 l 288 562 l 153 562 m 696 1 l 696 155 l 511 155 l 511 254 l 708 583 l 812 583 l 812 258 l 884 258 l 884 155 l 812 155 l 812 1 l 696 1 z "},"½":{"ha":954,"x_min":35,"x_max":892,"o":"m 117 0 l 636 1124 l 750 1124 l 231 0 l 117 0 m 118 562 l 118 945 l 35 907 l 35 1011 q 178 1124 125 1058 l 252 1124 l 252 562 l 118 562 m 569 1 l 569 101 l 699 286 q 711 304 701 290 q 724 322 720 317 q 735 340 727 328 q 746 359 743 353 q 755 377 749 366 q 763 396 760 388 q 767 415 765 405 q 769 435 769 425 q 724 492 769 492 q 685 461 697 492 q 677 417 677 441 q 680 387 677 403 l 559 387 q 556 434 556 420 q 600 549 557 506 q 722 593 643 593 q 846 552 801 593 q 892 437 892 511 q 877 361 892 400 q 846 296 863 322 q 796 222 830 269 q 772 190 793 218 q 730 132 751 161 q 707 101 709 103 l 881 101 l 881 1 l 569 1 z "},"¾":{"ha":954,"x_min":66,"x_max":899,"o":"m 610 258 l 711 258 l 711 437 l 610 258 m 159 0 l 678 1124 l 792 1124 l 273 0 l 159 0 m 711 1 l 711 155 l 526 155 l 526 254 l 723 583 l 827 583 l 827 258 l 899 258 l 899 155 l 827 155 l 827 1 l 711 1 m 218 603 q 106 645 146 603 q 66 758 66 686 l 168 758 q 180 713 168 729 q 213 696 191 696 q 250 758 250 696 q 232 810 250 797 q 165 823 214 823 l 165 905 q 232 918 213 905 q 252 970 252 932 q 243 1018 252 1002 q 212 1035 235 1035 q 178 1019 187 1035 q 168 973 168 1003 l 66 973 q 106 1090 66 1052 q 220 1128 146 1128 q 358 980 358 1128 q 332 905 358 935 q 271 871 307 875 q 361 759 361 857 q 324 643 361 684 q 218 603 288 603 z "},"¿":{"ha":724,"x_min":71,"x_max":649,"o":"m 301 677 l 301 892 l 522 892 l 522 677 l 301 677 m 378 -250 q 150 -176 229 -250 q 71 35 71 -101 q 139 273 71 156 q 310 462 208 391 l 310 597 l 516 597 l 516 418 q 351 232 414 334 q 294 46 294 140 q 295 26 294 36 q 319 -37 297 -18 q 373 -56 340 -56 q 421 -34 403 -56 q 437 16 437 -14 q 437 23 437 20 q 423 95 437 50 l 628 141 q 648 23 648 60 q 649 0 649 11 q 639 -84 650 -45 q 594 -171 625 -133 q 508 -229 563 -208 q 378 -250 452 -250 z "},"À":{"ha":764,"x_min":29,"x_max":734,"o":"m 311 1223 l 136 1502 l 368 1502 l 452 1223 l 311 1223 m 324 387 l 444 387 l 384 823 l 324 387 m 29 0 l 242 1124 l 523 1124 l 734 0 l 505 0 l 467 239 l 302 239 l 264 0 l 29 0 z "},"Á":{"ha":764,"x_min":29,"x_max":734,"o":"m 311 1223 l 397 1502 l 629 1502 l 453 1223 l 311 1223 m 324 387 l 444 387 l 384 823 l 324 387 m 29 0 l 242 1124 l 523 1124 l 734 0 l 505 0 l 467 239 l 302 239 l 264 0 l 29 0 z "},"Â":{"ha":764,"x_min":29,"x_max":734,"o":"m 156 1223 l 287 1488 l 473 1488 l 608 1223 l 442 1223 l 382 1387 l 321 1223 l 156 1223 m 324 387 l 444 387 l 384 823 l 324 387 m 29 0 l 242 1124 l 523 1124 l 734 0 l 505 0 l 467 239 l 302 239 l 264 0 l 29 0 z "},"Ã":{"ha":764,"x_min":29,"x_max":734,"o":"m 509 1223 q 503 1223 506 1223 q 441 1237 476 1223 q 364 1271 401 1253 q 309 1289 328 1289 q 270 1232 270 1289 l 161 1232 q 161 1240 161 1236 q 170 1333 161 1296 q 205 1398 178 1372 q 277 1428 231 1425 q 288 1429 282 1429 q 351 1417 318 1429 q 419 1386 389 1402 q 463 1368 450 1369 q 470 1367 467 1367 q 502 1419 502 1367 l 602 1419 q 599 1350 602 1380 q 587 1289 596 1319 q 558 1242 578 1259 q 509 1223 538 1225 m 324 387 l 444 387 l 384 823 l 324 387 m 29 0 l 242 1124 l 523 1124 l 734 0 l 505 0 l 467 239 l 302 239 l 264 0 l 29 0 z "},"Ä":{"ha":764,"x_min":29,"x_max":734,"o":"m 440 1223 l 440 1428 l 623 1428 l 623 1223 l 440 1223 m 141 1223 l 141 1428 l 323 1428 l 323 1223 l 141 1223 m 324 387 l 444 387 l 384 823 l 324 387 m 29 0 l 242 1124 l 523 1124 l 734 0 l 505 0 l 467 239 l 302 239 l 264 0 l 29 0 z "},"Å":{"ha":764,"x_min":29,"x_max":734,"o":"m 330 1232 q 339 1221 330 1232 q 381 1211 349 1211 q 432 1232 414 1211 q 450 1284 450 1253 q 432 1337 450 1316 q 381 1358 414 1358 q 330 1337 349 1358 q 312 1284 312 1316 q 330 1232 312 1253 m 381 1130 q 265 1171 311 1130 q 219 1284 219 1211 q 265 1397 219 1357 q 381 1438 311 1438 q 498 1397 452 1438 q 545 1284 545 1356 q 498 1171 545 1211 q 381 1130 452 1130 m 324 387 l 444 387 l 384 823 l 324 387 m 29 0 l 242 1124 l 523 1124 l 734 0 l 505 0 l 467 239 l 302 239 l 264 0 l 29 0 z "},"Æ":{"ha":983,"x_min":-22,"x_max":954,"o":"m 374 392 l 503 392 l 503 738 l 374 392 m -22 0 l 469 1109 l 954 1109 l 954 940 l 717 940 l 717 667 l 884 667 l 884 494 l 717 494 l 717 168 l 954 168 l 954 0 l 503 0 l 503 235 l 323 235 l 227 0 l -22 0 z "},"Ç":{"ha":781,"x_min":67,"x_max":728,"o":"m 321 -369 l 321 -271 q 386 -281 349 -279 q 402 -282 394 -282 q 455 -275 429 -282 q 488 -241 488 -265 q 466 -196 488 -215 q 417 -170 444 -178 q 359 -161 391 -163 l 359 0 l 444 0 l 444 -92 q 578 -133 524 -95 q 634 -234 634 -172 q 606 -320 634 -285 q 530 -372 576 -357 q 433 -385 485 -386 q 428 -385 431 -385 q 321 -369 374 -385 m 405 -16 q 244 11 311 -16 q 139 87 178 37 q 84 205 101 138 q 67 361 67 271 l 67 762 q 84 921 67 853 q 139 1039 101 988 q 244 1115 178 1089 q 405 1140 310 1140 q 560 1117 496 1140 q 660 1049 624 1094 q 712 947 696 1004 q 728 815 728 890 l 728 716 l 486 716 l 486 829 q 485 869 486 856 q 480 904 484 883 q 468 937 476 926 q 444 956 460 947 q 405 964 428 964 q 366 956 382 964 q 341 936 349 947 q 327 903 332 924 q 321 865 322 882 q 320 823 320 848 l 320 299 q 338 196 320 231 q 405 160 355 160 q 443 169 427 160 q 467 189 459 177 q 480 221 475 200 q 485 258 484 242 q 486 299 486 273 l 486 417 l 728 417 l 728 320 q 719 211 728 260 q 687 119 709 162 q 628 47 664 76 q 535 1 591 18 q 405 -16 479 -16 z "},"È":{"ha":621,"x_min":83,"x_max":591,"o":"m 266 1223 l 90 1502 l 323 1502 l 407 1223 l 266 1223 m 83 0 l 83 1124 l 588 1124 l 588 955 l 331 955 l 331 677 l 527 677 l 527 504 l 331 504 l 331 168 l 591 168 l 591 0 l 83 0 z "},"É":{"ha":621,"x_min":83,"x_max":591,"o":"m 266 1223 l 351 1502 l 583 1502 l 408 1223 l 266 1223 m 83 0 l 83 1124 l 588 1124 l 588 955 l 331 955 l 331 677 l 527 677 l 527 504 l 331 504 l 331 168 l 591 168 l 591 0 l 83 0 z "},"Ê":{"ha":621,"x_min":83,"x_max":591,"o":"m 111 1223 l 241 1488 l 428 1488 l 563 1223 l 397 1223 l 336 1387 l 276 1223 l 111 1223 m 83 0 l 83 1124 l 588 1124 l 588 955 l 331 955 l 331 677 l 527 677 l 527 504 l 331 504 l 331 168 l 591 168 l 591 0 l 83 0 z "},"Ë":{"ha":621,"x_min":83,"x_max":591,"o":"m 395 1223 l 395 1428 l 578 1428 l 578 1223 l 395 1223 m 96 1223 l 96 1428 l 279 1428 l 279 1223 l 96 1223 m 83 0 l 83 1124 l 588 1124 l 588 955 l 331 955 l 331 677 l 527 677 l 527 504 l 331 504 l 331 168 l 591 168 l 591 0 l 83 0 z "},"Ì":{"ha":417,"x_min":-37,"x_max":333,"o":"m 138 1223 l -37 1502 l 195 1502 l 279 1223 l 138 1223 m 85 0 l 85 1124 l 333 1124 l 333 0 l 85 0 z "},"Í":{"ha":417,"x_min":85,"x_max":455,"o":"m 138 1223 l 223 1502 l 455 1502 l 279 1223 l 138 1223 m 85 0 l 85 1124 l 333 1124 l 333 0 l 85 0 z "},"Î":{"ha":417,"x_min":-18,"x_max":435,"o":"m -18 1223 l 113 1488 l 300 1488 l 435 1223 l 269 1223 l 208 1387 l 148 1223 l -18 1223 m 85 0 l 85 1124 l 333 1124 l 333 0 l 85 0 z "},"Ï":{"ha":417,"x_min":-32,"x_max":450,"o":"m 267 1223 l 267 1428 l 450 1428 l 450 1223 l 267 1223 m -32 1223 l -32 1428 l 151 1428 l 151 1223 l -32 1223 m 85 0 l 85 1124 l 333 1124 l 333 0 l 85 0 z "},"Ð":{"ha":777,"x_min":11,"x_max":733,"o":"m 72 0 l 72 514 l 11 514 l 11 638 l 72 638 l 72 1124 l 355 1124 q 538 1105 465 1124 q 654 1040 611 1085 q 715 931 698 996 q 733 768 733 866 l 733 363 q 715 198 733 264 q 654 86 698 132 q 539 20 611 41 q 358 0 467 0 l 72 0 m 320 172 l 358 172 q 407 176 387 172 q 440 189 427 180 q 461 209 453 199 q 472 240 469 220 q 477 278 476 260 q 478 326 478 296 l 478 810 q 475 876 478 852 q 459 918 471 899 q 423 944 447 937 q 357 951 399 951 l 320 951 l 320 638 l 376 638 l 376 514 l 320 514 l 320 172 z "},"Ñ":{"ha":777,"x_min":83,"x_max":695,"o":"m 516 1223 q 509 1223 513 1223 q 448 1237 483 1223 q 371 1271 408 1253 q 315 1289 334 1289 q 277 1232 277 1289 l 168 1232 q 168 1240 168 1236 q 176 1333 168 1296 q 212 1398 185 1372 q 283 1428 238 1425 q 295 1429 289 1429 q 357 1417 325 1429 q 426 1386 395 1402 q 469 1368 457 1369 q 477 1367 473 1367 q 509 1419 509 1367 l 609 1419 q 606 1350 609 1380 q 594 1289 603 1319 q 565 1242 585 1259 q 516 1223 545 1225 m 83 0 l 83 1124 l 258 1124 l 489 585 l 489 1124 l 695 1124 l 695 0 l 527 0 l 295 582 l 295 0 l 83 0 z "},"Ò":{"ha":812,"x_min":67,"x_max":746,"o":"m 336 1223 l 161 1502 l 393 1502 l 477 1223 l 336 1223 m 406 -16 q 246 9 312 -16 q 141 83 180 34 q 84 199 102 132 q 67 355 67 265 l 67 770 q 84 927 67 861 q 141 1042 102 994 q 246 1116 180 1091 q 406 1140 312 1140 q 667 1047 588 1140 q 746 770 746 954 l 746 355 q 667 78 746 172 q 406 -16 588 -16 m 367 168 q 375 164 367 168 q 406 160 383 160 q 444 168 428 160 q 469 188 460 176 q 483 218 478 199 q 490 254 488 237 q 491 294 491 271 l 491 833 q 490 872 491 855 q 483 907 488 888 q 469 937 478 926 q 444 957 460 949 q 406 964 428 964 q 367 957 383 964 q 342 938 351 949 q 329 907 334 926 q 323 872 324 888 q 322 833 322 857 l 322 294 q 323 254 322 270 q 329 219 324 238 q 342 188 334 199 q 367 168 351 176 z "},"Ó":{"ha":812,"x_min":67,"x_max":746,"o":"m 336 1223 l 421 1502 l 653 1502 l 477 1223 l 336 1223 m 406 -16 q 246 9 312 -16 q 141 83 180 34 q 84 199 102 132 q 67 355 67 265 l 67 770 q 84 927 67 861 q 141 1042 102 994 q 246 1116 180 1091 q 406 1140 312 1140 q 667 1047 588 1140 q 746 770 746 954 l 746 355 q 667 78 746 172 q 406 -16 588 -16 m 367 168 q 375 164 367 168 q 406 160 383 160 q 444 168 428 160 q 469 188 460 176 q 483 218 478 199 q 490 254 488 237 q 491 294 491 271 l 491 833 q 490 872 491 855 q 483 907 488 888 q 469 937 478 926 q 444 957 460 949 q 406 964 428 964 q 367 957 383 964 q 342 938 351 949 q 329 907 334 926 q 323 872 324 888 q 322 833 322 857 l 322 294 q 323 254 322 270 q 329 219 324 238 q 342 188 334 199 q 367 168 351 176 z "},"Ô":{"ha":812,"x_min":67,"x_max":746,"o":"m 180 1223 l 311 1488 l 498 1488 l 633 1223 l 467 1223 l 406 1387 l 346 1223 l 180 1223 m 406 -16 q 246 9 312 -16 q 141 83 180 34 q 84 199 102 132 q 67 355 67 265 l 67 770 q 84 927 67 861 q 141 1042 102 994 q 246 1116 180 1091 q 406 1140 312 1140 q 667 1047 588 1140 q 746 770 746 954 l 746 355 q 667 78 746 172 q 406 -16 588 -16 m 367 168 q 375 164 367 168 q 406 160 383 160 q 444 168 428 160 q 469 188 460 176 q 483 218 478 199 q 490 254 488 237 q 491 294 491 271 l 491 833 q 490 872 491 855 q 483 907 488 888 q 469 937 478 926 q 444 957 460 949 q 406 964 428 964 q 367 957 383 964 q 342 938 351 949 q 329 907 334 926 q 323 872 324 888 q 322 833 322 857 l 322 294 q 323 254 322 270 q 329 219 324 238 q 342 188 334 199 q 367 168 351 176 z "},"Õ":{"ha":812,"x_min":67,"x_max":746,"o":"m 534 1223 q 527 1223 530 1223 q 465 1237 500 1223 q 389 1271 425 1253 q 333 1289 352 1289 q 294 1232 294 1289 l 186 1232 q 186 1240 186 1236 q 194 1333 186 1296 q 229 1398 203 1372 q 301 1428 256 1425 q 313 1429 307 1429 q 375 1417 342 1429 q 444 1386 413 1402 q 487 1368 475 1369 q 494 1367 491 1367 q 526 1419 526 1367 l 627 1419 q 624 1350 627 1380 q 611 1289 621 1319 q 583 1242 602 1259 q 534 1223 563 1225 m 406 -16 q 246 9 312 -16 q 141 83 180 34 q 84 199 102 132 q 67 355 67 265 l 67 770 q 84 927 67 861 q 141 1042 102 994 q 246 1116 180 1091 q 406 1140 312 1140 q 667 1047 588 1140 q 746 770 746 954 l 746 355 q 667 78 746 172 q 406 -16 588 -16 m 367 168 q 375 164 367 168 q 406 160 383 160 q 444 168 428 160 q 469 188 460 176 q 483 218 478 199 q 490 254 488 237 q 491 294 491 271 l 491 833 q 490 872 491 855 q 483 907 488 888 q 469 937 478 926 q 444 957 460 949 q 406 964 428 964 q 367 957 383 964 q 342 938 351 949 q 329 907 334 926 q 323 872 324 888 q 322 833 322 857 l 322 294 q 323 254 322 270 q 329 219 324 238 q 342 188 334 199 q 367 168 351 176 z "},"Ö":{"ha":812,"x_min":67,"x_max":746,"o":"m 465 1223 l 465 1428 l 647 1428 l 647 1223 l 465 1223 m 165 1223 l 165 1428 l 348 1428 l 348 1223 l 165 1223 m 406 -16 q 246 9 312 -16 q 141 83 180 34 q 84 199 102 132 q 67 355 67 265 l 67 770 q 84 927 67 861 q 141 1042 102 994 q 246 1116 180 1091 q 406 1140 312 1140 q 667 1047 588 1140 q 746 770 746 954 l 746 355 q 667 78 746 172 q 406 -16 588 -16 m 367 168 q 375 164 367 168 q 406 160 383 160 q 444 168 428 160 q 469 188 460 176 q 483 218 478 199 q 490 254 488 237 q 491 294 491 271 l 491 833 q 490 872 491 855 q 483 907 488 888 q 469 937 478 926 q 444 957 460 949 q 406 964 428 964 q 367 957 383 964 q 342 938 351 949 q 329 907 334 926 q 323 872 324 888 q 322 833 322 857 l 322 294 q 323 254 322 270 q 329 219 324 238 q 342 188 334 199 q 367 168 351 176 z "},"×":{"ha":673,"x_min":75,"x_max":598,"o":"m 179 316 l 75 419 l 234 578 l 75 735 l 178 839 l 337 681 l 495 839 l 598 737 l 439 578 l 598 419 l 496 316 l 337 475 l 179 316 z "},"Ø":{"ha":793,"x_min":67,"x_max":746,"o":"m 322 458 l 486 899 q 472 932 481 918 q 447 956 464 947 q 406 964 430 964 q 367 957 383 964 q 342 938 351 949 q 329 907 334 926 q 323 872 324 888 q 322 833 322 857 l 322 458 m 406 160 q 444 168 428 160 q 469 188 460 176 q 483 218 478 199 q 490 254 488 237 q 491 294 491 271 l 491 743 l 322 288 q 323 250 322 266 q 330 216 325 234 q 343 186 335 197 q 368 168 352 175 q 406 160 384 160 m 170 -123 l 115 -102 l 172 52 q 67 355 67 139 l 67 770 q 84 927 67 861 q 141 1042 102 994 q 246 1116 180 1091 q 406 1140 312 1140 q 493 1134 453 1140 q 566 1115 533 1127 l 608 1227 l 663 1206 l 619 1088 q 716 965 686 1044 q 746 770 746 886 l 746 355 q 667 78 746 172 q 406 -16 588 -16 q 222 20 295 -16 l 170 -123 z "},"Ù":{"ha":815,"x_min":75,"x_max":740,"o":"m 337 1223 l 161 1502 l 394 1502 l 478 1223 l 337 1223 m 408 -16 q 274 0 331 -16 q 179 45 216 16 q 118 121 141 75 q 85 223 94 168 q 75 354 75 279 l 75 1124 l 321 1124 l 321 317 q 322 272 321 291 q 329 232 323 254 q 342 196 334 210 q 368 173 351 182 q 408 164 385 164 q 447 173 431 164 q 472 196 463 182 q 486 232 481 210 q 492 273 491 254 q 494 317 494 292 l 494 1124 l 740 1124 l 740 354 q 724 195 740 260 q 671 80 708 129 q 568 8 633 31 q 408 -16 503 -16 z "},"Ú":{"ha":815,"x_min":75,"x_max":740,"o":"m 337 1223 l 422 1502 l 654 1502 l 479 1223 l 337 1223 m 408 -16 q 274 0 331 -16 q 179 45 216 16 q 118 121 141 75 q 85 223 94 168 q 75 354 75 279 l 75 1124 l 321 1124 l 321 317 q 322 272 321 291 q 329 232 323 254 q 342 196 334 210 q 368 173 351 182 q 408 164 385 164 q 447 173 431 164 q 472 196 463 182 q 486 232 481 210 q 492 273 491 254 q 494 317 494 292 l 494 1124 l 740 1124 l 740 354 q 724 195 740 260 q 671 80 708 129 q 568 8 633 31 q 408 -16 503 -16 z "},"Û":{"ha":815,"x_min":75,"x_max":740,"o":"m 182 1223 l 313 1488 l 499 1488 l 634 1223 l 468 1223 l 408 1387 l 347 1223 l 182 1223 m 408 -16 q 274 0 331 -16 q 179 45 216 16 q 118 121 141 75 q 85 223 94 168 q 75 354 75 279 l 75 1124 l 321 1124 l 321 317 q 322 272 321 291 q 329 232 323 254 q 342 196 334 210 q 368 173 351 182 q 408 164 385 164 q 447 173 431 164 q 472 196 463 182 q 486 232 481 210 q 492 273 491 254 q 494 317 494 292 l 494 1124 l 740 1124 l 740 354 q 724 195 740 260 q 671 80 708 129 q 568 8 633 31 q 408 -16 503 -16 z "},"Ü":{"ha":815,"x_min":75,"x_max":740,"o":"m 466 1223 l 466 1428 l 648 1428 l 648 1223 l 466 1223 m 167 1223 l 167 1428 l 349 1428 l 349 1223 l 167 1223 m 408 -16 q 274 0 331 -16 q 179 45 216 16 q 118 121 141 75 q 85 223 94 168 q 75 354 75 279 l 75 1124 l 321 1124 l 321 317 q 322 272 321 291 q 329 232 323 254 q 342 196 334 210 q 368 173 351 182 q 408 164 385 164 q 447 173 431 164 q 472 196 463 182 q 486 232 481 210 q 492 273 491 254 q 494 317 494 292 l 494 1124 l 740 1124 l 740 354 q 724 195 740 260 q 671 80 708 129 q 568 8 633 31 q 408 -16 503 -16 z "},"Ý":{"ha":686,"x_min":11,"x_max":675,"o":"m 272 1223 l 357 1502 l 589 1502 l 414 1223 l 272 1223 m 225 0 l 225 460 l 11 1124 l 245 1124 l 352 768 l 449 1124 l 675 1124 l 463 460 l 463 0 l 225 0 z "},"Þ":{"ha":778,"x_min":72,"x_max":758,"o":"m 320 501 l 397 501 q 500 535 470 501 q 530 650 530 568 q 502 761 530 726 q 404 795 473 795 l 320 795 l 320 501 m 72 0 l 72 1124 l 320 1124 l 320 975 l 428 975 q 678 901 597 975 q 758 661 758 827 q 744 524 758 581 q 704 428 730 466 q 635 367 678 389 q 540 334 593 344 q 414 324 487 325 l 320 323 l 320 0 l 72 0 z "},"ß":{"ha":755,"x_min":71,"x_max":724,"o":"m 361 -20 l 361 153 q 469 196 434 153 q 499 312 499 233 q 498 341 499 326 q 460 446 496 405 q 372 486 424 486 l 370 661 q 445 706 419 661 q 471 833 471 750 q 446 945 471 907 q 378 983 422 983 q 297 839 297 983 q 297 832 297 836 l 297 0 l 71 0 l 71 831 q 80 923 71 880 q 111 1007 89 967 q 165 1077 132 1048 q 247 1124 197 1106 q 358 1141 296 1141 q 589 1063 514 1141 q 664 838 664 985 q 500 596 664 663 q 665 490 605 566 q 724 314 724 414 q 631 59 724 139 q 361 -20 538 -20 z "},"à":{"ha":662,"x_min":50,"x_max":611,"o":"m 260 899 l 84 1179 l 317 1179 l 401 899 l 260 899 m 318 142 q 352 153 334 142 q 380 180 369 164 l 380 399 q 291 323 326 372 q 256 227 256 274 q 273 165 256 188 q 318 142 291 142 m 236 -14 q 100 46 151 -13 q 50 182 50 106 q 59 255 50 221 q 83 315 69 290 q 122 363 97 340 q 168 402 147 387 q 221 433 188 416 q 275 458 255 450 q 331 479 296 466 q 380 498 366 492 l 380 578 q 370 630 380 612 q 332 648 359 648 q 283 585 286 648 l 278 526 l 66 534 q 67 547 66 536 q 68 560 68 559 q 150 754 78 692 q 354 817 221 817 q 535 751 473 817 q 597 575 597 685 l 597 201 q 611 0 597 124 l 410 0 q 391 114 392 98 q 335 22 374 59 q 236 -14 296 -14 z "},"á":{"ha":662,"x_min":50,"x_max":611,"o":"m 260 899 l 345 1179 l 577 1179 l 401 899 l 260 899 m 318 142 q 352 153 334 142 q 380 180 369 164 l 380 399 q 291 323 326 372 q 256 227 256 274 q 273 165 256 188 q 318 142 291 142 m 236 -14 q 100 46 151 -13 q 50 182 50 106 q 59 255 50 221 q 83 315 69 290 q 122 363 97 340 q 168 402 147 387 q 221 433 188 416 q 275 458 255 450 q 331 479 296 466 q 380 498 366 492 l 380 578 q 370 630 380 612 q 332 648 359 648 q 283 585 286 648 l 278 526 l 66 534 q 67 547 66 536 q 68 560 68 559 q 150 754 78 692 q 354 817 221 817 q 535 751 473 817 q 597 575 597 685 l 597 201 q 611 0 597 124 l 410 0 q 391 114 392 98 q 335 22 374 59 q 236 -14 296 -14 z "},"â":{"ha":662,"x_min":50,"x_max":611,"o":"m 104 899 l 235 1164 l 422 1164 l 557 899 l 391 899 l 330 1063 l 270 899 l 104 899 m 318 142 q 352 153 334 142 q 380 180 369 164 l 380 399 q 291 323 326 372 q 256 227 256 274 q 273 165 256 188 q 318 142 291 142 m 236 -14 q 100 46 151 -13 q 50 182 50 106 q 59 255 50 221 q 83 315 69 290 q 122 363 97 340 q 168 402 147 387 q 221 433 188 416 q 275 458 255 450 q 331 479 296 466 q 380 498 366 492 l 380 578 q 370 630 380 612 q 332 648 359 648 q 283 585 286 648 l 278 526 l 66 534 q 67 547 66 536 q 68 560 68 559 q 150 754 78 692 q 354 817 221 817 q 535 751 473 817 q 597 575 597 685 l 597 201 q 611 0 597 124 l 410 0 q 391 114 392 98 q 335 22 374 59 q 236 -14 296 -14 z "},"ã":{"ha":662,"x_min":50,"x_max":611,"o":"m 458 899 q 451 899 454 899 q 389 913 425 899 q 313 947 349 930 q 257 965 276 965 q 218 908 218 965 l 110 908 q 110 917 110 912 q 118 1009 110 972 q 153 1075 127 1048 q 225 1105 180 1101 q 237 1105 231 1105 q 299 1093 267 1105 q 368 1062 337 1079 q 411 1044 399 1046 q 418 1044 415 1044 q 450 1096 450 1044 l 551 1096 q 548 1026 551 1057 q 535 966 545 996 q 507 919 526 936 q 458 899 487 901 m 318 142 q 352 153 334 142 q 380 180 369 164 l 380 399 q 291 323 326 372 q 256 227 256 274 q 273 165 256 188 q 318 142 291 142 m 236 -14 q 100 46 151 -13 q 50 182 50 106 q 59 255 50 221 q 83 315 69 290 q 122 363 97 340 q 168 402 147 387 q 221 433 188 416 q 275 458 255 450 q 331 479 296 466 q 380 498 366 492 l 380 578 q 370 630 380 612 q 332 648 359 648 q 283 585 286 648 l 278 526 l 66 534 q 67 547 66 536 q 68 560 68 559 q 150 754 78 692 q 354 817 221 817 q 535 751 473 817 q 597 575 597 685 l 597 201 q 611 0 597 124 l 410 0 q 391 114 392 98 q 335 22 374 59 q 236 -14 296 -14 z "},"ä":{"ha":662,"x_min":50,"x_max":611,"o":"m 389 899 l 389 1105 l 571 1105 l 571 899 l 389 899 m 90 899 l 90 1105 l 272 1105 l 272 899 l 90 899 m 318 142 q 352 153 334 142 q 380 180 369 164 l 380 399 q 291 323 326 372 q 256 227 256 274 q 273 165 256 188 q 318 142 291 142 m 236 -14 q 100 46 151 -13 q 50 182 50 106 q 59 255 50 221 q 83 315 69 290 q 122 363 97 340 q 168 402 147 387 q 221 433 188 416 q 275 458 255 450 q 331 479 296 466 q 380 498 366 492 l 380 578 q 370 630 380 612 q 332 648 359 648 q 283 585 286 648 l 278 526 l 66 534 q 67 547 66 536 q 68 560 68 559 q 150 754 78 692 q 354 817 221 817 q 535 751 473 817 q 597 575 597 685 l 597 201 q 611 0 597 124 l 410 0 q 391 114 392 98 q 335 22 374 59 q 236 -14 296 -14 z "},"å":{"ha":662,"x_min":50,"x_max":611,"o":"m 279 1001 q 288 990 279 1001 q 330 980 297 980 q 380 1001 362 980 q 399 1054 399 1022 q 380 1106 399 1085 q 330 1127 362 1127 q 279 1106 297 1127 q 260 1054 260 1085 q 279 1001 260 1022 m 330 899 q 214 940 260 899 q 168 1054 168 981 q 214 1167 168 1126 q 330 1207 260 1207 q 447 1166 400 1207 q 494 1054 494 1126 q 447 940 494 981 q 330 899 400 899 m 318 142 q 352 153 334 142 q 380 180 369 164 l 380 399 q 291 323 326 372 q 256 227 256 274 q 273 165 256 188 q 318 142 291 142 m 236 -14 q 100 46 151 -13 q 50 182 50 106 q 59 255 50 221 q 83 315 69 290 q 122 363 97 340 q 168 402 147 387 q 221 433 188 416 q 275 458 255 450 q 331 479 296 466 q 380 498 366 492 l 380 578 q 370 630 380 612 q 332 648 359 648 q 283 585 286 648 l 278 526 l 66 534 q 67 547 66 536 q 68 560 68 559 q 150 754 78 692 q 354 817 221 817 q 535 751 473 817 q 597 575 597 685 l 597 201 q 611 0 597 124 l 410 0 q 391 114 392 98 q 335 22 374 59 q 236 -14 296 -14 z "},"æ":{"ha":928,"x_min":41,"x_max":881,"o":"m 580 506 q 647 530 629 513 q 681 560 669 542 q 692 611 692 578 q 678 667 692 648 q 641 687 665 687 q 597 662 614 687 q 580 595 580 636 l 580 506 m 300 138 q 367 237 367 138 l 366 369 q 322 351 343 362 q 261 287 281 326 q 241 215 241 248 q 256 163 241 187 q 300 138 271 138 m 248 -16 q 101 40 160 -15 q 41 188 41 94 q 54 278 41 237 q 86 345 66 318 q 135 393 106 372 q 194 426 165 414 q 260 447 223 438 q 366 469 317 460 l 366 570 q 315 646 366 646 q 276 623 289 646 q 263 542 263 600 l 43 542 q 43 548 43 545 q 106 760 43 685 q 299 836 170 836 q 408 807 362 836 q 465 730 453 777 q 532 806 484 776 q 644 836 581 836 q 748 817 701 836 q 823 768 794 799 q 866 700 851 737 q 881 621 881 662 q 868 552 881 583 q 834 500 855 521 q 783 463 814 479 q 723 436 752 446 q 655 418 693 427 q 633 413 648 416 q 602 407 619 410 q 580 403 585 404 l 580 270 q 580 237 580 248 q 582 209 581 227 q 586 183 583 192 q 593 164 589 174 q 606 150 598 154 q 625 146 614 146 q 642 149 635 146 q 653 159 649 151 q 660 172 657 166 q 664 192 663 178 q 665 213 665 205 q 665 238 665 220 l 665 281 l 874 281 l 874 217 q 814 45 874 106 q 642 -16 755 -16 q 565 -2 603 -16 q 496 41 526 12 q 456 109 465 70 q 373 16 431 50 q 256 -16 318 -16 q 248 -16 252 -16 z "},"ç":{"ha":650,"x_min":55,"x_max":603,"o":"m 250 -369 l 250 -271 q 315 -281 278 -279 q 332 -282 323 -282 q 385 -275 359 -282 q 417 -241 417 -265 q 395 -196 417 -215 q 347 -170 373 -178 q 289 -161 320 -163 l 289 0 l 373 0 l 373 -92 q 508 -133 453 -95 q 564 -234 564 -172 q 535 -320 564 -285 q 459 -372 506 -357 q 363 -385 414 -386 q 357 -385 360 -385 q 250 -369 303 -385 m 332 -14 q 127 57 200 -14 q 55 257 55 129 l 55 547 q 127 746 55 675 q 332 817 200 817 q 533 756 463 817 q 603 575 603 695 l 603 490 l 385 490 l 385 581 q 372 644 385 627 q 333 661 359 661 q 294 640 307 661 q 282 568 282 619 l 282 235 q 295 163 282 182 q 333 143 307 143 q 372 161 359 143 q 385 221 385 179 l 385 327 l 603 327 l 603 230 q 532 48 603 111 q 332 -14 461 -14 z "},"è":{"ha":652,"x_min":55,"x_max":600,"o":"m 257 899 l 81 1179 l 314 1179 l 398 899 l 257 899 m 279 493 l 390 493 l 390 573 q 375 636 390 618 q 332 655 360 655 q 293 633 306 655 q 279 559 279 612 l 279 493 m 333 -14 q 127 57 200 -14 q 55 258 55 128 l 55 545 q 128 746 55 675 q 333 817 201 817 q 533 748 467 817 q 600 545 600 679 l 600 387 l 279 387 l 279 246 q 292 173 279 197 q 333 148 304 148 q 390 226 390 148 l 390 279 l 600 279 l 600 233 q 530 49 600 113 q 333 -14 460 -14 z "},"é":{"ha":652,"x_min":55,"x_max":600,"o":"m 257 899 l 342 1179 l 574 1179 l 399 899 l 257 899 m 279 493 l 390 493 l 390 573 q 375 636 390 618 q 332 655 360 655 q 293 633 306 655 q 279 559 279 612 l 279 493 m 333 -14 q 127 57 200 -14 q 55 258 55 128 l 55 545 q 128 746 55 675 q 333 817 201 817 q 533 748 467 817 q 600 545 600 679 l 600 387 l 279 387 l 279 246 q 292 173 279 197 q 333 148 304 148 q 390 226 390 148 l 390 279 l 600 279 l 600 233 q 530 49 600 113 q 333 -14 460 -14 z "},"ê":{"ha":652,"x_min":55,"x_max":600,"o":"m 102 899 l 233 1164 l 419 1164 l 554 899 l 388 899 l 328 1063 l 267 899 l 102 899 m 279 493 l 390 493 l 390 573 q 375 636 390 618 q 332 655 360 655 q 293 633 306 655 q 279 559 279 612 l 279 493 m 333 -14 q 127 57 200 -14 q 55 258 55 128 l 55 545 q 128 746 55 675 q 333 817 201 817 q 533 748 467 817 q 600 545 600 679 l 600 387 l 279 387 l 279 246 q 292 173 279 197 q 333 148 304 148 q 390 226 390 148 l 390 279 l 600 279 l 600 233 q 530 49 600 113 q 333 -14 460 -14 z "},"ë":{"ha":652,"x_min":55,"x_max":600,"o":"m 386 899 l 386 1105 l 568 1105 l 568 899 l 386 899 m 87 899 l 87 1105 l 269 1105 l 269 899 l 87 899 m 279 493 l 390 493 l 390 573 q 375 636 390 618 q 332 655 360 655 q 293 633 306 655 q 279 559 279 612 l 279 493 m 333 -14 q 127 57 200 -14 q 55 258 55 128 l 55 545 q 128 746 55 675 q 333 817 201 817 q 533 748 467 817 q 600 545 600 679 l 600 387 l 279 387 l 279 246 q 292 173 279 197 q 333 148 304 148 q 390 226 390 148 l 390 279 l 600 279 l 600 233 q 530 49 600 113 q 333 -14 460 -14 z "},"ì":{"ha":389,"x_min":-51,"x_max":309,"o":"m 125 899 l -51 1179 l 182 1179 l 266 899 l 125 899 m 82 0 l 82 803 l 309 803 l 309 0 l 82 0 z "},"í":{"ha":389,"x_min":82,"x_max":441,"o":"m 124 899 l 210 1179 l 441 1179 l 266 899 l 124 899 m 82 0 l 82 803 l 309 803 l 309 0 l 82 0 z "},"î":{"ha":389,"x_min":-31,"x_max":421,"o":"m -31 899 l 100 1164 l 286 1164 l 421 899 l 255 899 l 195 1063 l 134 899 l -31 899 m 82 0 l 82 803 l 309 803 l 309 0 l 82 0 z "},"ï":{"ha":389,"x_min":-45,"x_max":436,"o":"m 254 899 l 254 1105 l 436 1105 l 436 899 l 254 899 m -45 899 l -45 1105 l 137 1105 l 137 899 l -45 899 m 82 0 l 82 803 l 309 803 l 309 0 l 82 0 z "},"ð":{"ha":722,"x_min":74,"x_max":665,"o":"m 296 402 q 298 223 296 247 q 331 138 303 153 q 359 132 342 132 q 411 159 397 132 q 425 239 425 186 l 425 642 q 416 647 425 643 q 404 653 408 651 q 391 656 399 654 q 374 659 382 659 q 311 607 326 659 q 296 402 296 555 m 652 300 q 637 172 652 228 q 596 80 622 116 q 533 22 570 45 q 453 -11 495 -1 q 359 -20 410 -20 q 150 57 227 -20 q 74 294 74 134 l 74 524 q 144 729 74 650 q 318 807 214 807 q 425 781 376 807 q 414 874 424 833 q 391 932 404 915 l 269 869 l 243 928 l 355 986 q 186 1029 319 1029 l 196 1170 q 517 1076 429 1170 l 640 1142 l 665 1082 l 557 1026 q 623 864 594 967 q 652 616 652 761 l 652 300 z "},"ñ":{"ha":705,"x_min":71,"x_max":639,"o":"m 482 899 q 475 899 479 899 q 414 913 449 899 q 337 947 374 930 q 281 965 300 965 q 243 908 243 965 l 134 908 q 134 917 134 912 q 142 1009 134 972 q 178 1075 151 1048 q 250 1105 204 1101 q 261 1105 255 1105 q 323 1093 291 1105 q 392 1062 361 1079 q 435 1044 423 1046 q 443 1044 439 1044 q 475 1096 475 1044 l 575 1096 q 572 1026 575 1057 q 560 966 569 996 q 531 919 551 936 q 482 899 511 901 m 71 0 l 71 803 l 297 803 l 297 723 q 492 817 393 817 q 601 764 563 817 q 639 630 639 712 l 639 0 l 412 0 l 412 596 q 403 641 412 627 q 368 655 393 656 q 297 627 339 655 l 297 0 l 71 0 z "},"ò":{"ha":671,"x_min":55,"x_max":616,"o":"m 264 899 l 89 1179 l 321 1179 l 406 899 l 264 899 m 541 54 q 503 20 541 54 q 334 -14 466 -14 q 129 54 203 -14 q 55 250 55 121 l 55 553 q 129 749 55 682 q 334 817 203 817 q 541 749 466 817 q 616 553 616 681 l 616 250 q 541 54 616 121 m 334 138 q 379 162 367 138 q 392 234 392 186 l 392 568 q 379 641 392 617 q 334 665 367 665 q 291 641 303 665 q 278 568 278 616 l 278 234 q 291 162 278 187 q 334 138 303 138 z "},"ó":{"ha":671,"x_min":55,"x_max":616,"o":"m 264 899 l 350 1179 l 582 1179 l 406 899 l 264 899 m 541 54 q 503 20 541 54 q 334 -14 466 -14 q 129 54 203 -14 q 55 250 55 121 l 55 553 q 129 749 55 682 q 334 817 203 817 q 541 749 466 817 q 616 553 616 681 l 616 250 q 541 54 616 121 m 334 138 q 379 162 367 138 q 392 234 392 186 l 392 568 q 379 641 392 617 q 334 665 367 665 q 291 641 303 665 q 278 568 278 616 l 278 234 q 291 162 278 187 q 334 138 303 138 z "},"ô":{"ha":671,"x_min":55,"x_max":616,"o":"m 109 899 l 240 1164 l 427 1164 l 562 899 l 395 899 l 335 1063 l 275 899 l 109 899 m 541 54 q 503 20 541 54 q 334 -14 466 -14 q 129 54 203 -14 q 55 250 55 121 l 55 553 q 129 749 55 682 q 334 817 203 817 q 541 749 466 817 q 616 553 616 681 l 616 250 q 541 54 616 121 m 334 138 q 379 162 367 138 q 392 234 392 186 l 392 568 q 379 641 392 617 q 334 665 367 665 q 291 641 303 665 q 278 568 278 616 l 278 234 q 291 162 278 187 q 334 138 303 138 z "},"õ":{"ha":671,"x_min":55,"x_max":616,"o":"m 463 899 q 456 899 459 899 q 394 913 429 899 q 317 947 354 930 q 262 965 281 965 q 223 908 223 965 l 115 908 q 115 917 115 912 q 123 1009 115 972 q 158 1075 132 1048 q 230 1105 184 1101 q 241 1105 235 1105 q 304 1093 271 1105 q 373 1062 342 1079 q 416 1044 404 1046 q 423 1044 420 1044 q 455 1096 455 1044 l 555 1096 q 552 1026 555 1057 q 540 966 549 996 q 511 919 531 936 q 463 899 492 901 m 541 54 q 503 20 541 54 q 334 -14 466 -14 q 129 54 203 -14 q 55 250 55 121 l 55 553 q 129 749 55 682 q 334 817 203 817 q 541 749 466 817 q 616 553 616 681 l 616 250 q 541 54 616 121 m 334 138 q 379 162 367 138 q 392 234 392 186 l 392 568 q 379 641 392 617 q 334 665 367 665 q 291 641 303 665 q 278 568 278 616 l 278 234 q 291 162 278 187 q 334 138 303 138 z "},"ö":{"ha":671,"x_min":55,"x_max":616,"o":"m 394 899 l 394 1105 l 576 1105 l 576 899 l 394 899 m 95 899 l 95 1105 l 277 1105 l 277 899 l 95 899 m 541 54 q 503 20 541 54 q 334 -14 466 -14 q 129 54 203 -14 q 55 250 55 121 l 55 553 q 129 749 55 682 q 334 817 203 817 q 541 749 466 817 q 616 553 616 681 l 616 250 q 541 54 616 121 m 334 138 q 379 162 367 138 q 392 234 392 186 l 392 568 q 379 641 392 617 q 334 665 367 665 q 291 641 303 665 q 278 568 278 616 l 278 234 q 291 162 278 187 q 334 138 303 138 z "},"÷":{"ha":630,"x_min":47,"x_max":583,"o":"m 252 736 l 252 909 l 392 909 l 392 736 l 252 736 m 47 520 l 47 642 l 583 642 l 583 520 l 47 520 m 252 243 l 252 416 l 392 416 l 392 243 l 252 243 z "},"ø":{"ha":663,"x_min":55,"x_max":616,"o":"m 278 357 l 385 626 q 334 665 374 665 q 291 641 303 665 q 278 568 278 616 l 278 357 m 334 138 q 379 162 367 138 q 392 234 392 186 l 392 489 l 279 208 q 334 138 286 138 m 145 -125 l 94 -104 l 150 37 q 55 250 55 104 l 55 553 q 129 749 55 682 q 334 817 203 817 q 454 799 401 817 l 509 936 l 563 914 l 507 774 q 616 553 616 707 l 616 250 q 541 54 616 121 q 334 -14 466 -14 q 199 9 257 -14 l 145 -125 z "},"ù":{"ha":699,"x_min":64,"x_max":627,"o":"m 275 899 l 100 1179 l 332 1179 l 416 899 l 275 899 m 211 -14 q 102 39 140 -14 q 64 173 64 91 l 64 803 l 290 803 l 290 200 q 301 155 290 170 q 336 140 311 140 q 401 165 363 141 l 401 803 l 627 803 l 627 0 l 401 0 l 401 74 q 211 -14 308 -14 z "},"ú":{"ha":699,"x_min":64,"x_max":627,"o":"m 275 899 l 360 1179 l 592 1179 l 416 899 l 275 899 m 211 -14 q 102 39 140 -14 q 64 173 64 91 l 64 803 l 290 803 l 290 200 q 301 155 290 170 q 336 140 311 140 q 401 165 363 141 l 401 803 l 627 803 l 627 0 l 401 0 l 401 74 q 211 -14 308 -14 z "},"û":{"ha":699,"x_min":64,"x_max":627,"o":"m 119 899 l 250 1164 l 437 1164 l 572 899 l 406 899 l 345 1063 l 285 899 l 119 899 m 211 -14 q 102 39 140 -14 q 64 173 64 91 l 64 803 l 290 803 l 290 200 q 301 155 290 170 q 336 140 311 140 q 401 165 363 141 l 401 803 l 627 803 l 627 0 l 401 0 l 401 74 q 211 -14 308 -14 z "},"ü":{"ha":699,"x_min":64,"x_max":627,"o":"m 404 899 l 404 1105 l 586 1105 l 586 899 l 404 899 m 104 899 l 104 1105 l 287 1105 l 287 899 l 104 899 m 211 -14 q 102 39 140 -14 q 64 173 64 91 l 64 803 l 290 803 l 290 200 q 301 155 290 170 q 336 140 311 140 q 401 165 363 141 l 401 803 l 627 803 l 627 0 l 401 0 l 401 74 q 211 -14 308 -14 z "},"ý":{"ha":621,"x_min":3,"x_max":606,"o":"m 234 899 l 319 1179 l 551 1179 l 376 899 l 234 899 m 92 -233 l 92 -76 q 195 -61 167 -76 q 221 -7 221 -47 q 220 2 221 -3 q 191 128 216 37 q 97 466 183 160 q 3 803 11 771 l 217 803 l 317 340 l 393 803 l 606 803 l 417 -43 q 130 -233 375 -233 q 123 -233 127 -233 l 92 -233 z "},"þ":{"ha":686,"x_min":64,"x_max":635,"o":"m 351 134 q 353 134 352 134 q 395 158 381 134 q 408 224 408 183 l 408 596 q 393 657 408 633 q 354 679 380 679 q 349 679 352 679 q 291 652 323 677 l 291 153 q 351 134 323 134 m 64 -264 l 64 1124 l 291 1124 l 291 744 q 456 817 372 817 q 463 817 460 817 q 592 747 550 814 q 635 579 635 681 l 635 237 q 589 54 635 122 q 458 -14 543 -14 q 291 60 376 -14 l 291 -264 l 64 -264 z "},"ÿ":{"ha":621,"x_min":3,"x_max":606,"o":"m 363 899 l 363 1105 l 545 1105 l 545 899 l 363 899 m 64 899 l 64 1105 l 246 1105 l 246 899 l 64 899 m 92 -233 l 92 -76 q 195 -61 167 -76 q 221 -7 221 -47 q 220 2 221 -3 q 191 128 216 37 q 97 466 183 160 q 3 803 11 771 l 217 803 l 317 340 l 393 803 l 606 803 l 417 -43 q 130 -233 375 -233 q 123 -233 127 -233 l 92 -233 z "},"Ā":{"ha":764,"x_min":29,"x_max":734,"o":"m 192 1223 l 192 1329 l 572 1329 l 572 1223 l 192 1223 m 324 387 l 444 387 l 384 823 l 324 387 m 29 0 l 242 1124 l 523 1124 l 734 0 l 505 0 l 467 239 l 302 239 l 264 0 l 29 0 z "},"ā":{"ha":662,"x_min":50,"x_max":611,"o":"m 140 899 l 140 1006 l 520 1006 l 520 899 l 140 899 m 318 142 q 352 153 334 142 q 380 180 369 164 l 380 399 q 291 323 326 372 q 256 227 256 274 q 273 165 256 188 q 318 142 291 142 m 236 -14 q 100 46 151 -13 q 50 182 50 106 q 59 255 50 221 q 83 315 69 290 q 122 363 97 340 q 168 402 147 387 q 221 433 188 416 q 275 458 255 450 q 331 479 296 466 q 380 498 366 492 l 380 578 q 370 630 380 612 q 332 648 359 648 q 283 585 286 648 l 278 526 l 66 534 q 67 547 66 536 q 68 560 68 559 q 150 754 78 692 q 354 817 221 817 q 535 751 473 817 q 597 575 597 685 l 597 201 q 611 0 597 124 l 410 0 q 391 114 392 98 q 335 22 374 59 q 236 -14 296 -14 z "},"Ă":{"ha":764,"x_min":29,"x_max":734,"o":"m 527 1269 q 501 1246 527 1269 q 382 1223 475 1223 q 236 1269 288 1223 q 184 1398 184 1315 l 284 1398 q 307 1335 284 1355 q 382 1316 330 1316 q 456 1336 433 1316 q 480 1398 480 1356 l 579 1398 q 527 1269 579 1315 m 324 387 l 444 387 l 384 823 l 324 387 m 29 0 l 242 1124 l 523 1124 l 734 0 l 505 0 l 467 239 l 302 239 l 264 0 l 29 0 z "},"ă":{"ha":662,"x_min":50,"x_max":611,"o":"m 476 945 q 450 922 476 945 q 330 899 424 899 q 185 945 237 899 q 133 1074 133 991 l 233 1074 q 256 1012 233 1031 q 330 992 279 992 q 405 1012 381 992 q 429 1074 429 1032 l 528 1074 q 476 945 528 991 m 318 142 q 352 153 334 142 q 380 180 369 164 l 380 399 q 291 323 326 372 q 256 227 256 274 q 273 165 256 188 q 318 142 291 142 m 236 -14 q 100 46 151 -13 q 50 182 50 106 q 59 255 50 221 q 83 315 69 290 q 122 363 97 340 q 168 402 147 387 q 221 433 188 416 q 275 458 255 450 q 331 479 296 466 q 380 498 366 492 l 380 578 q 370 630 380 612 q 332 648 359 648 q 283 585 286 648 l 278 526 l 66 534 q 67 547 66 536 q 68 560 68 559 q 150 754 78 692 q 354 817 221 817 q 535 751 473 817 q 597 575 597 685 l 597 201 q 611 0 597 124 l 410 0 q 391 114 392 98 q 335 22 374 59 q 236 -14 296 -14 z "},"Ą":{"ha":764,"x_min":29,"x_max":738,"o":"m 716 -349 q 692 -349 704 -349 q 667 -349 680 -349 q 659 -349 663 -349 q 616 -346 637 -349 q 565 -337 590 -342 q 519 -321 541 -332 q 482 -294 498 -309 q 457 -255 466 -279 q 448 -201 448 -231 q 479 -85 448 -145 q 558 12 511 -26 l 661 12 q 641 -43 656 -7 q 616 -110 625 -79 q 607 -168 607 -140 q 610 -189 607 -180 q 616 -205 612 -199 q 628 -218 621 -212 q 641 -227 635 -223 q 658 -232 647 -230 q 674 -236 669 -235 q 692 -238 680 -237 q 709 -239 705 -239 q 725 -239 713 -239 q 738 -239 736 -239 l 716 -349 m 324 387 l 444 387 l 384 823 l 324 387 m 29 0 l 242 1124 l 523 1124 l 734 0 l 505 0 l 467 239 l 302 239 l 264 0 l 29 0 z "},"ą":{"ha":662,"x_min":50,"x_max":623,"o":"m 602 -349 q 577 -349 589 -349 q 553 -349 565 -349 q 544 -349 549 -349 q 501 -346 523 -349 q 451 -337 475 -342 q 405 -321 426 -332 q 367 -294 383 -309 q 342 -255 351 -279 q 333 -201 333 -231 q 365 -85 333 -145 q 444 12 396 -26 l 547 12 q 526 -43 541 -7 q 502 -110 511 -79 q 492 -168 492 -140 q 495 -189 492 -180 q 502 -205 498 -199 q 513 -218 506 -212 q 527 -227 521 -223 q 543 -232 532 -230 q 560 -236 554 -235 q 578 -238 566 -237 q 594 -239 590 -239 q 610 -239 598 -239 q 623 -239 622 -239 l 602 -349 m 318 142 q 352 153 334 142 q 380 180 369 164 l 380 399 q 291 323 326 372 q 256 227 256 274 q 273 165 256 188 q 318 142 291 142 m 236 -14 q 100 46 151 -13 q 50 182 50 106 q 59 255 50 221 q 83 315 69 290 q 122 363 97 340 q 168 402 147 387 q 221 433 188 416 q 275 458 255 450 q 331 479 296 466 q 380 498 366 492 l 380 578 q 370 630 380 612 q 332 648 359 648 q 283 585 286 648 l 278 526 l 66 534 q 67 547 66 536 q 68 560 68 559 q 150 754 78 692 q 354 817 221 817 q 535 751 473 817 q 597 575 597 685 l 597 201 q 611 0 597 124 l 410 0 q 391 114 392 98 q 335 22 374 59 q 236 -14 296 -14 z "},"Ć":{"ha":781,"x_min":67,"x_max":728,"o":"m 327 1223 l 412 1502 l 644 1502 l 469 1223 l 327 1223 m 405 -16 q 244 11 311 -16 q 139 87 178 37 q 84 205 101 138 q 67 361 67 271 l 67 762 q 84 921 67 853 q 139 1039 101 988 q 244 1115 178 1089 q 405 1140 310 1140 q 560 1117 496 1140 q 660 1049 624 1094 q 712 947 696 1004 q 728 815 728 890 l 728 716 l 486 716 l 486 829 q 485 869 486 856 q 480 904 484 883 q 468 937 476 926 q 444 956 460 947 q 405 964 428 964 q 366 956 382 964 q 341 936 349 947 q 327 903 332 924 q 321 865 322 882 q 320 823 320 848 l 320 299 q 338 196 320 231 q 405 160 355 160 q 443 169 427 160 q 467 189 459 177 q 480 221 475 200 q 485 258 484 242 q 486 299 486 273 l 486 417 l 728 417 l 728 320 q 719 211 728 260 q 687 119 709 162 q 628 47 664 76 q 535 1 591 18 q 405 -16 479 -16 z "},"ć":{"ha":650,"x_min":55,"x_max":603,"o":"m 258 899 l 344 1179 l 576 1179 l 400 899 l 258 899 m 332 -14 q 127 57 200 -14 q 55 257 55 129 l 55 547 q 127 746 55 675 q 332 817 200 817 q 533 756 463 817 q 603 575 603 695 l 603 490 l 385 490 l 385 581 q 372 644 385 627 q 333 661 359 661 q 294 640 307 661 q 282 568 282 619 l 282 235 q 295 163 282 182 q 333 143 307 143 q 372 161 359 143 q 385 221 385 179 l 385 327 l 603 327 l 603 230 q 532 48 603 111 q 332 -14 461 -14 z "},"Ĉ":{"ha":781,"x_min":67,"x_max":728,"o":"m 172 1223 l 302 1488 l 489 1488 l 624 1223 l 458 1223 l 397 1387 l 337 1223 l 172 1223 m 405 -16 q 244 11 311 -16 q 139 87 178 37 q 84 205 101 138 q 67 361 67 271 l 67 762 q 84 921 67 853 q 139 1039 101 988 q 244 1115 178 1089 q 405 1140 310 1140 q 560 1117 496 1140 q 660 1049 624 1094 q 712 947 696 1004 q 728 815 728 890 l 728 716 l 486 716 l 486 829 q 485 869 486 856 q 480 904 484 883 q 468 937 476 926 q 444 956 460 947 q 405 964 428 964 q 366 956 382 964 q 341 936 349 947 q 327 903 332 924 q 321 865 322 882 q 320 823 320 848 l 320 299 q 338 196 320 231 q 405 160 355 160 q 443 169 427 160 q 467 189 459 177 q 480 221 475 200 q 485 258 484 242 q 486 299 486 273 l 486 417 l 728 417 l 728 320 q 719 211 728 260 q 687 119 709 162 q 628 47 664 76 q 535 1 591 18 q 405 -16 479 -16 z "},"ĉ":{"ha":650,"x_min":55,"x_max":603,"o":"m 103 899 l 234 1164 l 420 1164 l 555 899 l 389 899 l 329 1063 l 269 899 l 103 899 m 332 -14 q 127 57 200 -14 q 55 257 55 129 l 55 547 q 127 746 55 675 q 332 817 200 817 q 533 756 463 817 q 603 575 603 695 l 603 490 l 385 490 l 385 581 q 372 644 385 627 q 333 661 359 661 q 294 640 307 661 q 282 568 282 619 l 282 235 q 295 163 282 182 q 333 143 307 143 q 372 161 359 143 q 385 221 385 179 l 385 327 l 603 327 l 603 230 q 532 48 603 111 q 332 -14 461 -14 z "},"Ċ":{"ha":781,"x_min":67,"x_max":728,"o":"m 290 1223 l 290 1436 l 505 1436 l 505 1223 l 290 1223 m 405 -16 q 244 11 311 -16 q 139 87 178 37 q 84 205 101 138 q 67 361 67 271 l 67 762 q 84 921 67 853 q 139 1039 101 988 q 244 1115 178 1089 q 405 1140 310 1140 q 560 1117 496 1140 q 660 1049 624 1094 q 712 947 696 1004 q 728 815 728 890 l 728 716 l 486 716 l 486 829 q 485 869 486 856 q 480 904 484 883 q 468 937 476 926 q 444 956 460 947 q 405 964 428 964 q 366 956 382 964 q 341 936 349 947 q 327 903 332 924 q 321 865 322 882 q 320 823 320 848 l 320 299 q 338 196 320 231 q 405 160 355 160 q 443 169 427 160 q 467 189 459 177 q 480 221 475 200 q 485 258 484 242 q 486 299 486 273 l 486 417 l 728 417 l 728 320 q 719 211 728 260 q 687 119 709 162 q 628 47 664 76 q 535 1 591 18 q 405 -16 479 -16 z "},"ċ":{"ha":650,"x_min":55,"x_max":603,"o":"m 221 899 l 221 1112 l 436 1112 l 436 899 l 221 899 m 332 -14 q 127 57 200 -14 q 55 257 55 129 l 55 547 q 127 746 55 675 q 332 817 200 817 q 533 756 463 817 q 603 575 603 695 l 603 490 l 385 490 l 385 581 q 372 644 385 627 q 333 661 359 661 q 294 640 307 661 q 282 568 282 619 l 282 235 q 295 163 282 182 q 333 143 307 143 q 372 161 359 143 q 385 221 385 179 l 385 327 l 603 327 l 603 230 q 532 48 603 111 q 332 -14 461 -14 z "},"Č":{"ha":781,"x_min":67,"x_max":728,"o":"m 288 1223 l 168 1480 l 328 1480 l 397 1329 l 468 1480 l 629 1480 l 505 1223 l 288 1223 m 405 -16 q 244 11 311 -16 q 139 87 178 37 q 84 205 101 138 q 67 361 67 271 l 67 762 q 84 921 67 853 q 139 1039 101 988 q 244 1115 178 1089 q 405 1140 310 1140 q 560 1117 496 1140 q 660 1049 624 1094 q 712 947 696 1004 q 728 815 728 890 l 728 716 l 486 716 l 486 829 q 485 869 486 856 q 480 904 484 883 q 468 937 476 926 q 444 956 460 947 q 405 964 428 964 q 366 956 382 964 q 341 936 349 947 q 327 903 332 924 q 321 865 322 882 q 320 823 320 848 l 320 299 q 338 196 320 231 q 405 160 355 160 q 443 169 427 160 q 467 189 459 177 q 480 221 475 200 q 485 258 484 242 q 486 299 486 273 l 486 417 l 728 417 l 728 320 q 719 211 728 260 q 687 119 709 162 q 628 47 664 76 q 535 1 591 18 q 405 -16 479 -16 z "},"č":{"ha":650,"x_min":55,"x_max":603,"o":"m 218 899 l 98 1157 l 258 1157 l 328 1006 l 399 1157 l 559 1157 l 436 899 l 218 899 m 332 -14 q 127 57 200 -14 q 55 257 55 129 l 55 547 q 127 746 55 675 q 332 817 200 817 q 533 756 463 817 q 603 575 603 695 l 603 490 l 385 490 l 385 581 q 372 644 385 627 q 333 661 359 661 q 294 640 307 661 q 282 568 282 619 l 282 235 q 295 163 282 182 q 333 143 307 143 q 372 161 359 143 q 385 221 385 179 l 385 327 l 603 327 l 603 230 q 532 48 603 111 q 332 -14 461 -14 z "},"Ď":{"ha":811,"x_min":83,"x_max":744,"o":"m 302 1223 l 182 1480 l 342 1480 l 412 1329 l 483 1480 l 644 1480 l 520 1223 l 302 1223 m 83 0 l 83 1124 l 366 1124 q 549 1105 476 1124 q 665 1040 622 1085 q 726 931 709 996 q 744 768 744 866 l 744 363 q 726 198 744 264 q 665 86 708 132 q 550 20 622 41 q 369 0 477 0 l 83 0 m 331 172 l 369 172 q 417 176 397 172 q 451 189 437 180 q 472 209 464 199 q 483 240 479 220 q 488 278 487 260 q 489 326 489 296 l 489 810 q 486 876 489 852 q 470 918 482 899 q 434 944 458 937 q 368 951 410 951 l 331 951 l 331 172 z "},"ď":{"ha":852,"x_min":59,"x_max":939,"o":"m 343 132 q 402 151 367 132 l 402 656 q 345 674 372 674 q 300 650 315 674 q 286 587 286 626 l 286 221 q 300 157 286 182 q 343 132 313 132 m 245 -14 q 107 49 155 -14 q 59 236 59 112 l 59 562 q 107 747 59 677 q 245 817 155 817 q 402 753 329 817 l 402 1124 l 629 1124 l 629 0 l 402 0 l 402 61 q 245 -14 326 -14 z "},"Đ":{"ha":817,"x_min":18,"x_max":750,"o":"m 89 0 l 89 519 l 18 519 l 18 633 l 89 633 l 89 1124 l 372 1124 q 555 1105 483 1124 q 671 1040 628 1085 q 732 931 715 996 q 750 768 750 866 l 750 363 q 732 198 750 264 q 672 86 715 132 q 556 20 629 41 q 376 0 484 0 l 89 0 m 332 172 l 380 172 q 436 179 414 172 q 471 195 458 185 q 491 227 484 205 q 499 269 497 249 q 500 326 500 290 l 500 810 q 497 876 500 852 q 481 918 494 899 q 445 944 469 937 q 379 951 420 951 l 332 951 l 332 633 l 399 633 l 399 519 l 332 519 l 332 172 z "},"đ":{"ha":694,"x_min":55,"x_max":690,"o":"m 339 132 q 395 151 361 132 l 395 657 q 340 674 365 674 q 296 650 311 674 q 282 587 282 626 l 282 221 q 296 157 282 182 q 339 132 309 132 m 241 -14 q 103 49 151 -14 q 55 236 55 112 l 55 562 q 103 747 55 677 q 241 817 151 817 q 395 753 323 817 l 395 945 l 210 945 l 210 1037 l 395 1037 l 395 1124 l 622 1124 l 622 1037 l 690 1037 l 690 945 l 622 945 l 622 0 l 395 0 l 395 61 q 241 -14 320 -14 z "},"Ē":{"ha":621,"x_min":83,"x_max":591,"o":"m 147 1223 l 147 1329 l 527 1329 l 527 1223 l 147 1223 m 83 0 l 83 1124 l 588 1124 l 588 955 l 331 955 l 331 677 l 527 677 l 527 504 l 331 504 l 331 168 l 591 168 l 591 0 l 83 0 z "},"ē":{"ha":652,"x_min":55,"x_max":600,"o":"m 138 899 l 138 1006 l 517 1006 l 517 899 l 138 899 m 279 493 l 390 493 l 390 573 q 375 636 390 618 q 332 655 360 655 q 293 633 306 655 q 279 559 279 612 l 279 493 m 333 -14 q 127 57 200 -14 q 55 258 55 128 l 55 545 q 128 746 55 675 q 333 817 201 817 q 533 748 467 817 q 600 545 600 679 l 600 387 l 279 387 l 279 246 q 292 173 279 197 q 333 148 304 148 q 390 226 390 148 l 390 279 l 600 279 l 600 233 q 530 49 600 113 q 333 -14 460 -14 z "},"Ĕ":{"ha":621,"x_min":83,"x_max":591,"o":"m 483 1269 q 457 1246 483 1269 q 337 1223 431 1223 q 192 1269 243 1223 q 140 1398 140 1315 l 239 1398 q 262 1335 239 1355 q 337 1316 286 1316 q 412 1336 388 1316 q 435 1398 435 1356 l 534 1398 q 483 1269 534 1315 m 83 0 l 83 1124 l 588 1124 l 588 955 l 331 955 l 331 677 l 527 677 l 527 504 l 331 504 l 331 168 l 591 168 l 591 0 l 83 0 z "},"ĕ":{"ha":652,"x_min":55,"x_max":600,"o":"m 473 945 q 447 922 473 945 q 328 899 421 899 q 182 945 234 899 q 130 1074 130 991 l 230 1074 q 253 1012 230 1031 q 328 992 276 992 q 402 1012 378 992 q 426 1074 426 1032 l 525 1074 q 473 945 525 991 m 279 493 l 390 493 l 390 573 q 375 636 390 618 q 332 655 360 655 q 293 633 306 655 q 279 559 279 612 l 279 493 m 333 -14 q 127 57 200 -14 q 55 258 55 128 l 55 545 q 128 746 55 675 q 333 817 201 817 q 533 748 467 817 q 600 545 600 679 l 600 387 l 279 387 l 279 246 q 292 173 279 197 q 333 148 304 148 q 390 226 390 148 l 390 279 l 600 279 l 600 233 q 530 49 600 113 q 333 -14 460 -14 z "},"Ė":{"ha":621,"x_min":83,"x_max":591,"o":"m 229 1223 l 229 1436 l 444 1436 l 444 1223 l 229 1223 m 83 0 l 83 1124 l 588 1124 l 588 955 l 331 955 l 331 677 l 527 677 l 527 504 l 331 504 l 331 168 l 591 168 l 591 0 l 83 0 z "},"ė":{"ha":652,"x_min":55,"x_max":600,"o":"m 220 899 l 220 1112 l 435 1112 l 435 899 l 220 899 m 279 493 l 390 493 l 390 573 q 375 636 390 618 q 332 655 360 655 q 293 633 306 655 q 279 559 279 612 l 279 493 m 333 -14 q 127 57 200 -14 q 55 258 55 128 l 55 545 q 128 746 55 675 q 333 817 201 817 q 533 748 467 817 q 600 545 600 679 l 600 387 l 279 387 l 279 246 q 292 173 279 197 q 333 148 304 148 q 390 226 390 148 l 390 279 l 600 279 l 600 233 q 530 49 600 113 q 333 -14 460 -14 z "},"Ę":{"ha":621,"x_min":83,"x_max":591,"o":"m 506 -349 q 481 -349 494 -349 q 457 -349 469 -349 q 448 -349 453 -349 q 406 -346 427 -349 q 355 -337 380 -342 q 309 -321 330 -332 q 272 -294 288 -309 q 247 -255 256 -279 q 237 -201 237 -231 q 269 -85 237 -145 q 348 12 300 -26 l 451 12 q 430 -43 446 -7 q 406 -110 415 -79 q 397 -168 397 -140 q 399 -189 397 -180 q 406 -205 402 -199 q 418 -218 410 -212 q 431 -227 425 -223 q 448 -232 437 -230 q 464 -236 458 -235 q 482 -238 470 -237 q 498 -239 494 -239 q 514 -239 503 -239 q 528 -239 526 -239 l 506 -349 m 83 0 l 83 1124 l 588 1124 l 588 955 l 331 955 l 331 677 l 527 677 l 527 504 l 331 504 l 331 168 l 591 168 l 591 0 l 83 0 z "},"ę":{"ha":652,"x_min":55,"x_max":600,"o":"m 479 -349 q 454 -349 467 -349 q 430 -349 442 -349 q 421 -349 426 -349 q 378 -346 400 -349 q 328 -337 353 -342 q 282 -321 303 -332 q 244 -294 260 -309 q 219 -255 229 -279 q 210 -201 210 -231 q 242 -85 210 -145 q 321 12 273 -26 l 424 12 q 403 -43 418 -7 q 379 -110 388 -79 q 370 -168 370 -140 q 372 -189 370 -180 q 379 -205 375 -199 q 391 -218 383 -212 q 404 -227 398 -223 q 420 -232 410 -230 q 437 -236 431 -235 q 455 -238 443 -237 q 471 -239 467 -239 q 487 -239 475 -239 q 500 -239 499 -239 l 479 -349 m 279 493 l 390 493 l 390 573 q 375 636 390 618 q 332 655 360 655 q 293 633 306 655 q 279 559 279 612 l 279 493 m 333 -14 q 127 57 200 -14 q 55 258 55 128 l 55 545 q 128 746 55 675 q 333 817 201 817 q 533 748 467 817 q 600 545 600 679 l 600 387 l 279 387 l 279 246 q 292 173 279 197 q 333 148 304 148 q 390 226 390 148 l 390 279 l 600 279 l 600 233 q 530 49 600 113 q 333 -14 460 -14 z "},"Ě":{"ha":621,"x_min":83,"x_max":591,"o":"m 227 1223 l 106 1480 l 267 1480 l 336 1329 l 407 1480 l 568 1480 l 444 1223 l 227 1223 m 83 0 l 83 1124 l 588 1124 l 588 955 l 331 955 l 331 677 l 527 677 l 527 504 l 331 504 l 331 168 l 591 168 l 591 0 l 83 0 z "},"ě":{"ha":652,"x_min":55,"x_max":600,"o":"m 217 899 l 97 1157 l 257 1157 l 326 1006 l 397 1157 l 558 1157 l 435 899 l 217 899 m 279 493 l 390 493 l 390 573 q 375 636 390 618 q 332 655 360 655 q 293 633 306 655 q 279 559 279 612 l 279 493 m 333 -14 q 127 57 200 -14 q 55 258 55 128 l 55 545 q 128 746 55 675 q 333 817 201 817 q 533 748 467 817 q 600 545 600 679 l 600 387 l 279 387 l 279 246 q 292 173 279 197 q 333 148 304 148 q 390 226 390 148 l 390 279 l 600 279 l 600 233 q 530 49 600 113 q 333 -14 460 -14 z "},"Ĝ":{"ha":807,"x_min":67,"x_max":736,"o":"m 176 1223 l 307 1488 l 493 1488 l 628 1223 l 462 1223 l 401 1387 l 341 1223 l 176 1223 m 376 -16 q 230 11 291 -16 q 134 92 170 39 q 83 214 99 144 q 67 374 67 283 l 67 747 q 78 881 67 822 q 112 989 88 940 q 175 1072 136 1039 q 271 1122 214 1104 q 405 1140 329 1140 q 534 1124 478 1140 q 628 1081 591 1109 q 690 1011 666 1053 q 724 921 713 970 q 734 810 734 871 l 734 739 l 491 739 l 491 829 q 490 871 491 855 q 485 907 489 888 q 472 938 480 927 q 447 957 463 949 q 408 964 431 964 q 368 956 385 964 q 342 934 351 947 q 329 901 334 922 q 322 862 323 880 q 321 820 321 845 l 321 305 q 341 199 321 238 q 414 160 361 160 q 512 310 512 160 l 512 436 l 410 436 l 410 585 l 736 585 l 736 0 l 572 0 l 557 94 q 376 -16 508 -16 z "},"ĝ":{"ha":693,"x_min":35,"x_max":712,"o":"m 147 934 l 278 1199 l 465 1199 l 600 934 l 433 934 l 373 1098 l 313 934 l 147 934 m 343 384 q 393 416 382 384 q 405 532 405 448 q 394 650 405 619 q 342 681 384 681 q 318 677 328 681 q 301 663 308 673 q 291 643 294 653 q 285 613 287 633 q 283 577 283 593 q 283 532 283 562 q 285 468 283 492 q 293 423 287 444 q 311 393 298 402 q 343 384 323 384 m 372 -99 q 454 -87 428 -99 q 482 -49 479 -76 q 483 -35 483 -42 q 468 3 483 -9 q 399 24 449 19 l 277 39 q 245 -41 245 -8 q 274 -85 245 -71 q 372 -99 302 -99 m 373 -241 q 314 -240 340 -241 q 251 -235 287 -239 q 186 -226 214 -232 q 128 -208 157 -220 q 79 -181 98 -197 q 47 -141 60 -165 q 35 -88 35 -117 q 149 71 35 -8 q 76 111 99 90 q 49 161 53 133 q 47 183 47 172 q 66 242 47 216 q 146 321 91 277 q 59 521 59 385 q 132 744 59 671 q 338 817 205 817 q 522 747 467 817 q 630 836 572 806 l 660 851 l 712 741 q 648 715 692 734 q 578 680 604 695 q 618 522 618 618 q 552 320 618 393 q 354 248 487 248 q 285 255 322 248 q 226 272 248 262 q 201 222 201 240 q 202 216 201 219 q 276 186 205 196 q 362 174 295 182 q 450 163 429 165 q 613 101 566 147 q 661 -31 661 56 q 646 -116 661 -79 q 600 -182 632 -153 q 510 -226 567 -211 q 373 -241 453 -241 z "},"Ğ":{"ha":807,"x_min":67,"x_max":736,"o":"m 548 1269 q 522 1246 548 1269 q 402 1223 496 1223 q 257 1269 309 1223 q 205 1398 205 1315 l 304 1398 q 328 1335 304 1355 q 402 1316 351 1316 q 477 1336 453 1316 q 500 1398 500 1356 l 600 1398 q 548 1269 600 1315 m 376 -16 q 230 11 291 -16 q 134 92 170 39 q 83 214 99 144 q 67 374 67 283 l 67 747 q 78 881 67 822 q 112 989 88 940 q 175 1072 136 1039 q 271 1122 214 1104 q 405 1140 329 1140 q 534 1124 478 1140 q 628 1081 591 1109 q 690 1011 666 1053 q 724 921 713 970 q 734 810 734 871 l 734 739 l 491 739 l 491 829 q 490 871 491 855 q 485 907 489 888 q 472 938 480 927 q 447 957 463 949 q 408 964 431 964 q 368 956 385 964 q 342 934 351 947 q 329 901 334 922 q 322 862 323 880 q 321 820 321 845 l 321 305 q 341 199 321 238 q 414 160 361 160 q 512 310 512 160 l 512 436 l 410 436 l 410 585 l 736 585 l 736 0 l 572 0 l 557 94 q 376 -16 508 -16 z "},"ğ":{"ha":693,"x_min":35,"x_max":712,"o":"m 519 980 q 493 957 519 980 q 374 934 467 934 q 228 980 280 934 q 176 1109 176 1026 l 276 1109 q 299 1046 276 1066 q 374 1027 322 1027 q 448 1047 425 1027 q 472 1109 472 1067 l 571 1109 q 519 980 571 1026 m 343 384 q 393 416 382 384 q 405 532 405 448 q 394 650 405 619 q 342 681 384 681 q 318 677 328 681 q 301 663 308 673 q 291 643 294 653 q 285 613 287 633 q 283 577 283 593 q 283 532 283 562 q 285 468 283 492 q 293 423 287 444 q 311 393 298 402 q 343 384 323 384 m 372 -99 q 454 -87 428 -99 q 482 -49 479 -76 q 483 -35 483 -42 q 468 3 483 -9 q 399 24 449 19 l 277 39 q 245 -41 245 -8 q 274 -85 245 -71 q 372 -99 302 -99 m 373 -241 q 314 -240 340 -241 q 251 -235 287 -239 q 186 -226 214 -232 q 128 -208 157 -220 q 79 -181 98 -197 q 47 -141 60 -165 q 35 -88 35 -117 q 149 71 35 -8 q 76 111 99 90 q 49 161 53 133 q 47 183 47 172 q 66 242 47 216 q 146 321 91 277 q 59 521 59 385 q 132 744 59 671 q 338 817 205 817 q 522 747 467 817 q 630 836 572 806 l 660 851 l 712 741 q 648 715 692 734 q 578 680 604 695 q 618 522 618 618 q 552 320 618 393 q 354 248 487 248 q 285 255 322 248 q 226 272 248 262 q 201 222 201 240 q 202 216 201 219 q 276 186 205 196 q 362 174 295 182 q 450 163 429 165 q 613 101 566 147 q 661 -31 661 56 q 646 -116 661 -79 q 600 -182 632 -153 q 510 -226 567 -211 q 373 -241 453 -241 z "},"Ġ":{"ha":807,"x_min":67,"x_max":736,"o":"m 294 1223 l 294 1436 l 509 1436 l 509 1223 l 294 1223 m 376 -16 q 230 11 291 -16 q 134 92 170 39 q 83 214 99 144 q 67 374 67 283 l 67 747 q 78 881 67 822 q 112 989 88 940 q 175 1072 136 1039 q 271 1122 214 1104 q 405 1140 329 1140 q 534 1124 478 1140 q 628 1081 591 1109 q 690 1011 666 1053 q 724 921 713 970 q 734 810 734 871 l 734 739 l 491 739 l 491 829 q 490 871 491 855 q 485 907 489 888 q 472 938 480 927 q 447 957 463 949 q 408 964 431 964 q 368 956 385 964 q 342 934 351 947 q 329 901 334 922 q 322 862 323 880 q 321 820 321 845 l 321 305 q 341 199 321 238 q 414 160 361 160 q 512 310 512 160 l 512 436 l 410 436 l 410 585 l 736 585 l 736 0 l 572 0 l 557 94 q 376 -16 508 -16 z "},"ġ":{"ha":693,"x_min":35,"x_max":712,"o":"m 266 934 l 266 1147 l 481 1147 l 481 934 l 266 934 m 343 384 q 393 416 382 384 q 405 532 405 448 q 394 650 405 619 q 342 681 384 681 q 318 677 328 681 q 301 663 308 673 q 291 643 294 653 q 285 613 287 633 q 283 577 283 593 q 283 532 283 562 q 285 468 283 492 q 293 423 287 444 q 311 393 298 402 q 343 384 323 384 m 372 -99 q 454 -87 428 -99 q 482 -49 479 -76 q 483 -35 483 -42 q 468 3 483 -9 q 399 24 449 19 l 277 39 q 245 -41 245 -8 q 274 -85 245 -71 q 372 -99 302 -99 m 373 -241 q 314 -240 340 -241 q 251 -235 287 -239 q 186 -226 214 -232 q 128 -208 157 -220 q 79 -181 98 -197 q 47 -141 60 -165 q 35 -88 35 -117 q 149 71 35 -8 q 76 111 99 90 q 49 161 53 133 q 47 183 47 172 q 66 242 47 216 q 146 321 91 277 q 59 521 59 385 q 132 744 59 671 q 338 817 205 817 q 522 747 467 817 q 630 836 572 806 l 660 851 l 712 741 q 648 715 692 734 q 578 680 604 695 q 618 522 618 618 q 552 320 618 393 q 354 248 487 248 q 285 255 322 248 q 226 272 248 262 q 201 222 201 240 q 202 216 201 219 q 276 186 205 196 q 362 174 295 182 q 450 163 429 165 q 613 101 566 147 q 661 -31 661 56 q 646 -116 661 -79 q 600 -182 632 -153 q 510 -226 567 -211 q 373 -241 453 -241 z "},"Ģ":{"ha":807,"x_min":67,"x_max":736,"o":"m 333 -497 l 314 -420 q 386 -389 359 -414 q 412 -311 412 -365 l 295 -311 l 295 -99 l 509 -99 l 508 -281 q 333 -497 508 -496 m 376 -16 q 230 11 291 -16 q 134 92 170 39 q 83 214 99 144 q 67 374 67 283 l 67 747 q 78 881 67 822 q 112 989 88 940 q 175 1072 136 1039 q 271 1122 214 1104 q 405 1140 329 1140 q 534 1124 478 1140 q 628 1081 591 1109 q 690 1011 666 1053 q 724 921 713 970 q 734 810 734 871 l 734 739 l 491 739 l 491 829 q 490 871 491 855 q 485 907 489 888 q 472 938 480 927 q 447 957 463 949 q 408 964 431 964 q 368 956 385 964 q 342 934 351 947 q 329 901 334 922 q 322 862 323 880 q 321 820 321 845 l 321 305 q 341 199 321 238 q 414 160 361 160 q 512 310 512 160 l 512 436 l 410 436 l 410 585 l 736 585 l 736 0 l 572 0 l 557 94 q 376 -16 508 -16 z "},"ģ":{"ha":611,"x_min":26,"x_max":720,"o":"m 345 380 q 376 387 363 380 q 397 407 389 395 q 408 439 404 418 q 414 482 412 460 q 415 535 415 503 q 413 601 415 576 q 404 647 411 625 q 382 679 397 669 q 344 688 368 688 q 307 677 321 688 q 286 642 292 666 q 278 595 280 617 q 277 535 277 574 q 279 472 277 496 q 288 424 281 447 q 309 391 294 401 q 345 380 323 380 m 363 -113 q 488 -59 482 -113 q 488 -46 488 -52 q 472 -5 488 -19 q 393 22 452 12 l 282 39 q 237 -47 237 -13 q 363 -113 237 -113 m 267 1006 l 267 1181 q 446 1406 268 1396 l 456 1340 q 386 1298 412 1326 q 359 1217 359 1270 l 477 1217 l 477 1006 l 267 1006 m 363 -245 q 305 -243 333 -245 q 242 -238 277 -242 q 178 -226 207 -233 q 120 -207 149 -219 q 71 -178 91 -195 q 39 -137 51 -161 q 26 -83 26 -113 q 147 74 26 -13 q 68 114 94 94 q 37 159 42 134 q 35 180 35 170 q 38 206 34 193 q 62 252 45 230 q 96 291 79 274 q 139 328 113 307 q 50 522 50 391 q 126 742 50 667 q 340 818 203 818 q 450 799 399 818 q 528 747 500 779 q 637 840 583 811 l 668 855 l 720 753 q 587 682 670 736 q 630 525 630 624 q 561 324 630 397 q 359 251 492 251 q 218 278 281 251 q 183 212 183 235 q 184 207 183 210 q 259 179 186 193 q 444 150 269 177 q 616 86 568 130 q 665 -39 665 43 q 649 -119 665 -83 q 599 -184 633 -155 q 505 -229 565 -213 q 363 -245 446 -245 z "},"Ĥ":{"ha":846,"x_min":87,"x_max":758,"o":"m 197 1223 l 328 1488 l 514 1488 l 649 1223 l 483 1223 l 422 1387 l 362 1223 l 197 1223 m 87 0 l 87 1124 l 336 1124 l 336 670 l 509 670 l 509 1124 l 758 1124 l 758 0 l 509 0 l 509 492 l 336 492 l 336 0 l 87 0 z "},"ĥ":{"ha":707,"x_min":72,"x_max":642,"o":"m 130 1207 l 261 1472 l 448 1472 l 583 1207 l 416 1207 l 356 1371 l 296 1207 l 130 1207 m 72 0 l 72 1124 l 298 1124 l 298 731 q 494 817 384 817 q 604 764 566 817 q 642 630 642 712 l 642 0 l 415 0 l 415 596 q 406 641 415 627 q 370 655 396 656 q 298 626 340 655 l 298 0 l 72 0 z "},"Ħ":{"ha":752,"x_min":-17,"x_max":770,"o":"m 302 670 l 466 670 l 466 853 l 302 853 l 302 670 m 53 0 l 53 853 l -17 853 l -17 932 l 53 932 l 53 1124 l 302 1124 l 302 932 l 466 932 l 466 1124 l 714 1124 l 714 932 l 770 932 l 770 853 l 714 853 l 714 0 l 466 0 l 466 492 l 302 492 l 302 0 l 53 0 z "},"ħ":{"ha":708,"x_min":7,"x_max":643,"o":"m 73 0 l 73 932 l 7 932 l 7 1037 l 73 1037 l 73 1124 l 299 1124 l 299 1037 l 462 1037 l 462 932 l 299 932 l 299 731 q 495 817 385 817 q 605 764 566 817 q 643 630 643 712 l 643 0 l 416 0 l 416 596 q 407 641 416 627 q 372 655 397 656 q 299 626 342 655 l 299 0 l 73 0 z "},"Ĩ":{"ha":417,"x_min":-12,"x_max":429,"o":"m 336 1223 q 330 1223 333 1223 q 268 1237 303 1223 q 191 1271 228 1253 q 136 1289 155 1289 q 97 1232 97 1289 l -12 1232 q -12 1240 -12 1236 q -3 1333 -12 1296 q 32 1398 5 1372 q 104 1428 58 1425 q 115 1429 109 1429 q 178 1417 145 1429 q 247 1386 216 1402 q 290 1368 277 1369 q 297 1367 294 1367 q 329 1419 329 1367 l 429 1419 q 426 1350 429 1380 q 414 1289 423 1319 q 385 1242 405 1259 q 336 1223 366 1225 m 85 0 l 85 1124 l 333 1124 l 333 0 l 85 0 z "},"ĩ":{"ha":389,"x_min":-25,"x_max":416,"o":"m 323 899 q 316 899 319 899 q 254 913 290 899 q 178 947 214 930 q 122 965 141 965 q 83 908 83 965 l -25 908 q -25 917 -25 912 q -17 1009 -25 972 q 18 1075 -8 1048 q 90 1105 45 1101 q 102 1105 96 1105 q 164 1093 132 1105 q 233 1062 202 1079 q 276 1044 264 1046 q 283 1044 280 1044 q 315 1096 315 1044 l 416 1096 q 413 1026 416 1057 q 400 966 410 996 q 372 919 391 936 q 323 899 352 901 m 82 0 l 82 803 l 309 803 l 309 0 l 82 0 z "},"Ī":{"ha":417,"x_min":19,"x_max":399,"o":"m 19 1223 l 19 1329 l 399 1329 l 399 1223 l 19 1223 m 85 0 l 85 1124 l 333 1124 l 333 0 l 85 0 z "},"ī":{"ha":389,"x_min":5,"x_max":385,"o":"m 5 899 l 5 1006 l 385 1006 l 385 899 l 5 899 m 82 0 l 82 803 l 309 803 l 309 0 l 82 0 z "},"Ĭ":{"ha":417,"x_min":12,"x_max":406,"o":"m 354 1269 q 328 1246 354 1269 q 209 1223 302 1223 q 63 1269 115 1223 q 12 1398 12 1315 l 111 1398 q 134 1335 111 1355 q 209 1316 157 1316 q 283 1336 260 1316 q 307 1398 307 1356 l 406 1398 q 354 1269 406 1315 m 85 0 l 85 1124 l 333 1124 l 333 0 l 85 0 z "},"ĭ":{"ha":389,"x_min":-2,"x_max":393,"o":"m 341 945 q 315 922 341 945 q 195 899 289 899 q 50 945 102 899 q -2 1074 -2 991 l 98 1074 q 121 1012 98 1031 q 195 992 144 992 q 270 1012 246 992 q 294 1074 294 1032 l 393 1074 q 341 945 393 991 m 82 0 l 82 803 l 309 803 l 309 0 l 82 0 z "},"Į":{"ha":417,"x_min":41,"x_max":333,"o":"m 310 -349 q 286 -349 298 -349 q 261 -349 273 -349 q 252 -349 257 -349 q 210 -346 231 -349 q 159 -337 184 -342 q 113 -321 134 -332 q 76 -294 92 -309 q 51 -255 60 -279 q 41 -201 41 -231 q 73 -85 41 -145 q 152 12 104 -26 l 255 12 q 234 -43 250 -7 q 210 -110 219 -79 q 201 -168 201 -140 q 203 -189 201 -180 q 210 -205 206 -199 q 222 -218 214 -212 q 235 -227 229 -223 q 252 -232 241 -230 q 268 -236 262 -235 q 286 -238 274 -237 q 302 -239 298 -239 q 318 -239 307 -239 q 332 -239 330 -239 l 310 -349 m 85 0 l 85 1124 l 333 1124 l 333 0 l 85 0 z "},"į":{"ha":370,"x_min":18,"x_max":308,"o":"m 286 -349 q 262 -349 274 -349 q 237 -349 250 -349 q 229 -349 233 -349 q 186 -346 208 -349 q 135 -337 160 -342 q 89 -321 111 -332 q 52 -294 68 -309 q 27 -255 36 -279 q 18 -201 18 -231 q 49 -85 18 -145 q 128 12 81 -26 l 231 12 q 211 -43 226 -7 q 186 -110 195 -79 q 177 -168 177 -140 q 180 -189 177 -180 q 186 -205 182 -199 q 198 -218 191 -212 q 211 -227 205 -223 q 228 -232 217 -230 q 244 -236 239 -235 q 262 -238 250 -237 q 279 -239 275 -239 q 295 -239 283 -239 q 308 -239 307 -239 l 286 -349 m 71 938 l 71 1097 l 299 1097 l 299 938 l 71 938 m 73 0 l 73 803 l 299 803 l 299 0 l 73 0 z "},"İ":{"ha":417,"x_min":85,"x_max":333,"o":"m 102 1223 l 102 1436 l 317 1436 l 317 1223 l 102 1223 m 85 0 l 85 1124 l 333 1124 l 333 0 l 85 0 z "},"ı":{"ha":389,"x_min":82,"x_max":309,"o":"m 82 0 l 82 803 l 309 803 l 309 0 l 82 0 z "},"ĳ":{"ha":753,"x_min":71,"x_max":685,"o":"m 457 938 l 457 1097 l 685 1097 l 685 938 l 457 938 m 357 -230 l 357 -68 q 397 -73 389 -73 q 458 -5 458 -73 l 458 803 l 685 803 l 685 -33 q 631 -189 685 -130 q 477 -248 577 -248 q 357 -230 418 -248 m 71 938 l 71 1097 l 299 1097 l 299 938 l 71 938 m 73 0 l 73 803 l 299 803 l 299 0 l 73 0 z "},"Ĵ":{"ha":485,"x_min":18,"x_max":500,"o":"m 47 1221 l 178 1486 l 365 1486 l 500 1221 l 334 1221 l 273 1385 l 213 1221 l 47 1221 m 18 -27 l 18 146 q 26 146 22 146 q 125 167 98 145 q 153 260 153 190 l 153 1124 l 401 1124 l 401 250 q 388 129 400 178 q 346 43 375 79 q 265 -10 316 7 q 138 -27 214 -27 l 18 -27 z "},"ĵ":{"ha":374,"x_min":-83,"x_max":369,"o":"m -83 834 l 47 1099 l 234 1099 l 369 834 l 203 834 l 142 998 l 82 834 l -83 834 m -16 -236 l -16 -73 q 24 -79 9 -79 q 85 -12 85 -79 l 85 803 l 312 803 l 312 -39 q 258 -195 312 -136 q 104 -254 205 -254 q -16 -236 48 -254 z "},"Ķ":{"ha":787,"x_min":83,"x_max":773,"o":"m 359 -481 l 340 -404 q 411 -373 385 -397 q 438 -294 438 -349 l 321 -294 l 321 -83 l 534 -83 l 534 -264 q 359 -481 534 -480 m 83 0 l 83 1124 l 331 1124 l 331 667 l 521 1124 l 763 1124 l 555 616 l 773 0 l 519 0 l 355 503 l 331 464 l 331 0 l 83 0 z "},"ķ":{"ha":749,"x_min":71,"x_max":745,"o":"m 339 -481 l 320 -404 q 392 -373 365 -397 q 418 -294 418 -349 l 301 -294 l 301 -83 l 515 -83 l 514 -264 q 339 -481 514 -480 m 71 1 l 71 1125 l 296 1125 l 296 502 l 490 803 l 745 803 l 533 474 l 743 0 l 495 0 l 355 381 l 296 306 l 296 1 l 71 1 z "},"ĸ":{"ha":703,"x_min":69,"x_max":696,"o":"m 69 0 l 69 803 l 296 803 l 296 471 l 450 803 l 693 803 l 530 447 l 696 0 l 458 0 l 333 370 l 296 316 l 296 0 l 69 0 z "},"Ĺ":{"ha":614,"x_min":83,"x_max":589,"o":"m 143 1223 l 229 1502 l 460 1502 l 285 1223 l 143 1223 m 83 0 l 83 1124 l 331 1124 l 331 168 l 589 168 l 589 0 l 83 0 z "},"ĺ":{"ha":380,"x_min":80,"x_max":440,"o":"m 123 1207 l 208 1487 l 440 1487 l 264 1207 l 123 1207 m 80 0 l 80 1124 l 307 1124 l 307 0 l 80 0 z "},"Ļ":{"ha":614,"x_min":83,"x_max":589,"o":"m 267 -481 l 248 -404 q 319 -373 292 -397 q 346 -294 346 -349 l 229 -294 l 229 -83 l 442 -83 l 441 -264 q 267 -481 441 -480 m 83 0 l 83 1124 l 331 1124 l 331 168 l 589 168 l 589 0 l 83 0 z "},"ļ":{"ha":380,"x_min":80,"x_max":307,"o":"m 124 -481 l 105 -404 q 177 -373 150 -397 q 203 -294 203 -349 l 86 -294 l 86 -83 l 300 -83 l 299 -264 q 124 -481 299 -480 m 80 0 l 80 1124 l 307 1124 l 307 0 l 80 0 z "},"Ľ":{"ha":701,"x_min":83,"x_max":688,"o":"m 83 0 l 83 1124 l 331 1124 l 331 168 l 589 168 l 589 0 l 83 0 z "},"ľ":{"ha":535,"x_min":80,"x_max":616,"o":"m 80 0 l 80 1124 l 307 1124 l 307 0 l 80 0 z "},"Ŀ":{"ha":673,"x_min":83,"x_max":652,"o":"m 439 465 l 439 675 l 652 675 l 652 465 l 439 465 m 83 0 l 83 1124 l 331 1124 l 331 168 l 589 168 l 589 0 l 83 0 z "},"ŀ":{"ha":690,"x_min":80,"x_max":643,"o":"m 429 418 l 429 627 l 643 627 l 643 418 l 429 418 m 80 0 l 80 1124 l 307 1124 l 307 0 l 80 0 z "},"Ł":{"ha":625,"x_min":10,"x_max":599,"o":"m 94 0 l 94 496 l 10 456 l 10 594 l 94 635 l 94 1124 l 342 1124 l 342 752 l 479 818 l 479 680 l 342 614 l 342 168 l 599 168 l 599 0 l 94 0 z "},"ł":{"ha":461,"x_min":27,"x_max":451,"o":"m 119 0 l 119 572 l 27 532 l 27 661 l 119 701 l 119 1124 l 346 1124 l 346 798 l 451 843 l 451 715 l 346 669 l 346 0 l 119 0 z "},"Ń":{"ha":777,"x_min":83,"x_max":695,"o":"m 318 1223 l 404 1502 l 635 1502 l 460 1223 l 318 1223 m 83 0 l 83 1124 l 258 1124 l 489 585 l 489 1124 l 695 1124 l 695 0 l 527 0 l 295 582 l 295 0 l 83 0 z "},"ń":{"ha":705,"x_min":71,"x_max":639,"o":"m 284 899 l 370 1179 l 602 1179 l 426 899 l 284 899 m 71 0 l 71 803 l 297 803 l 297 723 q 492 817 393 817 q 601 764 563 817 q 639 630 639 712 l 639 0 l 412 0 l 412 596 q 403 641 412 627 q 368 655 393 656 q 297 627 339 655 l 297 0 l 71 0 z "},"Ņ":{"ha":777,"x_min":83,"x_max":695,"o":"m 320 -481 l 301 -404 q 373 -373 346 -397 q 399 -294 399 -349 l 282 -294 l 282 -83 l 496 -83 l 495 -264 q 320 -481 495 -480 m 83 0 l 83 1124 l 258 1124 l 489 585 l 489 1124 l 695 1124 l 695 0 l 527 0 l 295 582 l 295 0 l 83 0 z "},"ņ":{"ha":705,"x_min":71,"x_max":639,"o":"m 286 -481 l 267 -404 q 338 -373 311 -397 q 365 -294 365 -349 l 248 -294 l 248 -83 l 461 -83 l 460 -264 q 286 -481 460 -480 m 71 0 l 71 803 l 297 803 l 297 723 q 492 817 393 817 q 601 764 563 817 q 639 630 639 712 l 639 0 l 412 0 l 412 596 q 403 641 412 627 q 368 655 393 656 q 297 627 339 655 l 297 0 l 71 0 z "},"Ň":{"ha":777,"x_min":83,"x_max":695,"o":"m 278 1223 l 158 1480 l 318 1480 l 387 1329 l 458 1480 l 619 1480 l 496 1223 l 278 1223 m 83 0 l 83 1124 l 258 1124 l 489 585 l 489 1124 l 695 1124 l 695 0 l 527 0 l 295 582 l 295 0 l 83 0 z "},"ň":{"ha":705,"x_min":71,"x_max":639,"o":"m 244 899 l 124 1157 l 284 1157 l 353 1006 l 425 1157 l 585 1157 l 462 899 l 244 899 m 71 0 l 71 803 l 297 803 l 297 723 q 492 817 393 817 q 601 764 563 817 q 639 630 639 712 l 639 0 l 412 0 l 412 596 q 403 641 412 627 q 368 655 393 656 q 297 627 339 655 l 297 0 l 71 0 z "},"ŉ":{"ha":706,"x_min":71,"x_max":640,"o":"m 72 0 l 72 803 l 298 803 l 298 723 q 493 817 394 817 q 602 764 564 817 q 640 630 640 712 l 640 0 l 414 0 l 414 596 q 404 641 414 627 q 369 655 395 656 q 298 627 340 655 l 298 0 l 72 0 z "},"Ŋ":{"ha":787,"x_min":87,"x_max":700,"o":"m 340 -291 l 340 -142 q 349 -142 345 -142 q 470 -117 436 -142 q 506 -18 506 -90 l 506 106 l 298 582 l 298 0 l 87 0 l 87 1124 l 262 1124 l 496 585 l 496 1124 l 700 1124 l 700 0 q 689 -126 700 -75 q 649 -216 677 -178 q 570 -273 621 -255 q 442 -291 519 -291 l 340 -291 z "},"ŋ":{"ha":658,"x_min":58,"x_max":627,"o":"m 245 -271 l 245 -128 q 324 -123 295 -128 q 371 -103 353 -117 q 394 -66 389 -88 q 400 -7 400 -44 l 400 596 q 391 641 400 627 q 355 655 381 656 q 285 627 327 655 l 285 0 l 58 0 l 58 803 l 285 803 l 285 732 q 479 817 370 817 q 588 764 550 817 q 627 630 627 712 l 627 -8 q 560 -211 627 -151 q 328 -271 493 -271 l 245 -271 z "},"Ō":{"ha":812,"x_min":67,"x_max":746,"o":"m 216 1223 l 216 1329 l 596 1329 l 596 1223 l 216 1223 m 406 -16 q 246 9 312 -16 q 141 83 180 34 q 84 199 102 132 q 67 355 67 265 l 67 770 q 84 927 67 861 q 141 1042 102 994 q 246 1116 180 1091 q 406 1140 312 1140 q 667 1047 588 1140 q 746 770 746 954 l 746 355 q 667 78 746 172 q 406 -16 588 -16 m 367 168 q 375 164 367 168 q 406 160 383 160 q 444 168 428 160 q 469 188 460 176 q 483 218 478 199 q 490 254 488 237 q 491 294 491 271 l 491 833 q 490 872 491 855 q 483 907 488 888 q 469 937 478 926 q 444 957 460 949 q 406 964 428 964 q 367 957 383 964 q 342 938 351 949 q 329 907 334 926 q 323 872 324 888 q 322 833 322 857 l 322 294 q 323 254 322 270 q 329 219 324 238 q 342 188 334 199 q 367 168 351 176 z "},"ō":{"ha":671,"x_min":55,"x_max":616,"o":"m 146 899 l 146 1006 l 526 1006 l 526 899 l 146 899 m 541 54 q 503 20 541 54 q 334 -14 466 -14 q 129 54 203 -14 q 55 250 55 121 l 55 553 q 129 749 55 682 q 334 817 203 817 q 541 749 466 817 q 616 553 616 681 l 616 250 q 541 54 616 121 m 334 138 q 379 162 367 138 q 392 234 392 186 l 392 568 q 379 641 392 617 q 334 665 367 665 q 291 641 303 665 q 278 568 278 616 l 278 234 q 291 162 278 187 q 334 138 303 138 z "},"Ŏ":{"ha":812,"x_min":67,"x_max":746,"o":"m 552 1269 q 526 1246 552 1269 q 406 1223 500 1223 q 261 1269 313 1223 q 209 1398 209 1315 l 309 1398 q 332 1335 309 1355 q 406 1316 355 1316 q 481 1336 457 1316 q 505 1398 505 1356 l 604 1398 q 552 1269 604 1315 m 406 -16 q 246 9 312 -16 q 141 83 180 34 q 84 199 102 132 q 67 355 67 265 l 67 770 q 84 927 67 861 q 141 1042 102 994 q 246 1116 180 1091 q 406 1140 312 1140 q 667 1047 588 1140 q 746 770 746 954 l 746 355 q 667 78 746 172 q 406 -16 588 -16 m 367 168 q 375 164 367 168 q 406 160 383 160 q 444 168 428 160 q 469 188 460 176 q 483 218 478 199 q 490 254 488 237 q 491 294 491 271 l 491 833 q 490 872 491 855 q 483 907 488 888 q 469 937 478 926 q 444 957 460 949 q 406 964 428 964 q 367 957 383 964 q 342 938 351 949 q 329 907 334 926 q 323 872 324 888 q 322 833 322 857 l 322 294 q 323 254 322 270 q 329 219 324 238 q 342 188 334 199 q 367 168 351 176 z "},"ŏ":{"ha":671,"x_min":55,"x_max":616,"o":"m 481 945 q 455 922 481 945 q 336 899 429 899 q 190 945 242 899 q 138 1074 138 991 l 238 1074 q 261 1012 238 1031 q 336 992 284 992 q 410 1012 387 992 q 434 1074 434 1032 l 533 1074 q 481 945 533 991 m 541 54 q 503 20 541 54 q 334 -14 466 -14 q 129 54 203 -14 q 55 250 55 121 l 55 553 q 129 749 55 682 q 334 817 203 817 q 541 749 466 817 q 616 553 616 681 l 616 250 q 541 54 616 121 m 334 138 q 379 162 367 138 q 392 234 392 186 l 392 568 q 379 641 392 617 q 334 665 367 665 q 291 641 303 665 q 278 568 278 616 l 278 234 q 291 162 278 187 q 334 138 303 138 z "},"Ő":{"ha":812,"x_min":67,"x_max":757,"o":"m 471 1223 l 559 1522 l 757 1522 l 589 1223 l 471 1223 m 225 1223 l 306 1522 l 490 1522 l 340 1223 l 225 1223 m 406 -16 q 246 9 312 -16 q 141 83 180 34 q 84 199 102 132 q 67 355 67 265 l 67 770 q 84 927 67 861 q 141 1042 102 994 q 246 1116 180 1091 q 406 1140 312 1140 q 667 1047 588 1140 q 746 770 746 954 l 746 355 q 667 78 746 172 q 406 -16 588 -16 m 367 168 q 375 164 367 168 q 406 160 383 160 q 444 168 428 160 q 469 188 460 176 q 483 218 478 199 q 490 254 488 237 q 491 294 491 271 l 491 833 q 490 872 491 855 q 483 907 488 888 q 469 937 478 926 q 444 957 460 949 q 406 964 428 964 q 367 957 383 964 q 342 938 351 949 q 329 907 334 926 q 323 872 324 888 q 322 833 322 857 l 322 294 q 323 254 322 270 q 329 219 324 238 q 342 188 334 199 q 367 168 351 176 z "},"ő":{"ha":671,"x_min":55,"x_max":685,"o":"m 399 899 l 488 1198 l 685 1198 l 517 899 l 399 899 m 153 899 l 234 1198 l 418 1198 l 269 899 l 153 899 m 541 54 q 503 20 541 54 q 334 -14 466 -14 q 129 54 203 -14 q 55 250 55 121 l 55 553 q 129 749 55 682 q 334 817 203 817 q 541 749 466 817 q 616 553 616 681 l 616 250 q 541 54 616 121 m 334 138 q 379 162 367 138 q 392 234 392 186 l 392 568 q 379 641 392 617 q 334 665 367 665 q 291 641 303 665 q 278 568 278 616 l 278 234 q 291 162 278 187 q 334 138 303 138 z "},"Œ":{"ha":998,"x_min":67,"x_max":962,"o":"m 412 172 l 479 172 l 479 945 l 410 945 q 372 938 388 945 q 345 917 355 931 q 329 887 335 902 q 320 848 323 872 q 317 807 317 824 q 316 763 316 790 l 316 340 q 319 277 316 302 q 330 225 321 252 q 359 185 339 198 q 412 172 380 172 m 410 0 q 249 26 316 0 q 142 105 182 53 q 85 225 103 157 q 67 386 67 294 l 67 722 q 407 1120 67 1120 l 962 1120 l 962 951 l 727 951 l 727 667 l 901 667 l 901 494 l 727 494 l 727 168 l 962 168 l 962 0 l 410 0 z "},"œ":{"ha":982,"x_min":58,"x_max":931,"o":"m 624 506 l 720 506 l 720 610 q 707 671 720 646 q 671 695 694 695 q 637 671 650 695 q 624 610 624 648 l 624 506 m 331 125 q 374 150 359 125 q 388 236 388 176 l 388 600 q 334 695 388 695 q 281 600 281 695 l 281 236 q 331 125 281 125 m 296 -17 q 124 50 190 -17 q 58 241 58 116 l 58 590 q 125 773 58 711 q 309 836 192 836 q 425 808 369 836 q 500 734 481 781 q 575 809 520 782 q 688 836 631 836 q 802 815 754 836 q 878 756 850 795 q 919 667 906 718 q 931 551 931 617 l 931 386 l 624 386 l 624 249 q 671 125 624 126 q 673 125 672 125 q 708 145 697 125 q 718 211 719 165 l 718 315 l 931 315 l 931 212 q 869 41 932 102 q 696 -18 809 -18 q 691 -18 693 -18 q 567 9 618 -17 q 495 81 516 35 q 296 -17 441 -17 z "},"Ŕ":{"ha":830,"x_min":83,"x_max":781,"o":"m 361 1223 l 447 1502 l 679 1502 l 503 1223 l 361 1223 m 331 646 l 395 646 q 502 686 471 646 q 533 804 533 725 q 505 920 533 882 q 408 958 477 958 l 331 958 l 331 646 m 83 0 l 83 1124 l 389 1124 q 515 1116 460 1124 q 618 1088 570 1108 q 698 1034 667 1067 q 747 949 729 1001 q 764 827 764 897 q 734 649 764 716 q 627 545 705 582 l 781 0 l 524 0 l 401 503 l 331 503 l 331 0 l 83 0 z "},"ŕ":{"ha":515,"x_min":73,"x_max":530,"o":"m 212 899 l 298 1179 l 530 1179 l 354 899 l 212 899 m 73 0 l 73 803 l 300 803 l 300 669 q 460 813 374 813 q 492 808 473 813 l 492 607 q 455 612 473 612 q 300 515 362 607 l 300 0 l 73 0 z "},"Ŗ":{"ha":830,"x_min":83,"x_max":781,"o":"m 363 -481 l 344 -404 q 415 -373 389 -397 q 442 -294 442 -349 l 325 -294 l 325 -83 l 538 -83 l 538 -264 q 363 -481 538 -480 m 331 646 l 395 646 q 502 686 471 646 q 533 804 533 725 q 505 920 533 882 q 408 958 477 958 l 331 958 l 331 646 m 83 0 l 83 1124 l 389 1124 q 515 1116 460 1124 q 618 1088 570 1108 q 698 1034 667 1067 q 747 949 729 1001 q 764 827 764 897 q 734 649 764 716 q 627 545 705 582 l 781 0 l 524 0 l 401 503 l 331 503 l 331 0 l 83 0 z "},"ŗ":{"ha":515,"x_min":73,"x_max":492,"o":"m 214 -481 l 195 -404 q 266 -373 239 -397 q 293 -294 293 -349 l 176 -294 l 176 -83 l 389 -83 l 389 -264 q 214 -481 389 -480 m 73 0 l 73 803 l 300 803 l 300 669 q 460 813 374 813 q 492 808 473 813 l 492 607 q 455 612 473 612 q 300 515 362 607 l 300 0 l 73 0 z "},"Ř":{"ha":830,"x_min":83,"x_max":781,"o":"m 321 1223 l 201 1480 l 361 1480 l 431 1329 l 502 1480 l 663 1480 l 539 1223 l 321 1223 m 331 646 l 395 646 q 502 686 471 646 q 533 804 533 725 q 505 920 533 882 q 408 958 477 958 l 331 958 l 331 646 m 83 0 l 83 1124 l 389 1124 q 515 1116 460 1124 q 618 1088 570 1108 q 698 1034 667 1067 q 747 949 729 1001 q 764 827 764 897 q 734 649 764 716 q 627 545 705 582 l 781 0 l 524 0 l 401 503 l 331 503 l 331 0 l 83 0 z "},"ř":{"ha":515,"x_min":52,"x_max":513,"o":"m 172 899 l 52 1157 l 212 1157 l 281 1006 l 353 1157 l 513 1157 l 390 899 l 172 899 m 73 0 l 73 803 l 300 803 l 300 669 q 460 813 374 813 q 492 808 473 813 l 492 607 q 455 612 473 612 q 300 515 362 607 l 300 0 l 73 0 z "},"Ś":{"ha":713,"x_min":58,"x_max":676,"o":"m 296 1223 l 382 1502 l 614 1502 l 438 1223 l 296 1223 m 381 -16 q 143 70 221 -16 q 58 341 64 155 l 271 374 q 297 220 273 268 q 369 172 321 172 q 432 254 432 172 q 416 337 432 299 q 376 403 399 376 q 309 467 352 430 l 210 553 q 150 610 174 584 q 103 671 126 635 q 70 750 81 707 q 59 846 59 793 q 143 1063 59 986 q 374 1140 227 1139 q 465 1129 424 1140 q 534 1101 506 1118 q 584 1056 562 1083 q 617 1003 605 1029 q 638 942 630 976 q 650 881 647 909 q 654 821 653 853 l 439 793 q 438 841 439 822 q 434 880 437 859 q 427 914 431 901 q 414 938 422 927 q 394 954 406 949 q 366 958 382 959 q 316 931 334 958 q 299 871 299 904 q 307 813 299 839 q 334 762 315 787 q 366 726 353 738 q 406 688 378 713 l 502 604 q 570 536 541 568 q 624 463 598 504 q 663 373 650 422 q 676 267 676 323 q 595 65 676 145 q 381 -16 513 -16 z "},"ś":{"ha":587,"x_min":26,"x_max":562,"o":"m 223 899 l 309 1179 l 541 1179 l 365 899 l 223 899 m 306 -14 q 136 34 203 -14 q 26 188 68 83 l 183 256 q 237 168 206 199 q 296 140 265 140 q 302 140 299 140 q 338 156 323 141 q 351 194 352 172 q 343 219 351 205 q 313 253 335 232 q 283 281 292 273 q 244 314 275 288 l 182 368 q 45 593 45 483 q 80 710 45 658 q 170 789 114 762 q 292 817 227 817 q 457 763 391 817 q 550 610 523 709 l 404 542 q 364 622 390 587 q 306 659 338 656 q 304 659 304 659 q 266 646 279 659 q 250 612 251 632 q 347 496 248 579 q 359 486 355 489 l 419 431 q 472 384 454 401 q 515 336 490 366 q 551 273 540 305 q 562 205 562 241 q 526 85 562 136 q 432 10 489 35 q 306 -14 374 -14 z "},"Ŝ":{"ha":713,"x_min":58,"x_max":676,"o":"m 141 1223 l 272 1488 l 458 1488 l 593 1223 l 427 1223 l 367 1387 l 307 1223 l 141 1223 m 381 -16 q 143 70 221 -16 q 58 341 64 155 l 271 374 q 297 220 273 268 q 369 172 321 172 q 432 254 432 172 q 416 337 432 299 q 376 403 399 376 q 309 467 352 430 l 210 553 q 150 610 174 584 q 103 671 126 635 q 70 750 81 707 q 59 846 59 793 q 143 1063 59 986 q 374 1140 227 1139 q 465 1129 424 1140 q 534 1101 506 1118 q 584 1056 562 1083 q 617 1003 605 1029 q 638 942 630 976 q 650 881 647 909 q 654 821 653 853 l 439 793 q 438 841 439 822 q 434 880 437 859 q 427 914 431 901 q 414 938 422 927 q 394 954 406 949 q 366 958 382 959 q 316 931 334 958 q 299 871 299 904 q 307 813 299 839 q 334 762 315 787 q 366 726 353 738 q 406 688 378 713 l 502 604 q 570 536 541 568 q 624 463 598 504 q 663 373 650 422 q 676 267 676 323 q 595 65 676 145 q 381 -16 513 -16 z "},"ŝ":{"ha":587,"x_min":26,"x_max":562,"o":"m 68 899 l 199 1164 l 385 1164 l 520 899 l 354 899 l 294 1063 l 233 899 l 68 899 m 306 -14 q 136 34 203 -14 q 26 188 68 83 l 183 256 q 237 168 206 199 q 296 140 265 140 q 302 140 299 140 q 338 156 323 141 q 351 194 352 172 q 343 219 351 205 q 313 253 335 232 q 283 281 292 273 q 244 314 275 288 l 182 368 q 45 593 45 483 q 80 710 45 658 q 170 789 114 762 q 292 817 227 817 q 457 763 391 817 q 550 610 523 709 l 404 542 q 364 622 390 587 q 306 659 338 656 q 304 659 304 659 q 266 646 279 659 q 250 612 251 632 q 347 496 248 579 q 359 486 355 489 l 419 431 q 472 384 454 401 q 515 336 490 366 q 551 273 540 305 q 562 205 562 241 q 526 85 562 136 q 432 10 489 35 q 306 -14 374 -14 z "},"Ş":{"ha":713,"x_min":58,"x_max":676,"o":"m 302 -369 l 302 -271 q 367 -281 330 -279 q 383 -282 375 -282 q 436 -275 410 -282 q 469 -241 469 -265 q 447 -196 469 -215 q 398 -170 425 -178 q 340 -161 372 -163 l 340 0 l 425 0 l 425 -92 q 559 -133 505 -95 q 615 -234 615 -172 q 587 -320 615 -285 q 511 -372 557 -357 q 414 -385 466 -386 q 409 -385 412 -385 q 302 -369 355 -385 m 381 -16 q 143 70 221 -16 q 58 341 64 155 l 271 374 q 297 220 273 268 q 369 172 321 172 q 432 254 432 172 q 416 337 432 299 q 376 403 399 376 q 309 467 352 430 l 210 553 q 150 610 174 584 q 103 671 126 635 q 70 750 81 707 q 59 846 59 793 q 143 1063 59 986 q 374 1140 227 1139 q 465 1129 424 1140 q 534 1101 506 1118 q 584 1056 562 1083 q 617 1003 605 1029 q 638 942 630 976 q 650 881 647 909 q 654 821 653 853 l 439 793 q 438 841 439 822 q 434 880 437 859 q 427 914 431 901 q 414 938 422 927 q 394 954 406 949 q 366 958 382 959 q 316 931 334 958 q 299 871 299 904 q 307 813 299 839 q 334 762 315 787 q 366 726 353 738 q 406 688 378 713 l 502 604 q 570 536 541 568 q 624 463 598 504 q 663 373 650 422 q 676 267 676 323 q 595 65 676 145 q 381 -16 513 -16 z "},"ş":{"ha":587,"x_min":26,"x_max":562,"o":"m 223 -369 l 223 -271 q 288 -281 251 -279 q 304 -282 296 -282 q 357 -275 332 -282 q 390 -241 390 -265 q 368 -196 390 -215 q 319 -170 346 -178 q 262 -161 293 -163 l 262 0 l 346 0 l 346 -92 q 481 -133 426 -95 q 536 -234 536 -172 q 508 -320 536 -285 q 432 -372 479 -357 q 336 -385 387 -386 q 330 -385 333 -385 q 223 -369 276 -385 m 306 -14 q 136 34 203 -14 q 26 188 68 83 l 183 256 q 237 168 206 199 q 296 140 265 140 q 302 140 299 140 q 338 156 323 141 q 351 194 352 172 q 343 219 351 205 q 313 253 335 232 q 283 281 292 273 q 244 314 275 288 l 182 368 q 45 593 45 483 q 80 710 45 658 q 170 789 114 762 q 292 817 227 817 q 457 763 391 817 q 550 610 523 709 l 404 542 q 364 622 390 587 q 306 659 338 656 q 304 659 304 659 q 266 646 279 659 q 250 612 251 632 q 347 496 248 579 q 359 486 355 489 l 419 431 q 472 384 454 401 q 515 336 490 366 q 551 273 540 305 q 562 205 562 241 q 526 85 562 136 q 432 10 489 35 q 306 -14 374 -14 z "},"Š":{"ha":713,"x_min":58,"x_max":676,"o":"m 256 1223 l 136 1480 l 296 1480 l 366 1329 l 437 1480 l 597 1480 l 474 1223 l 256 1223 m 381 -16 q 143 70 221 -16 q 58 341 64 155 l 271 374 q 297 220 273 268 q 369 172 321 172 q 432 254 432 172 q 416 337 432 299 q 376 403 399 376 q 309 467 352 430 l 210 553 q 150 610 174 584 q 103 671 126 635 q 70 750 81 707 q 59 846 59 793 q 143 1063 59 986 q 374 1140 227 1139 q 465 1129 424 1140 q 534 1101 506 1118 q 584 1056 562 1083 q 617 1003 605 1029 q 638 942 630 976 q 650 881 647 909 q 654 821 653 853 l 439 793 q 438 841 439 822 q 434 880 437 859 q 427 914 431 901 q 414 938 422 927 q 394 954 406 949 q 366 958 382 959 q 316 931 334 958 q 299 871 299 904 q 307 813 299 839 q 334 762 315 787 q 366 726 353 738 q 406 688 378 713 l 502 604 q 570 536 541 568 q 624 463 598 504 q 663 373 650 422 q 676 267 676 323 q 595 65 676 145 q 381 -16 513 -16 z "},"š":{"ha":587,"x_min":26,"x_max":562,"o":"m 184 899 l 64 1157 l 224 1157 l 293 1006 l 364 1157 l 525 1157 l 401 899 l 184 899 m 306 -14 q 136 34 203 -14 q 26 188 68 83 l 183 256 q 237 168 206 199 q 296 140 265 140 q 302 140 299 140 q 338 156 323 141 q 351 194 352 172 q 343 219 351 205 q 313 253 335 232 q 283 281 292 273 q 244 314 275 288 l 182 368 q 45 593 45 483 q 80 710 45 658 q 170 789 114 762 q 292 817 227 817 q 457 763 391 817 q 550 610 523 709 l 404 542 q 364 622 390 587 q 306 659 338 656 q 304 659 304 659 q 266 646 279 659 q 250 612 251 632 q 347 496 248 579 q 359 486 355 489 l 419 431 q 472 384 454 401 q 515 336 490 366 q 551 273 540 305 q 562 205 562 241 q 526 85 562 136 q 432 10 489 35 q 306 -14 374 -14 z "},"Ţ":{"ha":620,"x_min":14,"x_max":606,"o":"m 230 -369 l 230 -271 q 295 -281 258 -279 q 311 -282 303 -282 q 364 -275 338 -282 q 397 -241 397 -265 q 375 -196 397 -215 q 326 -170 353 -178 q 269 -161 300 -163 l 269 0 l 353 0 l 353 -92 q 488 -133 433 -95 q 543 -234 543 -172 q 515 -320 543 -285 q 439 -372 486 -357 q 342 -385 394 -386 q 337 -385 340 -385 q 230 -369 283 -385 m 186 0 l 186 941 l 14 941 l 14 1124 l 606 1124 l 606 941 l 435 941 l 435 0 l 186 0 z "},"ţ":{"ha":491,"x_min":18,"x_max":536,"o":"m 223 -369 l 223 -271 q 288 -281 251 -279 q 304 -282 296 -282 q 357 -275 332 -282 q 390 -241 390 -265 q 368 -196 390 -215 q 319 -170 346 -178 q 262 -161 293 -163 l 262 0 l 346 0 l 346 -92 q 481 -133 426 -95 q 536 -234 536 -172 q 508 -320 536 -285 q 432 -372 479 -357 q 336 -385 387 -386 q 330 -385 333 -385 q 223 -369 276 -385 m 298 -9 q 231 1 261 -8 q 180 24 201 10 q 143 60 159 39 q 118 105 127 82 q 104 159 109 128 q 96 217 98 189 q 94 281 94 245 l 94 655 l 18 655 l 18 803 l 94 803 l 94 1046 l 323 1046 l 323 803 l 438 803 l 438 655 l 323 655 l 323 240 q 395 175 323 177 q 415 175 404 174 q 434 177 427 176 q 448 179 441 178 q 456 180 455 180 l 456 2 q 321 -10 383 -10 q 298 -9 310 -10 z "},"Ť":{"ha":620,"x_min":14,"x_max":606,"o":"m 199 1223 l 79 1480 l 239 1480 l 309 1329 l 380 1480 l 541 1480 l 417 1223 l 199 1223 m 186 0 l 186 941 l 14 941 l 14 1124 l 606 1124 l 606 941 l 435 941 l 435 0 l 186 0 z "},"ť":{"ha":519,"x_min":18,"x_max":630,"o":"m 298 -9 q 231 1 261 -8 q 180 24 201 10 q 143 60 159 39 q 118 105 127 82 q 104 159 109 128 q 96 217 98 189 q 94 281 94 245 l 94 655 l 18 655 l 18 803 l 94 803 l 94 1046 l 323 1046 l 323 803 l 438 803 l 438 655 l 323 655 l 323 240 q 395 175 323 177 q 415 175 404 174 q 434 177 427 176 q 448 179 441 178 q 456 180 455 180 l 456 2 q 321 -10 383 -10 q 298 -9 310 -10 z "},"Ŧ":{"ha":620,"x_min":14,"x_max":606,"o":"m 64 513 l 64 633 l 186 633 l 186 941 l 14 941 l 14 1124 l 606 1124 l 606 941 l 435 941 l 435 633 l 562 633 l 562 513 l 435 513 l 435 0 l 186 0 l 186 513 l 64 513 z "},"ŧ":{"ha":491,"x_min":18,"x_max":456,"o":"m 298 -9 q 231 1 261 -8 q 180 24 201 10 q 143 60 159 39 q 118 105 127 82 q 104 159 109 128 q 96 217 98 189 q 94 281 94 245 l 94 422 l 19 422 l 19 520 l 94 520 l 94 655 l 18 655 l 18 803 l 94 803 l 94 1046 l 323 1046 l 323 803 l 438 803 l 438 655 l 323 655 l 323 520 l 439 520 l 439 422 l 323 422 l 323 240 q 395 175 323 177 q 415 175 404 174 q 434 177 427 176 q 448 179 441 178 q 456 180 455 180 l 456 2 q 321 -10 383 -10 q 298 -9 310 -10 z "},"Ũ":{"ha":815,"x_min":75,"x_max":740,"o":"m 535 1223 q 528 1223 532 1223 q 467 1237 502 1223 q 390 1271 427 1253 q 334 1289 353 1289 q 296 1232 296 1289 l 187 1232 q 187 1240 187 1236 q 195 1333 187 1296 q 231 1398 204 1372 q 302 1428 257 1425 q 314 1429 308 1429 q 376 1417 344 1429 q 445 1386 414 1402 q 488 1368 476 1369 q 496 1367 492 1367 q 528 1419 528 1367 l 628 1419 q 625 1350 628 1380 q 613 1289 622 1319 q 584 1242 604 1259 q 535 1223 564 1225 m 408 -16 q 274 0 331 -16 q 179 45 216 16 q 118 121 141 75 q 85 223 94 168 q 75 354 75 279 l 75 1124 l 321 1124 l 321 317 q 322 272 321 291 q 329 232 323 254 q 342 196 334 210 q 368 173 351 182 q 408 164 385 164 q 447 173 431 164 q 472 196 463 182 q 486 232 481 210 q 492 273 491 254 q 494 317 494 292 l 494 1124 l 740 1124 l 740 354 q 724 195 740 260 q 671 80 708 129 q 568 8 633 31 q 408 -16 503 -16 z "},"ũ":{"ha":699,"x_min":64,"x_max":627,"o":"m 473 899 q 466 899 469 899 q 404 913 439 899 q 328 947 364 930 q 272 965 291 965 q 233 908 233 965 l 125 908 q 125 917 125 912 q 133 1009 125 972 q 168 1075 142 1048 q 240 1105 195 1101 q 252 1105 245 1105 q 314 1093 281 1105 q 383 1062 352 1079 q 426 1044 414 1046 q 433 1044 430 1044 q 465 1096 465 1044 l 566 1096 q 563 1026 566 1057 q 550 966 559 996 q 522 919 541 936 q 473 899 502 901 m 211 -14 q 102 39 140 -14 q 64 173 64 91 l 64 803 l 290 803 l 290 200 q 301 155 290 170 q 336 140 311 140 q 401 165 363 141 l 401 803 l 627 803 l 627 0 l 401 0 l 401 74 q 211 -14 308 -14 z "},"Ū":{"ha":815,"x_min":75,"x_max":740,"o":"m 218 1223 l 218 1329 l 597 1329 l 597 1223 l 218 1223 m 408 -16 q 274 0 331 -16 q 179 45 216 16 q 118 121 141 75 q 85 223 94 168 q 75 354 75 279 l 75 1124 l 321 1124 l 321 317 q 322 272 321 291 q 329 232 323 254 q 342 196 334 210 q 368 173 351 182 q 408 164 385 164 q 447 173 431 164 q 472 196 463 182 q 486 232 481 210 q 492 273 491 254 q 494 317 494 292 l 494 1124 l 740 1124 l 740 354 q 724 195 740 260 q 671 80 708 129 q 568 8 633 31 q 408 -16 503 -16 z "},"ū":{"ha":699,"x_min":64,"x_max":627,"o":"m 155 899 l 155 1006 l 535 1006 l 535 899 l 155 899 m 211 -14 q 102 39 140 -14 q 64 173 64 91 l 64 803 l 290 803 l 290 200 q 301 155 290 170 q 336 140 311 140 q 401 165 363 141 l 401 803 l 627 803 l 627 0 l 401 0 l 401 74 q 211 -14 308 -14 z "},"Ŭ":{"ha":815,"x_min":75,"x_max":740,"o":"m 553 1269 q 527 1246 553 1269 q 408 1223 501 1223 q 262 1269 314 1223 q 210 1398 210 1315 l 310 1398 q 333 1335 310 1355 q 408 1316 356 1316 q 482 1336 458 1316 q 506 1398 506 1356 l 605 1398 q 553 1269 605 1315 m 408 -16 q 274 0 331 -16 q 179 45 216 16 q 118 121 141 75 q 85 223 94 168 q 75 354 75 279 l 75 1124 l 321 1124 l 321 317 q 322 272 321 291 q 329 232 323 254 q 342 196 334 210 q 368 173 351 182 q 408 164 385 164 q 447 173 431 164 q 472 196 463 182 q 486 232 481 210 q 492 273 491 254 q 494 317 494 292 l 494 1124 l 740 1124 l 740 354 q 724 195 740 260 q 671 80 708 129 q 568 8 633 31 q 408 -16 503 -16 z "},"ŭ":{"ha":699,"x_min":64,"x_max":627,"o":"m 491 945 q 465 922 491 945 q 345 899 439 899 q 200 945 252 899 q 148 1074 148 991 l 248 1074 q 271 1012 248 1031 q 345 992 294 992 q 420 1012 396 992 q 444 1074 444 1032 l 543 1074 q 491 945 543 991 m 211 -14 q 102 39 140 -14 q 64 173 64 91 l 64 803 l 290 803 l 290 200 q 301 155 290 170 q 336 140 311 140 q 401 165 363 141 l 401 803 l 627 803 l 627 0 l 401 0 l 401 74 q 211 -14 308 -14 z "},"Ů":{"ha":815,"x_min":75,"x_max":740,"o":"m 356 1324 q 365 1314 356 1324 q 407 1303 374 1303 q 458 1324 439 1303 q 476 1377 476 1345 q 458 1430 476 1409 q 407 1451 439 1451 q 356 1430 374 1451 q 338 1377 338 1409 q 356 1324 338 1345 m 407 1223 q 291 1263 337 1223 q 245 1377 245 1304 q 291 1490 245 1450 q 407 1531 337 1531 q 524 1490 477 1531 q 571 1377 571 1449 q 524 1263 571 1304 q 407 1223 477 1223 m 408 -16 q 274 0 331 -16 q 179 45 216 16 q 118 121 141 75 q 85 223 94 168 q 75 354 75 279 l 75 1124 l 321 1124 l 321 317 q 322 272 321 291 q 329 232 323 254 q 342 196 334 210 q 368 173 351 182 q 408 164 385 164 q 447 173 431 164 q 472 196 463 182 q 486 232 481 210 q 492 273 491 254 q 494 317 494 292 l 494 1124 l 740 1124 l 740 354 q 724 195 740 260 q 671 80 708 129 q 568 8 633 31 q 408 -16 503 -16 z "},"ů":{"ha":699,"x_min":64,"x_max":627,"o":"m 294 1001 q 303 990 294 1001 q 345 980 312 980 q 395 1001 377 980 q 414 1054 414 1022 q 395 1106 414 1085 q 345 1127 377 1127 q 294 1106 312 1127 q 275 1054 275 1085 q 294 1001 275 1022 m 345 899 q 229 940 275 899 q 182 1054 182 981 q 229 1167 182 1126 q 345 1207 275 1207 q 462 1166 415 1207 q 509 1054 509 1126 q 462 940 509 981 q 345 899 415 899 m 211 -14 q 102 39 140 -14 q 64 173 64 91 l 64 803 l 290 803 l 290 200 q 301 155 290 170 q 336 140 311 140 q 401 165 363 141 l 401 803 l 627 803 l 627 0 l 401 0 l 401 74 q 211 -14 308 -14 z "},"Ű":{"ha":815,"x_min":75,"x_max":758,"o":"m 471 1223 l 560 1522 l 758 1522 l 589 1223 l 471 1223 m 226 1223 l 307 1522 l 491 1522 l 341 1223 l 226 1223 m 408 -16 q 274 0 331 -16 q 179 45 216 16 q 118 121 141 75 q 85 223 94 168 q 75 354 75 279 l 75 1124 l 321 1124 l 321 317 q 322 272 321 291 q 329 232 323 254 q 342 196 334 210 q 368 173 351 182 q 408 164 385 164 q 447 173 431 164 q 472 196 463 182 q 486 232 481 210 q 492 273 491 254 q 494 317 494 292 l 494 1124 l 740 1124 l 740 354 q 724 195 740 260 q 671 80 708 129 q 568 8 633 31 q 408 -16 503 -16 z "},"ű":{"ha":699,"x_min":64,"x_max":696,"o":"m 410 899 l 498 1198 l 696 1198 l 528 899 l 410 899 m 164 899 l 245 1198 l 429 1198 l 279 899 l 164 899 m 211 -14 q 102 39 140 -14 q 64 173 64 91 l 64 803 l 290 803 l 290 200 q 301 155 290 170 q 336 140 311 140 q 401 165 363 141 l 401 803 l 627 803 l 627 0 l 401 0 l 401 74 q 211 -14 308 -14 z "},"Ų":{"ha":815,"x_min":75,"x_max":740,"o":"m 547 -349 q 522 -349 534 -349 q 498 -349 510 -349 q 489 -349 494 -349 q 446 -346 468 -349 q 396 -337 420 -342 q 350 -321 371 -332 q 312 -294 328 -309 q 287 -255 296 -279 q 278 -201 278 -231 q 310 -85 278 -145 q 389 12 341 -26 l 492 12 q 471 -43 486 -7 q 447 -110 456 -79 q 437 -168 437 -140 q 440 -189 437 -180 q 447 -205 443 -199 q 458 -218 451 -212 q 472 -227 466 -223 q 488 -232 477 -230 q 505 -236 499 -235 q 523 -238 511 -237 q 539 -239 535 -239 q 555 -239 543 -239 q 568 -239 567 -239 l 547 -349 m 408 -16 q 274 0 331 -16 q 179 45 216 16 q 118 121 141 75 q 85 223 94 168 q 75 354 75 279 l 75 1124 l 321 1124 l 321 317 q 322 272 321 291 q 329 232 323 254 q 342 196 334 210 q 368 173 351 182 q 408 164 385 164 q 447 173 431 164 q 472 196 463 182 q 486 232 481 210 q 492 273 491 254 q 494 317 494 292 l 494 1124 l 740 1124 l 740 354 q 724 195 740 260 q 671 80 708 129 q 568 8 633 31 q 408 -16 503 -16 z "},"ų":{"ha":699,"x_min":64,"x_max":635,"o":"m 614 -349 q 589 -349 602 -349 q 565 -349 577 -349 q 556 -349 561 -349 q 513 -346 535 -349 q 463 -337 488 -342 q 417 -321 438 -332 q 379 -294 395 -309 q 354 -255 363 -279 q 345 -201 345 -231 q 377 -85 345 -145 q 456 12 408 -26 l 559 12 q 538 -43 553 -7 q 514 -110 523 -79 q 505 -168 505 -140 q 507 -189 505 -180 q 514 -205 510 -199 q 526 -218 518 -212 q 539 -227 533 -223 q 555 -232 545 -230 q 572 -236 566 -235 q 590 -238 578 -237 q 606 -239 602 -239 q 622 -239 610 -239 q 635 -239 634 -239 l 614 -349 m 211 -14 q 102 39 140 -14 q 64 173 64 91 l 64 803 l 290 803 l 290 200 q 301 155 290 170 q 336 140 311 140 q 401 165 363 141 l 401 803 l 627 803 l 627 0 l 401 0 l 401 74 q 211 -14 308 -14 z "},"Ŵ":{"ha":971,"x_min":39,"x_max":932,"o":"m 259 1223 l 390 1488 l 576 1488 l 711 1223 l 545 1223 l 485 1387 l 425 1223 l 259 1223 m 174 0 l 39 1124 l 250 1124 l 316 471 l 402 1124 l 566 1124 l 656 475 l 724 1124 l 932 1124 l 796 0 l 581 0 l 485 678 l 393 0 l 174 0 z "},"ŵ":{"ha":831,"x_min":29,"x_max":801,"o":"m 189 899 l 319 1164 l 506 1164 l 641 899 l 475 899 l 414 1063 l 354 899 l 189 899 m 148 0 l 29 803 l 218 803 l 276 347 l 340 803 l 503 803 l 558 337 l 625 803 l 801 803 l 680 0 l 486 0 l 417 450 l 340 0 l 148 0 z "},"Ŷ":{"ha":686,"x_min":11,"x_max":675,"o":"m 117 1223 l 248 1488 l 434 1488 l 569 1223 l 403 1223 l 342 1387 l 282 1223 l 117 1223 m 225 0 l 225 460 l 11 1124 l 245 1124 l 352 768 l 449 1124 l 675 1124 l 463 460 l 463 0 l 225 0 z "},"ŷ":{"ha":621,"x_min":3,"x_max":606,"o":"m 79 899 l 210 1164 l 396 1164 l 531 899 l 365 899 l 304 1063 l 244 899 l 79 899 m 92 -233 l 92 -76 q 195 -61 167 -76 q 221 -7 221 -47 q 220 2 221 -3 q 191 128 216 37 q 97 466 183 160 q 3 803 11 771 l 217 803 l 317 340 l 393 803 l 606 803 l 417 -43 q 130 -233 375 -233 q 123 -233 127 -233 l 92 -233 z "},"Ÿ":{"ha":686,"x_min":11,"x_max":675,"o":"m 401 1223 l 401 1428 l 583 1428 l 583 1223 l 401 1223 m 102 1223 l 102 1428 l 284 1428 l 284 1223 l 102 1223 m 225 0 l 225 460 l 11 1124 l 245 1124 l 352 768 l 449 1124 l 675 1124 l 463 460 l 463 0 l 225 0 z "},"Ź":{"ha":600,"x_min":42,"x_max":563,"o":"m 231 1223 l 317 1502 l 549 1502 l 373 1223 l 231 1223 m 42 0 l 42 151 l 315 956 l 53 956 l 53 1124 l 561 1124 l 561 987 l 281 168 l 563 168 l 563 0 l 42 0 z "},"ź":{"ha":543,"x_min":48,"x_max":524,"o":"m 207 899 l 292 1179 l 524 1179 l 349 899 l 207 899 m 48 0 l 48 146 l 269 637 l 65 637 l 65 803 l 504 803 l 504 665 l 283 166 l 507 166 l 507 0 l 48 0 z "},"Ż":{"ha":600,"x_min":42,"x_max":563,"o":"m 195 1223 l 195 1436 l 410 1436 l 410 1223 l 195 1223 m 42 0 l 42 151 l 315 956 l 53 956 l 53 1124 l 561 1124 l 561 987 l 281 168 l 563 168 l 563 0 l 42 0 z "},"ż":{"ha":543,"x_min":48,"x_max":507,"o":"m 170 899 l 170 1112 l 385 1112 l 385 899 l 170 899 m 48 0 l 48 146 l 269 637 l 65 637 l 65 803 l 504 803 l 504 665 l 283 166 l 507 166 l 507 0 l 48 0 z "},"Ž":{"ha":600,"x_min":42,"x_max":563,"o":"m 192 1223 l 72 1480 l 232 1480 l 301 1329 l 372 1480 l 533 1480 l 410 1223 l 192 1223 m 42 0 l 42 151 l 315 956 l 53 956 l 53 1124 l 561 1124 l 561 987 l 281 168 l 563 168 l 563 0 l 42 0 z "},"ž":{"ha":543,"x_min":47,"x_max":508,"o":"m 167 899 l 47 1157 l 207 1157 l 276 1006 l 347 1157 l 508 1157 l 385 899 l 167 899 m 48 0 l 48 146 l 269 637 l 65 637 l 65 803 l 504 803 l 504 665 l 283 166 l 507 166 l 507 0 l 48 0 z "},"ƒ":{"ha":637,"x_min":29,"x_max":597,"o":"m 136 -246 q 29 -239 87 -246 l 46 -71 q 94 -77 87 -77 q 154 -15 148 -77 l 222 644 l 144 644 l 144 803 l 239 803 l 245 862 q 255 929 249 901 q 271 986 260 958 q 300 1033 282 1014 q 343 1067 317 1052 q 405 1089 368 1082 q 490 1097 442 1097 q 597 1090 538 1097 l 580 922 q 532 928 539 928 q 472 866 478 928 l 465 803 l 555 803 l 555 644 l 449 644 l 381 -12 q 369 -91 376 -59 q 345 -155 361 -123 q 302 -205 328 -186 q 235 -235 277 -224 q 136 -246 193 -246 z "},"Ǆ":{"ha":1411,"x_min":83,"x_max":1374,"o":"m 1003 1223 l 883 1480 l 1043 1480 l 1112 1329 l 1183 1480 l 1344 1480 l 1221 1223 l 1003 1223 m 853 0 l 853 151 l 1126 956 l 864 956 l 864 1124 l 1372 1124 l 1372 987 l 1092 168 l 1374 168 l 1374 0 l 853 0 m 83 0 l 83 1124 l 366 1124 q 549 1105 476 1124 q 665 1040 622 1085 q 726 931 709 996 q 744 768 744 866 l 744 363 q 726 198 744 264 q 665 86 708 132 q 550 20 622 41 q 369 0 477 0 l 83 0 m 331 172 l 369 172 q 417 176 397 172 q 451 189 437 180 q 472 209 464 199 q 483 240 479 220 q 488 278 487 260 q 489 326 489 296 l 489 810 q 486 876 489 852 q 470 918 482 899 q 434 944 458 937 q 368 951 410 951 l 331 951 l 331 172 z "},"ǅ":{"ha":1354,"x_min":83,"x_max":1319,"o":"m 978 899 l 858 1157 l 1018 1157 l 1087 1006 l 1158 1157 l 1319 1157 l 1196 899 l 978 899 m 859 0 l 859 146 l 1080 637 l 876 637 l 876 803 l 1315 803 l 1315 665 l 1095 166 l 1318 166 l 1318 0 l 859 0 m 83 0 l 83 1124 l 366 1124 q 549 1105 476 1124 q 665 1040 622 1085 q 726 931 709 996 q 744 768 744 866 l 744 363 q 726 198 744 264 q 665 86 708 132 q 550 20 622 41 q 369 0 477 0 l 83 0 m 331 172 l 369 172 q 417 176 397 172 q 451 189 437 180 q 472 209 464 199 q 483 240 479 220 q 488 278 487 260 q 489 326 489 296 l 489 810 q 486 876 489 852 q 470 918 482 899 q 434 944 458 937 q 368 951 410 951 l 331 951 l 331 172 z "},"ǆ":{"ha":1242,"x_min":59,"x_max":1207,"o":"m 866 899 l 746 1157 l 906 1157 l 975 1006 l 1046 1157 l 1207 1157 l 1084 899 l 866 899 m 747 0 l 747 146 l 968 637 l 764 637 l 764 803 l 1203 803 l 1203 665 l 983 166 l 1206 166 l 1206 0 l 747 0 m 343 132 q 402 151 367 132 l 402 656 q 345 674 372 674 q 300 650 315 674 q 286 587 286 626 l 286 221 q 300 157 286 182 q 343 132 313 132 m 245 -14 q 107 49 155 -14 q 59 236 59 112 l 59 562 q 107 747 59 677 q 245 817 155 817 q 402 753 329 817 l 402 1124 l 629 1124 l 629 0 l 402 0 l 402 61 q 245 -14 326 -14 z "},"Ǉ":{"ha":1099,"x_min":83,"x_max":1016,"o":"m 632 -27 l 632 146 q 641 146 637 146 q 739 167 713 145 q 768 260 768 190 l 768 1124 l 1016 1124 l 1016 250 q 1002 129 1015 178 q 960 43 989 79 q 880 -10 930 7 q 753 -27 829 -27 l 632 -27 m 83 0 l 83 1124 l 331 1124 l 331 168 l 589 168 l 589 0 l 83 0 z "},"ǈ":{"ha":998,"x_min":83,"x_max":930,"o":"m 702 938 l 702 1097 l 930 1097 l 930 938 l 702 938 m 602 -230 l 602 -68 q 642 -73 634 -73 q 703 -5 703 -73 l 703 803 l 930 803 l 930 -33 q 876 -189 930 -130 q 722 -248 822 -248 q 602 -230 663 -248 m 83 0 l 83 1124 l 331 1124 l 331 168 l 589 168 l 589 0 l 83 0 z "},"ǉ":{"ha":764,"x_min":80,"x_max":696,"o":"m 468 938 l 468 1097 l 696 1097 l 696 938 l 468 938 m 368 -230 l 368 -68 q 408 -73 400 -73 q 469 -5 469 -73 l 469 803 l 696 803 l 696 -33 q 642 -189 696 -130 q 488 -248 588 -248 q 368 -230 429 -248 m 80 0 l 80 1124 l 307 1124 l 307 0 l 80 0 z "},"Ǌ":{"ha":1262,"x_min":83,"x_max":1179,"o":"m 795 -27 l 795 146 q 804 146 800 146 q 902 167 876 145 q 930 260 930 190 l 930 1124 l 1179 1124 l 1179 250 q 1165 129 1177 178 q 1123 43 1152 79 q 1042 -10 1093 7 q 916 -27 991 -27 l 795 -27 m 83 0 l 83 1124 l 258 1124 l 489 585 l 489 1124 l 695 1124 l 695 0 l 527 0 l 295 582 l 295 0 l 83 0 z "},"ǋ":{"ha":1160,"x_min":83,"x_max":1093,"o":"m 865 938 l 865 1097 l 1093 1097 l 1093 938 l 865 938 m 764 -230 l 764 -68 q 804 -73 797 -73 q 866 -5 866 -73 l 866 803 l 1093 803 l 1093 -33 q 1039 -189 1093 -130 q 884 -248 985 -248 q 764 -230 826 -248 m 83 0 l 83 1124 l 258 1124 l 489 585 l 489 1124 l 695 1124 l 695 0 l 527 0 l 295 582 l 295 0 l 83 0 z "},"ǌ":{"ha":1088,"x_min":71,"x_max":1020,"o":"m 792 938 l 792 1097 l 1020 1097 l 1020 938 l 792 938 m 692 -230 l 692 -68 q 732 -73 724 -73 q 793 -5 793 -73 l 793 803 l 1020 803 l 1020 -33 q 966 -189 1020 -130 q 812 -248 912 -248 q 692 -230 753 -248 m 71 0 l 71 803 l 297 803 l 297 723 q 492 817 393 817 q 601 764 563 817 q 639 630 639 712 l 639 0 l 412 0 l 412 596 q 403 641 412 627 q 368 655 393 656 q 297 627 339 655 l 297 0 l 71 0 z "},"Ǳ":{"ha":1411,"x_min":83,"x_max":1374,"o":"m 853 0 l 853 151 l 1126 956 l 864 956 l 864 1124 l 1372 1124 l 1372 987 l 1092 168 l 1374 168 l 1374 0 l 853 0 m 83 0 l 83 1124 l 366 1124 q 549 1105 476 1124 q 665 1040 622 1085 q 726 931 709 996 q 744 768 744 866 l 744 363 q 726 198 744 264 q 665 86 708 132 q 550 20 622 41 q 369 0 477 0 l 83 0 m 331 172 l 369 172 q 417 176 397 172 q 451 189 437 180 q 472 209 464 199 q 483 240 479 220 q 488 278 487 260 q 489 326 489 296 l 489 810 q 486 876 489 852 q 470 918 482 899 q 434 944 458 937 q 368 951 410 951 l 331 951 l 331 172 z "},"ǲ":{"ha":1354,"x_min":83,"x_max":1318,"o":"m 859 0 l 859 146 l 1080 637 l 876 637 l 876 803 l 1315 803 l 1315 665 l 1095 166 l 1318 166 l 1318 0 l 859 0 m 83 0 l 83 1124 l 366 1124 q 549 1105 476 1124 q 665 1040 622 1085 q 726 931 709 996 q 744 768 744 866 l 744 363 q 726 198 744 264 q 665 86 708 132 q 550 20 622 41 q 369 0 477 0 l 83 0 m 331 172 l 369 172 q 417 176 397 172 q 451 189 437 180 q 472 209 464 199 q 483 240 479 220 q 488 278 487 260 q 489 326 489 296 l 489 810 q 486 876 489 852 q 470 918 482 899 q 434 944 458 937 q 368 951 410 951 l 331 951 l 331 172 z "},"ǳ":{"ha":1242,"x_min":59,"x_max":1206,"o":"m 747 0 l 747 146 l 968 637 l 764 637 l 764 803 l 1203 803 l 1203 665 l 983 166 l 1206 166 l 1206 0 l 747 0 m 343 132 q 402 151 367 132 l 402 656 q 345 674 372 674 q 300 650 315 674 q 286 587 286 626 l 286 221 q 300 157 286 182 q 343 132 313 132 m 245 -14 q 107 49 155 -14 q 59 236 59 112 l 59 562 q 107 747 59 677 q 245 817 155 817 q 402 753 329 817 l 402 1124 l 629 1124 l 629 0 l 402 0 l 402 61 q 245 -14 326 -14 z "},"Ǵ":{"ha":807,"x_min":67,"x_max":736,"o":"m 331 1223 l 416 1502 l 648 1502 l 473 1223 l 331 1223 m 376 -16 q 230 11 291 -16 q 134 92 170 39 q 83 214 99 144 q 67 374 67 283 l 67 747 q 78 881 67 822 q 112 989 88 940 q 175 1072 136 1039 q 271 1122 214 1104 q 405 1140 329 1140 q 534 1124 478 1140 q 628 1081 591 1109 q 690 1011 666 1053 q 724 921 713 970 q 734 810 734 871 l 734 739 l 491 739 l 491 829 q 490 871 491 855 q 485 907 489 888 q 472 938 480 927 q 447 957 463 949 q 408 964 431 964 q 368 956 385 964 q 342 934 351 947 q 329 901 334 922 q 322 862 323 880 q 321 820 321 845 l 321 305 q 341 199 321 238 q 414 160 361 160 q 512 310 512 160 l 512 436 l 410 436 l 410 585 l 736 585 l 736 0 l 572 0 l 557 94 q 376 -16 508 -16 z "},"ǵ":{"ha":693,"x_min":35,"x_max":712,"o":"m 302 934 l 388 1213 l 620 1213 l 444 934 l 302 934 m 343 384 q 393 416 382 384 q 405 532 405 448 q 394 650 405 619 q 342 681 384 681 q 318 677 328 681 q 301 663 308 673 q 291 643 294 653 q 285 613 287 633 q 283 577 283 593 q 283 532 283 562 q 285 468 283 492 q 293 423 287 444 q 311 393 298 402 q 343 384 323 384 m 372 -99 q 454 -87 428 -99 q 482 -49 479 -76 q 483 -35 483 -42 q 468 3 483 -9 q 399 24 449 19 l 277 39 q 245 -41 245 -8 q 274 -85 245 -71 q 372 -99 302 -99 m 373 -241 q 314 -240 340 -241 q 251 -235 287 -239 q 186 -226 214 -232 q 128 -208 157 -220 q 79 -181 98 -197 q 47 -141 60 -165 q 35 -88 35 -117 q 149 71 35 -8 q 76 111 99 90 q 49 161 53 133 q 47 183 47 172 q 66 242 47 216 q 146 321 91 277 q 59 521 59 385 q 132 744 59 671 q 338 817 205 817 q 522 747 467 817 q 630 836 572 806 l 660 851 l 712 741 q 648 715 692 734 q 578 680 604 695 q 618 522 618 618 q 552 320 618 393 q 354 248 487 248 q 285 255 322 248 q 226 272 248 262 q 201 222 201 240 q 202 216 201 219 q 276 186 205 196 q 362 174 295 182 q 450 163 429 165 q 613 101 566 147 q 661 -31 661 56 q 646 -116 661 -79 q 600 -182 632 -153 q 510 -226 567 -211 q 373 -241 453 -241 z "},"Ȁ":{"ha":764,"x_min":29,"x_max":734,"o":"m 442 1223 l 317 1509 l 481 1509 l 564 1223 l 442 1223 m 201 1223 l 60 1509 l 235 1509 l 323 1223 l 201 1223 m 324 387 l 444 387 l 384 823 l 324 387 m 29 0 l 242 1124 l 523 1124 l 734 0 l 505 0 l 467 239 l 302 239 l 264 0 l 29 0 z "},"ȁ":{"ha":662,"x_min":8,"x_max":611,"o":"m 391 899 l 265 1185 l 430 1185 l 512 899 l 391 899 m 149 899 l 8 1185 l 183 1185 l 271 899 l 149 899 m 318 142 q 352 153 334 142 q 380 180 369 164 l 380 399 q 291 323 326 372 q 256 227 256 274 q 273 165 256 188 q 318 142 291 142 m 236 -14 q 100 46 151 -13 q 50 182 50 106 q 59 255 50 221 q 83 315 69 290 q 122 363 97 340 q 168 402 147 387 q 221 433 188 416 q 275 458 255 450 q 331 479 296 466 q 380 498 366 492 l 380 578 q 370 630 380 612 q 332 648 359 648 q 283 585 286 648 l 278 526 l 66 534 q 67 547 66 536 q 68 560 68 559 q 150 754 78 692 q 354 817 221 817 q 535 751 473 817 q 597 575 597 685 l 597 201 q 611 0 597 124 l 410 0 q 391 114 392 98 q 335 22 374 59 q 236 -14 296 -14 z "},"Ȃ":{"ha":764,"x_min":29,"x_max":734,"o":"m 203 1223 q 249 1352 203 1305 q 382 1398 296 1398 q 514 1352 467 1398 q 560 1223 560 1306 l 461 1223 q 443 1286 461 1266 q 382 1305 425 1305 q 320 1286 338 1305 q 302 1223 302 1266 l 203 1223 m 324 387 l 444 387 l 384 823 l 324 387 m 29 0 l 242 1124 l 523 1124 l 734 0 l 505 0 l 467 239 l 302 239 l 264 0 l 29 0 z "},"ȃ":{"ha":662,"x_min":50,"x_max":611,"o":"m 151 899 q 198 1028 151 982 q 330 1074 244 1074 q 462 1028 416 1074 q 509 899 509 983 l 410 899 q 392 962 410 943 q 330 982 374 982 q 269 962 287 982 q 250 899 250 943 l 151 899 m 318 142 q 352 153 334 142 q 380 180 369 164 l 380 399 q 291 323 326 372 q 256 227 256 274 q 273 165 256 188 q 318 142 291 142 m 236 -14 q 100 46 151 -13 q 50 182 50 106 q 59 255 50 221 q 83 315 69 290 q 122 363 97 340 q 168 402 147 387 q 221 433 188 416 q 275 458 255 450 q 331 479 296 466 q 380 498 366 492 l 380 578 q 370 630 380 612 q 332 648 359 648 q 283 585 286 648 l 278 526 l 66 534 q 67 547 66 536 q 68 560 68 559 q 150 754 78 692 q 354 817 221 817 q 535 751 473 817 q 597 575 597 685 l 597 201 q 611 0 597 124 l 410 0 q 391 114 392 98 q 335 22 374 59 q 236 -14 296 -14 z "},"Ȅ":{"ha":621,"x_min":14,"x_max":591,"o":"m 397 1223 l 271 1509 l 436 1509 l 518 1223 l 397 1223 m 155 1223 l 14 1509 l 189 1509 l 277 1223 l 155 1223 m 83 0 l 83 1124 l 588 1124 l 588 955 l 331 955 l 331 677 l 527 677 l 527 504 l 331 504 l 331 168 l 591 168 l 591 0 l 83 0 z "},"ȅ":{"ha":652,"x_min":5,"x_max":600,"o":"m 388 899 l 262 1185 l 427 1185 l 509 899 l 388 899 m 146 899 l 5 1185 l 180 1185 l 269 899 l 146 899 m 279 493 l 390 493 l 390 573 q 375 636 390 618 q 332 655 360 655 q 293 633 306 655 q 279 559 279 612 l 279 493 m 333 -14 q 127 57 200 -14 q 55 258 55 128 l 55 545 q 128 746 55 675 q 333 817 201 817 q 533 748 467 817 q 600 545 600 679 l 600 387 l 279 387 l 279 246 q 292 173 279 197 q 333 148 304 148 q 390 226 390 148 l 390 279 l 600 279 l 600 233 q 530 49 600 113 q 333 -14 460 -14 z "},"Ȇ":{"ha":621,"x_min":83,"x_max":591,"o":"m 158 1223 q 204 1352 158 1305 q 337 1398 251 1398 q 469 1352 422 1398 q 515 1223 515 1306 l 416 1223 q 398 1286 416 1266 q 337 1305 380 1305 q 275 1286 294 1305 q 257 1223 257 1266 l 158 1223 m 83 0 l 83 1124 l 588 1124 l 588 955 l 331 955 l 331 677 l 527 677 l 527 504 l 331 504 l 331 168 l 591 168 l 591 0 l 83 0 z "},"ȇ":{"ha":652,"x_min":55,"x_max":600,"o":"m 149 899 q 195 1028 149 982 q 328 1074 241 1074 q 459 1028 413 1074 q 506 899 506 983 l 407 899 q 389 962 407 943 q 328 982 371 982 q 266 962 284 982 q 248 899 248 943 l 149 899 m 279 493 l 390 493 l 390 573 q 375 636 390 618 q 332 655 360 655 q 293 633 306 655 q 279 559 279 612 l 279 493 m 333 -14 q 127 57 200 -14 q 55 258 55 128 l 55 545 q 128 746 55 675 q 333 817 201 817 q 533 748 467 817 q 600 545 600 679 l 600 387 l 279 387 l 279 246 q 292 173 279 197 q 333 148 304 148 q 390 226 390 148 l 390 279 l 600 279 l 600 233 q 530 49 600 113 q 333 -14 460 -14 z "},"Ȉ":{"ha":417,"x_min":-114,"x_max":390,"o":"m 269 1223 l 143 1509 l 308 1509 l 390 1223 l 269 1223 m 27 1223 l -114 1509 l 61 1509 l 149 1223 l 27 1223 m 85 0 l 85 1124 l 333 1124 l 333 0 l 85 0 z "},"ȉ":{"ha":389,"x_min":-127,"x_max":376,"o":"m 255 899 l 130 1185 l 294 1185 l 376 899 l 255 899 m 14 899 l -127 1185 l 47 1185 l 136 899 l 14 899 m 82 0 l 82 803 l 309 803 l 309 0 l 82 0 z "},"Ȋ":{"ha":417,"x_min":31,"x_max":388,"o":"m 31 1223 q 77 1352 31 1305 q 210 1398 123 1398 q 341 1352 295 1398 q 388 1223 388 1306 l 289 1223 q 271 1286 289 1266 q 210 1305 253 1305 q 148 1286 166 1305 q 130 1223 130 1266 l 31 1223 m 85 0 l 85 1124 l 333 1124 l 333 0 l 85 0 z "},"ȋ":{"ha":389,"x_min":17,"x_max":374,"o":"m 17 899 q 63 1028 17 982 q 196 1074 110 1074 q 328 1028 281 1074 q 374 899 374 983 l 275 899 q 257 962 275 943 q 196 982 239 982 q 134 962 153 982 q 116 899 116 943 l 17 899 m 82 0 l 82 803 l 309 803 l 309 0 l 82 0 z "},"Ȍ":{"ha":812,"x_min":67,"x_max":746,"o":"m 467 1223 l 341 1509 l 506 1509 l 588 1223 l 467 1223 m 225 1223 l 84 1509 l 259 1509 l 347 1223 l 225 1223 m 406 -16 q 246 9 312 -16 q 141 83 180 34 q 84 199 102 132 q 67 355 67 265 l 67 770 q 84 927 67 861 q 141 1042 102 994 q 246 1116 180 1091 q 406 1140 312 1140 q 667 1047 588 1140 q 746 770 746 954 l 746 355 q 667 78 746 172 q 406 -16 588 -16 m 367 168 q 375 164 367 168 q 406 160 383 160 q 444 168 428 160 q 469 188 460 176 q 483 218 478 199 q 490 254 488 237 q 491 294 491 271 l 491 833 q 490 872 491 855 q 483 907 488 888 q 469 937 478 926 q 444 957 460 949 q 406 964 428 964 q 367 957 383 964 q 342 938 351 949 q 329 907 334 926 q 323 872 324 888 q 322 833 322 857 l 322 294 q 323 254 322 270 q 329 219 324 238 q 342 188 334 199 q 367 168 351 176 z "},"ȍ":{"ha":671,"x_min":13,"x_max":616,"o":"m 395 899 l 270 1185 l 435 1185 l 517 899 l 395 899 m 154 899 l 13 1185 l 188 1185 l 276 899 l 154 899 m 541 54 q 503 20 541 54 q 334 -14 466 -14 q 129 54 203 -14 q 55 250 55 121 l 55 553 q 129 749 55 682 q 334 817 203 817 q 541 749 466 817 q 616 553 616 681 l 616 250 q 541 54 616 121 m 334 138 q 379 162 367 138 q 392 234 392 186 l 392 568 q 379 641 392 617 q 334 665 367 665 q 291 641 303 665 q 278 568 278 616 l 278 234 q 291 162 278 187 q 334 138 303 138 z "},"Ȏ":{"ha":812,"x_min":67,"x_max":746,"o":"m 228 1223 q 274 1352 228 1305 q 407 1398 321 1398 q 539 1352 492 1398 q 585 1223 585 1306 l 486 1223 q 468 1286 486 1266 q 407 1305 450 1305 q 345 1286 363 1305 q 327 1223 327 1266 l 228 1223 m 406 -16 q 246 9 312 -16 q 141 83 180 34 q 84 199 102 132 q 67 355 67 265 l 67 770 q 84 927 67 861 q 141 1042 102 994 q 246 1116 180 1091 q 406 1140 312 1140 q 667 1047 588 1140 q 746 770 746 954 l 746 355 q 667 78 746 172 q 406 -16 588 -16 m 367 168 q 375 164 367 168 q 406 160 383 160 q 444 168 428 160 q 469 188 460 176 q 483 218 478 199 q 490 254 488 237 q 491 294 491 271 l 491 833 q 490 872 491 855 q 483 907 488 888 q 469 937 478 926 q 444 957 460 949 q 406 964 428 964 q 367 957 383 964 q 342 938 351 949 q 329 907 334 926 q 323 872 324 888 q 322 833 322 857 l 322 294 q 323 254 322 270 q 329 219 324 238 q 342 188 334 199 q 367 168 351 176 z "},"ȏ":{"ha":671,"x_min":55,"x_max":616,"o":"m 157 899 q 203 1028 157 982 q 336 1074 250 1074 q 468 1028 421 1074 q 514 899 514 983 l 415 899 q 397 962 415 943 q 336 982 379 982 q 274 962 292 982 q 256 899 256 943 l 157 899 m 541 54 q 503 20 541 54 q 334 -14 466 -14 q 129 54 203 -14 q 55 250 55 121 l 55 553 q 129 749 55 682 q 334 817 203 817 q 541 749 466 817 q 616 553 616 681 l 616 250 q 541 54 616 121 m 334 138 q 379 162 367 138 q 392 234 392 186 l 392 568 q 379 641 392 617 q 334 665 367 665 q 291 641 303 665 q 278 568 278 616 l 278 234 q 291 162 278 187 q 334 138 303 138 z "},"Ȑ":{"ha":830,"x_min":83,"x_max":781,"o":"m 492 1223 l 367 1509 l 532 1509 l 614 1223 l 492 1223 m 251 1223 l 110 1509 l 285 1509 l 373 1223 l 251 1223 m 331 646 l 395 646 q 502 686 471 646 q 533 804 533 725 q 505 920 533 882 q 408 958 477 958 l 331 958 l 331 646 m 83 0 l 83 1124 l 389 1124 q 515 1116 460 1124 q 618 1088 570 1108 q 698 1034 667 1067 q 747 949 729 1001 q 764 827 764 897 q 734 649 764 716 q 627 545 705 582 l 781 0 l 524 0 l 401 503 l 331 503 l 331 0 l 83 0 z "},"ȑ":{"ha":515,"x_min":-39,"x_max":492,"o":"m 343 899 l 218 1185 l 382 1185 l 465 899 l 343 899 m 102 899 l -39 1185 l 136 1185 l 224 899 l 102 899 m 73 0 l 73 803 l 300 803 l 300 669 q 460 813 374 813 q 492 808 473 813 l 492 607 q 455 612 473 612 q 300 515 362 607 l 300 0 l 73 0 z "},"Ȓ":{"ha":830,"x_min":83,"x_max":781,"o":"m 253 1223 q 299 1352 253 1305 q 432 1398 346 1398 q 564 1352 517 1398 q 610 1223 610 1306 l 511 1223 q 493 1286 511 1266 q 432 1305 475 1305 q 370 1286 389 1305 q 352 1223 352 1266 l 253 1223 m 331 646 l 395 646 q 502 686 471 646 q 533 804 533 725 q 505 920 533 882 q 408 958 477 958 l 331 958 l 331 646 m 83 0 l 83 1124 l 389 1124 q 515 1116 460 1124 q 618 1088 570 1108 q 698 1034 667 1067 q 747 949 729 1001 q 764 827 764 897 q 734 649 764 716 q 627 545 705 582 l 781 0 l 524 0 l 401 503 l 331 503 l 331 0 l 83 0 z "},"ȓ":{"ha":515,"x_min":73,"x_max":492,"o":"m 104 899 q 150 1028 104 982 q 283 1074 197 1074 q 415 1028 368 1074 q 461 899 461 983 l 362 899 q 344 962 362 943 q 283 982 326 982 q 221 962 239 982 q 203 899 203 943 l 104 899 m 73 0 l 73 803 l 300 803 l 300 669 q 460 813 374 813 q 492 808 473 813 l 492 607 q 455 612 473 612 q 300 515 362 607 l 300 0 l 73 0 z "},"Ȕ":{"ha":815,"x_min":75,"x_max":740,"o":"m 468 1223 l 342 1509 l 507 1509 l 589 1223 l 468 1223 m 227 1223 l 85 1509 l 260 1509 l 349 1223 l 227 1223 m 408 -16 q 274 0 331 -16 q 179 45 216 16 q 118 121 141 75 q 85 223 94 168 q 75 354 75 279 l 75 1124 l 321 1124 l 321 317 q 322 272 321 291 q 329 232 323 254 q 342 196 334 210 q 368 173 351 182 q 408 164 385 164 q 447 173 431 164 q 472 196 463 182 q 486 232 481 210 q 492 273 491 254 q 494 317 494 292 l 494 1124 l 740 1124 l 740 354 q 724 195 740 260 q 671 80 708 129 q 568 8 633 31 q 408 -16 503 -16 z "},"ȕ":{"ha":699,"x_min":23,"x_max":627,"o":"m 406 899 l 280 1185 l 445 1185 l 527 899 l 406 899 m 164 899 l 23 1185 l 198 1185 l 286 899 l 164 899 m 211 -14 q 102 39 140 -14 q 64 173 64 91 l 64 803 l 290 803 l 290 200 q 301 155 290 170 q 336 140 311 140 q 401 165 363 141 l 401 803 l 627 803 l 627 0 l 401 0 l 401 74 q 211 -14 308 -14 z "},"Ȗ":{"ha":815,"x_min":75,"x_max":740,"o":"m 229 1223 q 275 1352 229 1305 q 408 1398 321 1398 q 539 1352 493 1398 q 586 1223 586 1306 l 487 1223 q 469 1286 487 1266 q 408 1305 451 1305 q 346 1286 364 1305 q 328 1223 328 1266 l 229 1223 m 408 -16 q 274 0 331 -16 q 179 45 216 16 q 118 121 141 75 q 85 223 94 168 q 75 354 75 279 l 75 1124 l 321 1124 l 321 317 q 322 272 321 291 q 329 232 323 254 q 342 196 334 210 q 368 173 351 182 q 408 164 385 164 q 447 173 431 164 q 472 196 463 182 q 486 232 481 210 q 492 273 491 254 q 494 317 494 292 l 494 1124 l 740 1124 l 740 354 q 724 195 740 260 q 671 80 708 129 q 568 8 633 31 q 408 -16 503 -16 z "},"ȗ":{"ha":699,"x_min":64,"x_max":627,"o":"m 167 899 q 213 1028 167 982 q 346 1074 260 1074 q 478 1028 431 1074 q 524 899 524 983 l 425 899 q 407 962 425 943 q 346 982 389 982 q 284 962 302 982 q 266 899 266 943 l 167 899 m 211 -14 q 102 39 140 -14 q 64 173 64 91 l 64 803 l 290 803 l 290 200 q 301 155 290 170 q 336 140 311 140 q 401 165 363 141 l 401 803 l 627 803 l 627 0 l 401 0 l 401 74 q 211 -14 308 -14 z "},"Ș":{"ha":713,"x_min":58,"x_max":676,"o":"m 298 -496 l 279 -420 q 351 -389 324 -413 q 378 -310 378 -364 l 260 -310 l 260 -98 l 474 -98 l 473 -280 q 298 -496 473 -496 m 381 -16 q 143 70 221 -16 q 58 341 64 155 l 271 374 q 297 220 273 268 q 369 172 321 172 q 432 254 432 172 q 416 337 432 299 q 376 403 399 376 q 309 467 352 430 l 210 553 q 150 610 174 584 q 103 671 126 635 q 70 750 81 707 q 59 846 59 793 q 143 1063 59 986 q 374 1140 227 1139 q 465 1129 424 1140 q 534 1101 506 1118 q 584 1056 562 1083 q 617 1003 605 1029 q 638 942 630 976 q 650 881 647 909 q 654 821 653 853 l 439 793 q 438 841 439 822 q 434 880 437 859 q 427 914 431 901 q 414 938 422 927 q 394 954 406 949 q 366 958 382 959 q 316 931 334 958 q 299 871 299 904 q 307 813 299 839 q 334 762 315 787 q 366 726 353 738 q 406 688 378 713 l 502 604 q 570 536 541 568 q 624 463 598 504 q 663 373 650 422 q 676 267 676 323 q 595 65 676 145 q 381 -16 513 -16 z "},"ș":{"ha":587,"x_min":26,"x_max":562,"o":"m 226 -495 l 207 -418 q 278 -387 252 -412 q 305 -309 305 -363 l 188 -309 l 188 -97 l 401 -97 l 401 -279 q 226 -495 401 -494 m 306 -14 q 136 34 203 -14 q 26 188 68 83 l 183 256 q 237 168 206 199 q 296 140 265 140 q 302 140 299 140 q 338 156 323 141 q 351 194 352 172 q 343 219 351 205 q 313 253 335 232 q 283 281 292 273 q 244 314 275 288 l 182 368 q 45 593 45 483 q 80 710 45 658 q 170 789 114 762 q 292 817 227 817 q 457 763 391 817 q 550 610 523 709 l 404 542 q 364 622 390 587 q 306 659 338 656 q 304 659 304 659 q 266 646 279 659 q 250 612 251 632 q 347 496 248 579 q 359 486 355 489 l 419 431 q 472 384 454 401 q 515 336 490 366 q 551 273 540 305 q 562 205 562 241 q 526 85 562 136 q 432 10 489 35 q 306 -14 374 -14 z "},"Ț":{"ha":620,"x_min":14,"x_max":606,"o":"m 241 -481 l 222 -404 q 293 -373 267 -397 q 320 -294 320 -349 l 203 -294 l 203 -83 l 416 -83 l 416 -264 q 241 -481 416 -480 m 186 0 l 186 941 l 14 941 l 14 1124 l 606 1124 l 606 941 l 435 941 l 435 0 l 186 0 z "},"ț":{"ha":491,"x_min":18,"x_max":456,"o":"m 168 -491 l 149 -414 q 220 -383 193 -408 q 247 -304 247 -359 l 130 -304 l 130 -93 l 343 -93 l 342 -275 q 168 -491 342 -490 m 298 -9 q 231 1 261 -8 q 180 24 201 10 q 143 60 159 39 q 118 105 127 82 q 104 159 109 128 q 96 217 98 189 q 94 281 94 245 l 94 655 l 18 655 l 18 803 l 94 803 l 94 1046 l 323 1046 l 323 803 l 438 803 l 438 655 l 323 655 l 323 240 q 395 175 323 177 q 415 175 404 174 q 434 177 427 176 q 448 179 441 178 q 456 180 455 180 l 456 2 q 321 -10 383 -10 q 298 -9 310 -10 z "},"ȷ":{"ha":374,"x_min":-16,"x_max":312,"o":"m -16 -236 l -16 -73 q 24 -79 9 -79 q 85 -12 85 -79 l 85 803 l 312 803 l 312 -39 q 258 -195 312 -136 q 104 -254 205 -254 q -16 -236 48 -254 z "},"ʼ":{"ha":536,"x_min":178,"x_max":364,"o":"m 178 708 l 178 1124 l 364 1124 l 288 708 l 178 708 z "},"ˆ":{"ha":562,"x_min":61,"x_max":513,"o":"m 61 853 l 192 1124 l 378 1124 l 513 853 l 347 853 l 287 1023 l 227 853 l 61 853 z "},"ˇ":{"ha":558,"x_min":48,"x_max":509,"o":"m 168 867 l 48 1124 l 208 1124 l 277 973 l 349 1124 l 509 1124 l 386 867 l 168 867 z "},"˘":{"ha":452,"x_min":38,"x_max":395,"o":"m 216 949 q 84 996 131 949 q 38 1124 38 1042 l 137 1124 q 155 1062 137 1081 q 216 1042 173 1042 q 278 1062 260 1042 q 296 1124 296 1082 l 395 1124 q 349 996 395 1042 q 216 949 302 949 z "},"˙":{"ha":357,"x_min":-107,"x_max":108,"o":"m -107 83 l -107 296 l 108 296 l 108 83 l -107 83 z "},"˚":{"ha":112,"x_min":-111,"x_max":216,"o":"m 1 935 q 10 924 1 935 q 52 913 19 913 q 102 935 84 913 q 121 987 121 956 q 102 1040 121 1019 q 52 1061 84 1061 q 1 1040 19 1061 q -18 987 -18 1019 q 1 935 -18 956 m 52 833 q -64 873 -18 833 q -111 987 -111 914 q -64 1100 -111 1060 q 52 1141 -18 1141 q 169 1100 122 1141 q 216 987 216 1059 q 169 873 216 914 q 52 833 122 833 z "},"˛":{"ha":366,"x_min":14,"x_max":304,"o":"m 282 -349 q 258 -349 270 -349 q 233 -349 245 -349 q 224 -349 229 -349 q 182 -346 203 -349 q 131 -337 156 -342 q 85 -321 106 -332 q 48 -294 64 -309 q 23 -255 32 -279 q 14 -201 14 -231 q 45 -85 14 -145 q 124 12 77 -26 l 227 12 q 207 -43 222 -7 q 182 -110 191 -79 q 173 -168 173 -140 q 176 -189 173 -180 q 182 -205 178 -199 q 194 -218 186 -212 q 207 -227 201 -223 q 224 -232 213 -230 q 240 -236 235 -235 q 258 -238 246 -237 q 275 -239 271 -239 q 291 -239 279 -239 q 304 -239 302 -239 l 282 -349 z "},"˜":{"ha":592,"x_min":81,"x_max":522,"o":"m 429 928 q 422 928 425 928 q 360 942 395 928 q 283 976 320 958 q 228 994 247 994 q 189 937 189 994 l 81 937 q 81 945 81 941 q 89 1038 81 1001 q 124 1103 98 1077 q 196 1133 151 1130 q 208 1134 201 1134 q 270 1122 237 1134 q 339 1091 308 1107 q 382 1073 370 1074 q 389 1072 386 1072 q 421 1124 421 1072 l 522 1124 q 518 1055 522 1085 q 506 994 515 1024 q 477 947 497 964 q 429 928 458 930 z "},"˝":{"ha":608,"x_min":66,"x_max":598,"o":"m 312 825 l 401 1124 l 598 1124 l 430 825 l 312 825 m 66 825 l 147 1124 l 332 1124 l 182 825 l 66 825 z "},"̀":{"ha":317,"x_min":16,"x_max":332,"o":"m 191 845 l 16 1124 l 248 1124 l 332 845 l 191 845 z "},"́":{"ha":317,"x_min":41,"x_max":359,"o":"m 41 845 l 127 1124 l 359 1124 l 183 845 l 41 845 z "},"̂":{"ha":562,"x_min":61,"x_max":513,"o":"m 61 859 l 192 1124 l 378 1124 l 513 859 l 347 859 l 287 1023 l 227 859 l 61 859 z "},"̃":{"ha":592,"x_min":81,"x_max":522,"o":"m 429 928 q 422 928 425 928 q 360 942 395 928 q 283 976 320 958 q 228 994 247 994 q 189 937 189 994 l 81 937 q 81 945 81 941 q 89 1038 81 1001 q 124 1103 98 1077 q 196 1133 151 1130 q 208 1134 201 1134 q 270 1122 237 1134 q 339 1091 308 1107 q 382 1073 370 1074 q 389 1072 386 1072 q 421 1124 421 1072 l 522 1124 q 518 1055 522 1085 q 506 994 515 1024 q 477 947 497 964 q 429 928 458 930 z "},"̄":{"ha":248,"x_min":-59,"x_max":321,"o":"m -59 1018 l -59 1124 l 321 1124 l 321 1018 l -59 1018 z "},"̆":{"ha":452,"x_min":19,"x_max":414,"o":"m 362 996 q 336 972 362 996 q 216 949 310 949 q 71 996 123 949 q 19 1124 19 1042 l 119 1124 q 142 1062 119 1082 q 216 1042 165 1042 q 291 1062 267 1042 q 315 1124 315 1082 l 414 1124 q 362 996 414 1042 z "},"̇":{"ha":254,"x_min":24,"x_max":239,"o":"m 24 911 l 24 1124 l 239 1124 l 239 911 l 24 911 z "},"̈":{"ha":590,"x_min":54,"x_max":536,"o":"m 353 919 l 353 1124 l 536 1124 l 536 919 l 353 919 m 54 919 l 54 1124 l 237 1124 l 237 919 l 54 919 z "},"̊":{"ha":112,"x_min":-111,"x_max":216,"o":"m 1 935 q 10 924 1 935 q 52 913 19 913 q 102 935 84 913 q 121 987 121 956 q 102 1040 121 1019 q 52 1061 84 1061 q 1 1040 19 1061 q -18 987 -18 1019 q 1 935 -18 956 m 52 833 q -64 873 -18 833 q -111 987 -111 914 q -64 1100 -111 1060 q 52 1141 -18 1141 q 169 1100 122 1141 q 216 987 216 1059 q 169 873 216 914 q 52 833 122 833 z "},"̌":{"ha":424,"x_min":-2,"x_max":459,"o":"m 118 867 l -2 1124 l 158 1124 l 227 973 l 298 1124 l 459 1124 l 336 867 l 118 867 z "},"̏":{"ha":606,"x_min":46,"x_max":550,"o":"m 429 865 l 303 1151 l 468 1151 l 550 865 l 429 865 m 187 865 l 46 1151 l 221 1151 l 309 865 l 187 865 z "},"̑":{"ha":452,"x_min":37,"x_max":395,"o":"m 37 949 q 84 1078 37 1032 q 216 1124 130 1124 q 348 1079 302 1124 q 395 949 395 1033 l 296 949 q 278 1013 296 993 q 216 1032 260 1032 q 155 1013 173 1032 q 136 949 136 993 l 37 949 z "},"̦":{"ha":281,"x_min":29,"x_max":243,"o":"m 67 -445 l 48 -368 q 120 -337 93 -361 q 146 -258 146 -313 l 29 -258 l 29 -47 l 243 -47 l 242 -229 q 67 -445 242 -444 z "},"Π":{"ha":846,"x_min":72,"x_max":774,"o":"m 72 0 l 72 1124 l 774 1124 l 774 0 l 554 0 l 554 946 l 292 946 l 292 0 l 72 0 z "},"π":{"ha":821,"x_min":27,"x_max":777,"o":"m 340 654 l 340 0 l 113 0 l 113 654 l 27 654 l 27 803 l 777 803 l 777 654 l 682 654 l 682 286 q 683 225 682 246 q 689 186 684 204 q 703 160 693 168 q 729 149 713 153 q 770 145 744 145 l 760 -14 q 632 -5 686 -14 q 545 19 579 3 q 491 62 511 35 q 463 120 471 88 q 455 195 455 151 l 455 654 l 340 654 z "},"Ѐ":{"ha":621,"x_min":83,"x_max":591,"o":"m 266 1223 l 90 1502 l 323 1502 l 407 1223 l 266 1223 z "},"Ё":{"ha":621,"x_min":83,"x_max":591,"o":"m 395 1223 l 395 1428 l 578 1428 l 578 1223 l 395 1223 m 96 1223 l 96 1428 l 279 1428 l 279 1223 l 96 1223 z "},"Ђ":{"ha":873,"x_min":-8,"x_max":819,"o":"m 467 0 l 467 143 q 563 175 532 143 q 593 278 593 207 l 593 453 q 570 511 593 484 q 506 538 548 538 q 395 496 458 538 l 395 0 l 151 0 l 151 951 l -8 951 l -8 1124 l 589 1124 l 589 951 l 395 951 l 395 619 q 581 680 476 680 q 670 666 627 680 q 747 627 713 652 q 800 563 780 602 q 819 477 819 524 l 819 277 q 752 62 819 125 q 519 0 685 0 l 467 0 z "},"Ѓ":{"ha":640,"x_min":87,"x_max":606,"o":"m 276 1223 l 361 1502 l 593 1502 l 418 1223 l 276 1223 m 87 0 l 87 1124 l 606 1124 l 606 941 l 336 941 l 336 0 l 87 0 z "},"Є":{"ha":768,"x_min":67,"x_max":728,"o":"m 405 -16 q 244 11 311 -16 q 139 87 178 37 q 84 205 101 138 q 67 361 67 271 l 67 762 q 84 921 67 853 q 139 1039 101 988 q 244 1115 178 1089 q 405 1140 310 1140 q 560 1117 496 1140 q 660 1049 624 1094 q 712 947 696 1004 q 728 815 728 890 l 728 749 l 486 749 l 486 829 q 485 869 486 856 q 480 904 484 883 q 468 937 476 926 q 444 956 460 947 q 405 964 428 964 q 366 956 382 964 q 341 936 349 947 q 327 903 332 924 q 321 865 322 882 q 320 823 320 848 l 320 635 l 502 635 l 502 499 l 320 499 l 320 299 q 338 196 320 231 q 405 160 355 160 q 443 169 427 160 q 467 189 459 177 q 480 221 475 200 q 485 258 484 242 q 486 299 486 273 l 486 375 l 728 375 l 728 320 q 719 211 728 260 q 687 119 709 162 q 628 47 664 76 q 535 1 591 18 q 405 -16 479 -16 z "},"Ѕ":{"ha":713,"x_min":58,"x_max":676,"o":"m 381 -16 q 143 70 221 -16 q 58 341 64 155 l 271 374 q 297 220 273 268 q 369 172 321 172 q 432 254 432 172 q 416 337 432 299 q 376 403 399 376 q 309 467 352 430 l 210 553 q 150 610 174 584 q 103 671 126 635 q 70 750 81 707 q 59 846 59 793 q 143 1063 59 986 q 374 1140 227 1139 q 465 1129 424 1140 q 534 1101 506 1118 q 584 1056 562 1083 q 617 1003 605 1029 q 638 942 630 976 q 650 881 647 909 q 654 821 653 853 l 439 793 q 438 841 439 822 q 434 880 437 859 q 427 914 431 901 q 414 938 422 927 q 394 954 406 949 q 366 958 382 959 q 316 931 334 958 q 299 871 299 904 q 307 813 299 839 q 334 762 315 787 q 366 726 353 738 q 406 688 378 713 l 502 604 q 570 536 541 568 q 624 463 598 504 q 663 373 650 422 q 676 267 676 323 q 595 65 676 145 q 381 -16 513 -16 z "},"І":{"ha":386,"x_min":74,"x_max":322,"o":"m 74 0 l 74 1124 l 322 1124 l 322 0 l 74 0 z "},"Ї":{"ha":386,"x_min":-43,"x_max":439,"o":"m 256 1223 l 256 1428 l 439 1428 l 439 1223 l 256 1223 m -43 1223 l -43 1428 l 140 1428 l 140 1223 l -43 1223 m 74 0 l 74 1124 l 322 1124 l 322 0 l 74 0 z "},"Ј":{"ha":452,"x_min":6,"x_max":390,"o":"m 6 -27 l 6 146 q 15 146 10 146 q 113 167 85 145 q 142 260 141 190 l 142 1124 l 390 1124 l 390 250 q 376 129 389 178 q 333 43 363 79 q 253 -10 304 7 q 127 -27 202 -27 l 6 -27 z "},"Љ":{"ha":1232,"x_min":14,"x_max":1202,"o":"m 826 164 l 847 164 q 945 203 917 164 q 972 319 972 240 q 972 331 972 325 q 943 440 970 402 q 844 478 915 478 l 826 478 l 826 164 m 14 0 l 14 175 q 28 175 22 175 q 87 180 64 175 q 134 213 113 187 q 164 283 154 238 q 179 406 174 328 l 229 1124 l 826 1124 l 826 650 l 867 650 q 1117 571 1032 650 q 1202 326 1202 493 q 1184 187 1202 246 q 1135 93 1166 128 q 1057 36 1104 58 q 960 7 1010 15 q 845 0 910 0 l 577 0 l 577 935 l 454 935 l 420 401 q 375 157 410 244 q 276 34 340 70 q 109 -1 214 -1 q 101 -1 105 -1 l 14 0 z "},"Њ":{"ha":1158,"x_min":87,"x_max":1116,"o":"m 743 164 l 760 164 q 859 203 830 164 q 886 316 886 239 q 886 331 886 323 q 856 440 884 402 q 758 478 829 478 l 743 478 l 743 164 m 759 0 l 494 1 l 494 477 l 336 477 l 336 1 l 87 1 l 87 1126 l 336 1126 l 336 665 l 494 665 l 494 1126 l 743 1126 l 743 650 l 781 650 q 1031 571 946 650 q 1116 326 1116 493 q 1098 187 1116 246 q 1049 93 1080 128 q 971 36 1018 58 q 874 7 924 15 q 759 0 824 0 z "},"Ћ":{"ha":820,"x_min":9,"x_max":747,"o":"m 159 0 l 159 941 l 9 941 l 9 1124 l 565 1124 l 565 941 l 407 941 l 407 629 q 432 639 416 633 q 492 656 448 646 q 576 667 536 667 q 702 625 656 667 q 747 513 747 583 l 747 0 l 521 0 l 521 486 q 511 523 521 511 q 477 534 502 535 q 407 513 450 534 l 407 0 l 159 0 z "},"Ќ":{"ha":795,"x_min":87,"x_max":779,"o":"m 363 1223 l 448 1502 l 680 1502 l 505 1223 l 363 1223 m 87 0 l 87 1124 l 336 1124 l 336 677 l 360 677 l 526 1124 l 772 1124 l 568 597 l 779 0 l 524 0 l 360 492 l 336 492 l 336 0 l 87 0 z "},"Ѝ":{"ha":819,"x_min":87,"x_max":731,"o":"m 339 1223 l 163 1502 l 396 1502 l 480 1223 l 339 1223 m 87 0 l 87 1124 l 284 1124 l 284 483 l 570 1124 l 731 1124 l 731 0 l 531 0 l 531 654 l 239 0 l 87 0 z "},"Ў":{"ha":764,"x_min":30,"x_max":749,"o":"m 535 1269 q 509 1246 535 1269 q 389 1223 483 1223 q 244 1269 296 1223 q 192 1398 192 1315 l 292 1398 q 315 1335 292 1355 q 389 1316 338 1316 q 464 1336 440 1316 q 488 1398 488 1356 l 587 1398 q 535 1269 587 1315 m 73 -222 l 73 -57 q 100 -58 87 -58 q 251 -23 203 -58 q 288 58 287 3 q 280 113 288 83 l 30 1124 l 260 1124 l 356 665 l 401 361 l 435 665 l 515 1124 l 749 1124 l 517 79 q 486 -33 503 13 q 445 -113 470 -78 q 389 -169 419 -149 q 311 -203 358 -190 q 208 -220 264 -216 q 114 -222 168 -222 q 73 -222 94 -222 z "},"Џ":{"ha":831,"x_min":83,"x_max":749,"o":"m 329 -243 l 319 0 l 83 0 l 83 1124 l 331 1124 l 331 188 l 500 188 l 500 1124 l 749 1124 l 749 0 l 517 0 l 508 -243 l 329 -243 z "},"А":{"ha":764,"x_min":29,"x_max":734,"o":"m 324 387 l 444 387 l 384 823 l 324 387 m 29 0 l 242 1124 l 523 1124 l 734 0 l 505 0 l 467 239 l 302 239 l 264 0 l 29 0 z "},"Б":{"ha":768,"x_min":87,"x_max":720,"o":"m 336 164 l 365 164 q 464 203 435 164 q 490 319 491 240 q 490 331 490 325 q 461 440 488 402 q 362 478 433 478 l 336 478 l 336 164 m 87 0 l 87 1124 l 645 1124 l 645 936 l 336 936 l 336 650 l 385 650 q 635 571 551 650 q 720 326 720 493 q 711 222 720 269 q 685 141 701 175 q 643 83 668 108 q 588 42 617 58 q 522 17 559 26 q 447 4 484 7 q 363 0 409 0 l 87 0 z "},"В":{"ha":818,"x_min":87,"x_max":773,"o":"m 336 675 l 383 675 q 492 711 463 675 q 522 825 522 747 q 376 958 522 958 l 336 958 l 336 675 m 336 174 l 388 174 q 501 213 469 174 q 534 337 534 252 q 500 471 534 432 q 385 511 467 511 l 336 511 l 336 174 m 87 0 l 87 1124 l 380 1124 q 493 1118 444 1124 q 590 1093 542 1112 q 670 1042 639 1074 q 721 956 702 1010 q 739 840 739 906 q 739 830 739 835 q 573 604 734 633 q 721 523 670 591 q 773 334 772 454 q 773 323 773 329 q 688 81 773 160 q 433 0 600 0 l 87 0 z "},"Г":{"ha":640,"x_min":87,"x_max":606,"o":"m 87 0 l 87 1124 l 606 1124 l 606 941 l 336 941 l 336 0 l 87 0 z "},"Д":{"ha":963,"x_min":24,"x_max":939,"o":"m 291 178 l 578 178 l 578 948 l 475 948 l 463 709 q 449 557 458 626 q 432 441 441 489 q 408 353 422 393 q 382 289 393 312 q 352 241 371 265 q 322 207 333 217 q 291 178 311 196 m 24 -243 l 24 178 l 58 178 q 150 253 112 196 q 217 430 189 310 q 258 736 245 549 l 287 1124 l 810 1124 l 810 178 l 939 178 l 939 -243 l 773 -243 l 760 0 l 211 0 l 197 -243 l 24 -243 z "},"Е":{"ha":621,"x_min":83,"x_max":591,"o":"m 83 0 l 83 1124 l 588 1124 l 588 955 l 331 955 l 331 677 l 527 677 l 527 504 l 331 504 l 331 168 l 591 168 l 591 0 l 83 0 z "},"Ж":{"ha":1102,"x_min":7,"x_max":1095,"o":"m 7 0 l 243 565 l 14 1124 l 245 1124 l 441 597 l 453 597 l 453 1124 l 649 1124 l 649 597 l 661 597 l 856 1124 l 1088 1124 l 859 565 l 1095 0 l 871 0 l 661 547 l 649 547 l 649 0 l 453 0 l 453 547 l 440 547 l 230 0 l 7 0 z "},"З":{"ha":729,"x_min":45,"x_max":677,"o":"m 370 -20 q 222 4 283 -20 q 125 77 161 29 q 74 188 90 125 q 58 332 58 250 l 58 372 l 291 372 q 292 328 291 332 q 310 209 292 243 q 372 175 327 175 q 433 210 418 175 q 448 324 448 244 q 420 454 448 413 q 317 497 393 494 q 287 497 316 497 q 257 498 258 498 l 257 651 l 313 651 q 419 693 391 653 q 448 821 448 733 q 427 922 448 888 q 361 956 407 956 q 299 921 318 956 q 278 821 279 886 l 278 760 l 45 760 l 45 827 q 131 1059 45 977 q 361 1142 216 1142 q 593 1063 510 1142 q 677 836 677 985 q 637 673 677 741 q 538 589 598 606 q 677 331 677 538 q 660 188 677 251 q 607 78 643 125 q 512 5 572 31 q 370 -20 452 -20 z "},"И":{"ha":819,"x_min":87,"x_max":731,"o":"m 87 0 l 87 1124 l 284 1124 l 284 483 l 570 1124 l 731 1124 l 731 0 l 531 0 l 531 654 l 239 0 l 87 0 z "},"Й":{"ha":819,"x_min":87,"x_max":731,"o":"m 554 1269 q 528 1246 554 1269 q 409 1223 503 1223 q 263 1269 315 1223 q 212 1398 212 1315 l 311 1398 q 334 1335 311 1355 q 409 1316 357 1316 q 484 1336 460 1316 q 507 1398 507 1356 l 606 1398 q 554 1269 606 1315 m 87 0 l 87 1124 l 284 1124 l 284 483 l 570 1124 l 731 1124 l 731 0 l 531 0 l 531 654 l 239 0 l 87 0 z "},"К":{"ha":795,"x_min":87,"x_max":779,"o":"m 87 0 l 87 1124 l 336 1124 l 336 677 l 360 677 l 526 1124 l 772 1124 l 568 597 l 779 0 l 524 0 l 360 492 l 336 492 l 336 0 l 87 0 z "},"Л":{"ha":909,"x_min":9,"x_max":821,"o":"m 9 0 l 9 175 q 64 177 44 175 q 103 190 84 179 q 132 215 123 200 q 151 264 142 231 q 165 337 161 297 q 176 446 170 378 q 187 590 182 513 q 188 597 187 595 q 188 605 188 600 q 189 612 189 609 l 225 1124 l 821 1124 l 821 0 l 572 0 l 572 935 l 449 935 l 426 566 q 396 249 410 330 q 313 63 372 118 q 99 -2 248 2 q 83 -2 91 -2 q 9 0 49 -2 z "},"М":{"ha":977,"x_min":79,"x_max":898,"o":"m 79 0 l 98 1124 l 360 1124 l 488 480 l 626 1124 l 880 1124 l 898 0 l 721 0 l 704 728 l 555 0 l 429 0 l 273 732 l 258 0 l 79 0 z "},"Н":{"ha":846,"x_min":87,"x_max":758,"o":"m 87 0 l 87 1124 l 336 1124 l 336 670 l 509 670 l 509 1124 l 758 1124 l 758 0 l 509 0 l 509 492 l 336 492 l 336 0 l 87 0 z "},"О":{"ha":812,"x_min":67,"x_max":746,"o":"m 406 -16 q 246 9 312 -16 q 141 83 180 34 q 84 199 102 132 q 67 355 67 265 l 67 770 q 84 927 67 861 q 141 1042 102 994 q 246 1116 180 1091 q 406 1140 312 1140 q 667 1047 588 1140 q 746 770 746 954 l 746 355 q 667 78 746 172 q 406 -16 588 -16 m 367 168 q 375 164 367 168 q 406 160 383 160 q 444 168 428 160 q 469 188 460 176 q 483 218 478 199 q 490 254 488 237 q 491 294 491 271 l 491 833 q 490 872 491 855 q 483 907 488 888 q 469 937 478 926 q 444 957 460 949 q 406 964 428 964 q 367 957 383 964 q 342 938 351 949 q 329 907 334 926 q 323 872 324 888 q 322 833 322 857 l 322 294 q 323 254 322 270 q 329 219 324 238 q 342 188 334 199 q 367 168 351 176 z "},"П":{"ha":840,"x_min":83,"x_max":758,"o":"m 83 0 l 83 1124 l 758 1124 l 758 0 l 513 0 l 513 947 l 328 947 l 328 0 l 83 0 z "},"Р":{"ha":785,"x_min":83,"x_max":755,"o":"m 331 652 l 410 652 q 499 686 477 652 q 522 802 522 720 q 520 851 522 831 q 512 891 518 871 q 493 923 505 911 q 460 943 481 935 q 410 950 439 950 l 331 950 l 331 652 m 83 0 l 83 1124 l 458 1124 q 681 1041 607 1124 q 755 798 755 958 q 744 685 755 735 q 711 600 732 635 q 661 542 689 566 q 594 504 632 517 q 516 485 556 490 q 429 479 477 479 l 331 479 l 331 0 l 83 0 z "},"С":{"ha":781,"x_min":67,"x_max":728,"o":"m 405 -16 q 244 11 311 -16 q 139 87 178 37 q 84 205 101 138 q 67 361 67 271 l 67 762 q 84 921 67 853 q 139 1039 101 988 q 244 1115 178 1089 q 405 1140 310 1140 q 560 1117 496 1140 q 660 1049 624 1094 q 712 947 696 1004 q 728 815 728 890 l 728 716 l 486 716 l 486 829 q 485 869 486 856 q 480 904 484 883 q 468 937 476 926 q 444 956 460 947 q 405 964 428 964 q 366 956 382 964 q 341 936 349 947 q 327 903 332 924 q 321 865 322 882 q 320 823 320 848 l 320 299 q 338 196 320 231 q 405 160 355 160 q 443 169 427 160 q 467 189 459 177 q 480 221 475 200 q 485 258 484 242 q 486 299 486 273 l 486 417 l 728 417 l 728 320 q 719 211 728 260 q 687 119 709 162 q 628 47 664 76 q 535 1 591 18 q 405 -16 479 -16 z "},"Т":{"ha":620,"x_min":14,"x_max":606,"o":"m 186 0 l 186 941 l 14 941 l 14 1124 l 606 1124 l 606 941 l 435 941 l 435 0 l 186 0 z "},"У":{"ha":764,"x_min":30,"x_max":749,"o":"m 73 -222 l 73 -57 q 100 -58 87 -58 q 251 -23 203 -58 q 288 58 287 3 q 280 113 288 83 l 30 1124 l 260 1124 l 356 665 l 401 361 l 435 665 l 515 1124 l 749 1124 l 517 79 q 486 -33 503 13 q 445 -113 470 -78 q 389 -169 419 -149 q 311 -203 358 -190 q 208 -220 264 -216 q 114 -222 168 -222 q 73 -222 94 -222 z "},"Ф":{"ha":1053,"x_min":64,"x_max":989,"o":"m 650 279 q 654 279 652 279 q 770 398 770 279 l 770 739 q 647 866 770 864 q 637 866 645 866 q 627 865 629 865 l 627 281 q 650 279 637 279 m 405 279 q 415 280 407 279 q 425 280 422 280 l 425 865 q 414 866 422 865 q 403 866 406 866 q 283 740 283 865 l 283 399 q 399 279 283 279 q 405 279 402 279 m 425 -39 l 425 127 l 401 126 q 361 125 380 125 q 157 192 239 125 q 64 401 64 270 l 64 737 q 157 945 64 868 q 359 1013 237 1013 q 393 1012 376 1013 l 425 1011 l 425 1192 l 627 1192 l 627 1011 l 652 1012 q 688 1013 671 1013 q 895 945 814 1013 q 989 736 989 868 l 989 401 q 897 192 989 271 q 699 124 817 124 q 660 126 680 124 l 627 127 l 627 -39 l 425 -39 z "},"Х":{"ha":715,"x_min":9,"x_max":706,"o":"m 9 0 l 229 606 l 19 1124 l 254 1124 l 377 821 l 476 1124 l 685 1124 l 488 542 l 706 0 l 473 0 l 337 335 l 216 0 l 9 0 z "},"Ц":{"ha":953,"x_min":87,"x_max":928,"o":"m 745 -243 l 713 0 l 87 0 l 87 1124 l 336 1124 l 336 168 l 526 168 l 526 1124 l 774 1124 l 774 168 l 928 168 l 928 -243 l 745 -243 z "},"Ч":{"ha":840,"x_min":60,"x_max":753,"o":"m 505 0 l 505 465 q 374 454 431 454 q 217 485 287 454 q 103 578 146 515 q 60 726 60 641 l 60 1124 l 304 1124 l 304 727 q 308 678 304 696 q 325 642 312 660 q 365 615 337 623 q 437 607 393 607 q 505 613 467 607 l 505 1124 l 753 1124 l 753 0 l 505 0 z "},"Ш":{"ha":1146,"x_min":87,"x_max":1059,"o":"m 87 0 l 87 1124 l 322 1124 l 322 178 l 458 178 l 458 1124 l 692 1124 l 692 178 l 824 178 l 824 1124 l 1059 1124 l 1059 0 l 87 0 z "},"Щ":{"ha":1272,"x_min":87,"x_max":1212,"o":"m 1030 -243 l 1001 0 l 87 0 l 87 1124 l 322 1124 l 322 168 l 458 168 l 458 1124 l 693 1124 l 693 168 l 824 168 l 824 1124 l 1059 1124 l 1059 168 l 1212 168 l 1212 -243 l 1030 -243 z "},"Ъ":{"ha":876,"x_min":-16,"x_max":829,"o":"m 434 164 l 474 164 q 572 203 544 164 q 600 319 600 240 q 600 331 600 325 q 570 440 597 402 q 471 478 543 478 l 434 478 l 434 164 m 185 0 l 185 954 l -16 954 l -16 1124 l 434 1124 l 434 650 l 494 650 q 745 571 660 650 q 829 326 829 493 q 820 222 829 269 q 794 141 810 175 q 752 83 777 108 q 697 42 726 58 q 631 17 668 26 q 556 4 593 7 q 473 0 518 0 l 185 0 z "},"Ы":{"ha":1153,"x_min":87,"x_max":1065,"o":"m 817 0 l 817 1124 l 1065 1124 l 1065 0 l 817 0 m 336 164 l 368 164 q 467 203 438 164 q 494 319 494 240 q 494 331 494 325 q 464 440 492 402 q 365 478 436 478 l 336 478 l 336 164 m 87 0 l 87 1124 l 336 1124 l 336 650 l 388 650 q 638 571 553 650 q 724 326 724 493 q 714 222 724 269 q 688 141 705 175 q 646 83 671 108 q 591 42 621 58 q 525 17 562 26 q 450 4 488 7 q 367 0 412 0 l 87 0 z "},"Ь":{"ha":771,"x_min":87,"x_max":722,"o":"m 336 164 l 367 164 q 465 203 437 164 q 492 319 492 240 q 492 331 492 325 q 463 440 490 402 q 363 478 435 478 l 336 478 l 336 164 m 87 0 l 87 1124 l 336 1124 l 336 650 l 387 650 q 637 571 552 650 q 722 326 722 493 q 704 187 722 246 q 655 93 686 128 q 577 36 624 58 q 480 7 530 15 q 365 0 430 0 l 87 0 z "},"Э":{"ha":797,"x_min":68,"x_max":730,"o":"m 392 -12 q 263 4 319 -12 q 171 47 208 20 q 111 116 134 75 q 78 205 88 157 q 68 313 68 254 l 68 372 l 312 372 l 312 299 q 313 259 312 273 q 317 224 313 245 q 329 192 321 203 q 353 173 337 181 q 392 164 369 164 q 431 173 415 164 q 456 193 448 181 q 470 225 465 205 q 476 263 475 246 q 477 305 477 280 l 477 500 l 292 500 l 292 627 l 477 627 l 477 829 q 459 933 477 897 q 392 968 441 968 q 354 960 370 968 q 330 940 338 951 q 317 907 321 928 q 313 871 313 886 q 312 829 312 856 l 312 753 l 68 753 l 68 808 q 78 918 68 869 q 110 1009 87 966 q 169 1082 133 1053 q 262 1127 205 1111 q 392 1144 318 1144 q 553 1118 486 1144 q 657 1041 619 1092 q 713 924 696 990 q 730 768 730 857 l 730 367 q 713 208 730 275 q 657 90 696 140 q 553 14 619 39 q 392 -12 487 -12 z "},"Ю":{"ha":1144,"x_min":87,"x_max":1077,"o":"m 766 160 q 802 168 787 160 q 825 188 817 176 q 838 219 833 199 q 843 254 842 238 q 844 294 844 270 l 844 833 q 844 866 844 852 q 840 896 843 880 q 832 923 838 912 q 819 945 827 935 q 797 960 810 955 q 766 964 783 964 q 729 957 744 964 q 706 938 714 949 q 693 907 698 926 q 687 872 688 888 q 686 833 686 856 l 686 294 q 689 244 686 264 q 698 203 691 224 q 722 171 705 182 q 766 160 739 160 m 915 11 q 884 -2 915 11 q 766 -16 853 -16 q 616 11 678 -16 q 520 90 555 38 q 470 210 485 142 q 454 370 454 278 l 454 478 l 333 478 l 333 0 l 87 0 l 87 1124 l 333 1124 l 333 661 l 454 661 l 454 757 q 470 916 454 848 q 520 1035 485 983 q 616 1114 555 1087 q 766 1140 677 1140 q 915 1114 853 1140 q 1011 1035 976 1087 q 1062 916 1046 983 q 1077 757 1077 848 l 1077 370 q 1062 210 1077 278 q 1011 90 1046 142 q 915 11 976 38 z "},"Я":{"ha":840,"x_min":13,"x_max":752,"o":"m 471 621 l 504 621 l 504 954 l 469 954 q 314 787 314 954 q 471 621 314 621 m 13 0 l 228 500 q 122 615 161 539 q 83 789 83 690 q 100 923 83 866 q 148 1019 117 981 q 227 1081 178 1057 q 332 1115 275 1105 q 465 1124 390 1124 l 752 1124 l 752 0 l 504 0 l 504 444 l 462 444 l 447 444 l 282 0 l 13 0 z "},"а":{"ha":662,"x_min":50,"x_max":611,"o":"m 318 142 q 352 153 334 142 q 380 180 369 164 l 380 399 q 291 323 326 372 q 256 227 256 274 q 273 165 256 188 q 318 142 291 142 m 236 -14 q 100 46 151 -13 q 50 182 50 106 q 59 255 50 221 q 83 315 69 290 q 122 363 97 340 q 168 402 147 387 q 221 433 188 416 q 275 458 255 450 q 331 479 296 466 q 380 498 366 492 l 380 578 q 370 630 380 612 q 332 648 359 648 q 283 585 286 648 l 278 526 l 66 534 q 67 547 66 536 q 68 560 68 559 q 150 754 78 692 q 354 817 221 817 q 535 751 473 817 q 597 575 597 685 l 597 201 q 611 0 597 124 l 410 0 q 391 114 392 98 q 335 22 374 59 q 236 -14 296 -14 z "},"б":{"ha":669,"x_min":62,"x_max":612,"o":"m 342 132 q 371 139 361 132 q 388 166 382 145 q 396 218 394 187 q 397 308 397 250 l 397 533 q 387 625 397 600 q 345 650 376 650 q 305 630 319 650 q 282 558 290 609 l 282 313 q 292 165 282 198 q 342 132 302 132 m 331 -13 q 218 2 266 -12 q 141 42 171 17 q 94 108 111 67 q 69 196 76 149 q 62 306 62 242 l 62 739 q 72 878 62 818 q 99 976 82 937 q 144 1042 116 1015 q 201 1084 172 1069 q 273 1111 231 1099 q 355 1132 315 1124 q 447 1156 394 1140 q 546 1190 500 1171 l 557 1017 q 448 979 503 991 q 365 963 393 966 q 313 947 337 960 q 279 900 288 933 q 270 801 271 867 l 270 748 q 406 783 336 783 q 563 714 515 783 q 612 484 612 646 l 612 288 q 598 161 612 215 q 562 74 585 108 q 502 20 538 41 q 425 -7 465 0 q 340 -13 388 -14 q 331 -13 336 -13 z "},"в":{"ha":699,"x_min":71,"x_max":659,"o":"m 296 487 l 351 487 q 406 511 390 487 q 422 583 422 535 q 404 659 422 633 q 335 684 386 684 l 296 684 l 296 487 m 296 127 l 332 127 q 366 128 353 127 q 394 135 378 129 q 418 153 410 141 q 432 186 427 164 q 438 239 438 208 q 435 291 438 269 q 424 326 432 313 q 409 348 416 340 q 388 359 402 355 q 363 363 373 362 q 333 363 353 363 l 296 363 l 296 127 m 71 0 l 71 803 l 355 803 q 476 793 425 803 q 558 767 528 783 q 608 724 589 751 q 632 669 626 697 q 639 600 639 642 q 608 490 639 526 q 515 436 576 452 q 628 367 597 416 q 659 233 659 317 q 629 102 659 152 q 531 26 600 52 q 344 0 461 0 l 71 0 z "},"г":{"ha":487,"x_min":71,"x_max":469,"o":"m 71 0 l 71 803 l 469 803 l 469 651 l 297 651 l 297 0 l 71 0 z "},"д":{"ha":840,"x_min":43,"x_max":817,"o":"m 287 140 l 493 140 l 493 666 l 427 666 l 412 499 q 373 268 405 350 q 287 140 341 186 m 43 -218 l 43 138 q 181 281 134 183 q 237 551 229 379 l 259 803 l 701 803 l 701 140 l 817 140 l 817 -218 l 655 -218 l 640 0 l 220 0 l 207 -218 l 43 -218 z "},"е":{"ha":652,"x_min":55,"x_max":600,"o":"m 279 493 l 390 493 l 390 573 q 375 636 390 618 q 332 655 360 655 q 293 633 306 655 q 279 559 279 612 l 279 493 m 333 -14 q 127 57 200 -14 q 55 258 55 128 l 55 545 q 128 746 55 675 q 333 817 201 817 q 533 748 467 817 q 600 545 600 679 l 600 387 l 279 387 l 279 246 q 292 173 279 197 q 333 148 304 148 q 390 226 390 148 l 390 279 l 600 279 l 600 233 q 530 49 600 113 q 333 -14 460 -14 z "},"ж":{"ha":917,"x_min":9,"x_max":908,"o":"m 9 0 l 169 404 l 18 803 l 217 803 l 345 422 l 359 422 l 359 803 l 549 803 l 549 422 l 564 422 l 700 803 l 899 803 l 740 404 l 908 0 l 719 0 l 564 388 l 549 388 l 549 0 l 359 0 l 359 388 l 345 388 l 199 0 l 9 0 z "},"з":{"ha":623,"x_min":49,"x_max":585,"o":"m 308 -14 q 197 1 244 -14 q 122 41 150 16 q 79 103 95 66 q 57 179 62 141 q 52 267 52 217 l 233 267 q 253 171 233 201 q 315 140 273 140 q 374 169 357 140 q 391 249 391 197 q 357 333 391 309 q 239 357 323 357 l 239 475 q 349 496 322 475 q 376 574 376 517 q 305 660 376 660 q 245 636 262 660 q 228 551 228 612 l 49 551 q 61 655 49 610 q 102 738 73 701 q 185 796 131 776 q 315 817 239 817 q 515 754 449 817 q 581 592 581 692 q 548 474 581 516 q 463 417 515 432 q 511 394 491 406 q 548 359 530 381 q 575 303 566 338 q 585 220 585 268 q 516 49 585 113 q 308 -14 448 -14 z "},"и":{"ha":707,"x_min":71,"x_max":636,"o":"m 71 0 l 71 803 l 250 803 l 250 374 l 460 803 l 636 803 l 636 0 l 453 0 l 453 425 l 249 0 l 71 0 z "},"й":{"ha":707,"x_min":71,"x_max":636,"o":"m 499 945 q 473 922 499 945 q 353 899 447 899 q 208 945 260 899 q 156 1074 156 991 l 256 1074 q 279 1012 256 1031 q 353 992 302 992 q 428 1012 404 992 q 452 1074 452 1032 l 551 1074 q 499 945 551 991 m 71 0 l 71 803 l 250 803 l 250 374 l 460 803 l 636 803 l 636 0 l 453 0 l 453 425 l 249 0 l 71 0 z "},"к":{"ha":710,"x_min":71,"x_max":699,"o":"m 71 0 l 71 803 l 297 803 l 297 487 l 330 487 l 451 803 l 695 803 l 536 424 l 699 0 l 459 0 l 330 356 l 297 356 l 297 0 l 71 0 z "},"л":{"ha":786,"x_min":18,"x_max":715,"o":"m 18 -2 l 18 152 q 48 150 35 150 q 135 189 113 150 q 172 388 161 237 l 205 803 l 715 803 l 715 0 l 488 0 l 488 648 l 397 648 l 375 366 q 356 208 368 272 q 325 101 343 144 q 276 34 306 58 q 209 1 245 10 q 119 -9 172 -9 q 18 -2 81 -9 z "},"м":{"ha":808,"x_min":70,"x_max":739,"o":"m 70 0 l 72 803 l 239 803 l 404 419 l 568 803 l 736 803 l 739 0 l 562 0 l 562 419 l 437 123 l 371 123 l 247 420 l 247 0 l 70 0 z "},"н":{"ha":728,"x_min":71,"x_max":658,"o":"m 71 0 l 71 803 l 297 803 l 297 492 l 431 492 l 431 803 l 658 803 l 658 0 l 431 0 l 431 336 l 297 336 l 297 0 l 71 0 z "},"о":{"ha":671,"x_min":55,"x_max":616,"o":"m 541 54 q 503 20 541 54 q 334 -14 466 -14 q 129 54 203 -14 q 55 250 55 121 l 55 553 q 129 749 55 682 q 334 817 203 817 q 541 749 466 817 q 616 553 616 681 l 616 250 q 541 54 616 121 m 334 138 q 379 162 367 138 q 392 234 392 186 l 392 568 q 379 641 392 617 q 334 665 367 665 q 291 641 303 665 q 278 568 278 616 l 278 234 q 291 162 278 187 q 334 138 303 138 z "},"п":{"ha":709,"x_min":71,"x_max":639,"o":"m 71 0 l 71 803 l 639 803 l 639 0 l 412 0 l 412 648 l 297 648 l 297 0 l 71 0 z "},"р":{"ha":701,"x_min":71,"x_max":643,"o":"m 358 134 q 359 134 359 134 q 401 159 388 134 q 416 224 415 184 l 416 596 q 401 657 416 633 q 362 679 387 679 q 356 679 359 679 q 297 652 330 677 l 297 153 q 358 134 330 134 m 71 -264 l 71 803 l 297 803 l 297 744 q 464 817 380 817 q 471 817 468 817 q 601 747 558 814 q 643 579 643 681 l 643 237 q 597 54 643 122 q 467 -14 551 -14 q 297 60 382 -14 l 297 -264 l 71 -264 z "},"с":{"ha":650,"x_min":55,"x_max":603,"o":"m 332 -14 q 127 57 200 -14 q 55 257 55 129 l 55 547 q 127 746 55 675 q 332 817 200 817 q 533 756 463 817 q 603 575 603 695 l 603 490 l 385 490 l 385 581 q 372 644 385 627 q 333 661 359 661 q 294 640 307 661 q 282 568 282 619 l 282 235 q 295 163 282 182 q 333 143 307 143 q 372 161 359 143 q 385 221 385 179 l 385 327 l 603 327 l 603 230 q 532 48 603 111 q 332 -14 461 -14 z "},"т":{"ha":560,"x_min":22,"x_max":538,"o":"m 166 0 l 166 649 l 22 649 l 22 803 l 538 803 l 538 649 l 393 649 l 393 0 l 166 0 z "},"у":{"ha":650,"x_min":16,"x_max":637,"o":"m 85 -256 l 68 -94 q 137 -92 111 -94 q 183 -84 163 -90 q 211 -69 203 -77 q 222 -43 220 -61 q 222 -7 225 -26 q 212 45 219 12 l 16 803 l 210 803 l 275 507 l 329 259 l 378 507 l 435 803 l 637 803 l 431 -14 q 406 -102 416 -68 q 376 -165 395 -135 q 336 -210 357 -195 q 278 -237 315 -225 q 197 -252 242 -249 q 85 -256 152 -256 z "},"ф":{"ha":967,"x_min":58,"x_max":909,"o":"m 595 147 q 669 183 639 147 q 699 283 699 220 l 699 542 q 669 639 699 604 q 596 673 640 673 l 581 673 l 581 147 l 595 147 m 368 147 l 384 147 l 384 673 l 367 673 q 296 639 323 673 q 269 542 269 605 l 269 283 q 295 183 269 218 q 368 147 321 147 m 384 -240 l 384 12 l 361 12 q 284 20 323 12 q 204 48 245 28 q 130 100 162 69 q 78 183 98 132 q 58 298 58 234 l 58 523 q 76 626 58 579 q 123 704 94 673 q 193 758 153 736 q 275 790 233 780 q 362 800 318 800 l 384 800 l 384 1124 l 581 1124 l 581 800 l 607 800 q 716 783 663 800 q 812 734 768 766 q 883 647 857 702 q 909 523 909 593 l 909 298 q 889 183 909 234 q 836 100 868 132 q 763 48 804 69 q 683 20 722 28 q 607 12 644 12 l 581 12 l 581 -240 l 384 -240 z "},"х":{"ha":613,"x_min":14,"x_max":609,"o":"m 14 0 l 184 440 l 22 803 l 250 803 l 336 610 l 412 803 l 587 803 l 427 406 l 609 0 l 380 0 l 282 220 l 203 0 l 14 0 z "},"ц":{"ha":789,"x_min":71,"x_max":761,"o":"m 599 -218 l 584 0 l 71 0 l 71 803 l 296 803 l 296 140 l 418 140 l 418 803 l 644 803 l 644 140 l 761 140 l 761 -218 l 599 -218 z "},"ч":{"ha":689,"x_min":54,"x_max":618,"o":"m 391 0 l 391 323 q 318 319 341 319 q 190 332 242 319 q 109 372 138 345 q 66 435 79 399 q 54 521 54 471 l 54 803 l 280 803 l 280 533 q 297 469 280 488 q 364 448 314 450 q 391 450 381 448 l 391 803 l 618 803 l 618 0 l 391 0 z "},"ш":{"ha":989,"x_min":71,"x_max":918,"o":"m 71 0 l 71 803 l 283 803 l 283 153 l 387 153 l 387 803 l 600 803 l 600 153 l 706 153 l 706 803 l 918 803 l 918 0 l 71 0 z "},"щ":{"ha":1080,"x_min":71,"x_max":1035,"o":"m 873 -218 l 858 0 l 71 0 l 71 803 l 284 803 l 284 140 l 386 140 l 386 803 l 600 803 l 600 140 l 705 140 l 705 803 l 918 803 l 918 140 l 1035 140 l 1035 -218 l 873 -218 z "},"ъ":{"ha":772,"x_min":7,"x_max":734,"o":"m 387 130 l 391 130 q 498 153 468 131 q 529 234 529 174 q 499 321 529 298 q 393 346 469 345 l 387 346 l 387 130 m 160 0 l 160 650 l 7 650 l 7 803 l 387 803 l 387 479 l 393 479 q 541 468 481 479 q 646 429 601 456 q 713 354 692 402 q 734 235 734 307 q 655 54 734 108 q 393 0 576 0 l 160 0 z "},"ы":{"ha":1028,"x_min":71,"x_max":957,"o":"m 730 0 l 730 803 l 957 803 l 957 0 l 730 0 m 297 130 l 301 130 q 409 152 378 130 q 439 234 439 174 q 409 321 439 298 q 304 346 379 345 l 297 346 l 297 130 m 71 0 l 71 803 l 297 803 l 297 479 l 304 479 q 451 468 391 479 q 557 429 511 456 q 624 354 602 402 q 645 235 645 307 q 566 54 645 108 q 304 0 486 0 l 71 0 z "},"ь":{"ha":682,"x_min":71,"x_max":645,"o":"m 297 130 l 301 130 q 409 152 378 130 q 439 234 439 174 q 409 321 439 298 q 304 346 379 345 l 297 346 l 297 130 m 71 0 l 71 803 l 297 803 l 297 479 l 304 479 q 451 468 391 479 q 557 429 511 456 q 624 354 602 402 q 645 235 645 307 q 566 54 645 108 q 304 0 486 0 l 71 0 z "},"э":{"ha":661,"x_min":58,"x_max":606,"o":"m 328 -14 q 128 47 199 -14 q 58 228 58 108 l 58 269 l 276 269 l 276 227 q 289 163 276 180 q 328 146 301 146 q 366 168 354 146 q 378 240 378 189 l 378 348 l 195 348 l 195 444 l 378 444 l 378 563 q 366 635 378 615 q 328 655 353 655 q 288 637 300 655 q 276 577 276 619 l 276 519 l 58 519 l 58 573 q 129 754 58 692 q 328 817 199 817 q 533 745 460 817 q 606 546 606 674 l 606 256 q 533 57 606 127 q 328 -14 460 -14 z "},"ю":{"ha":971,"x_min":71,"x_max":916,"o":"m 652 148 q 693 172 682 148 q 705 244 705 195 l 705 559 q 693 631 705 607 q 652 655 682 655 q 612 631 623 655 q 600 559 600 606 l 600 244 q 611 172 600 197 q 652 148 623 148 m 651 -14 q 458 54 528 -14 q 389 250 389 121 l 389 323 l 292 323 l 292 0 l 71 0 l 71 803 l 292 803 l 292 483 l 389 483 l 389 553 q 458 749 389 682 q 651 817 528 817 q 846 749 775 817 q 916 553 916 681 l 916 250 q 846 54 916 121 q 651 -14 775 -14 z "},"я":{"ha":715,"x_min":22,"x_max":645,"o":"m 411 420 l 418 420 l 418 675 l 412 675 q 255 553 255 673 q 411 420 255 420 m 22 0 l 147 332 q 75 416 100 358 q 50 551 50 473 q 122 736 50 670 q 350 803 194 803 l 645 803 l 645 0 l 418 0 l 418 288 q 353 288 371 288 l 263 0 l 22 0 z "},"ѐ":{"ha":652,"x_min":55,"x_max":600,"o":"m 257 899 l 81 1179 l 314 1179 l 398 899 l 257 899 m 279 493 l 390 493 l 390 573 q 375 636 390 618 q 332 655 360 655 q 293 633 306 655 q 279 559 279 612 l 279 493 m 333 -14 q 127 57 200 -14 q 55 258 55 128 l 55 545 q 128 746 55 675 q 333 817 201 817 q 533 748 467 817 q 600 545 600 679 l 600 387 l 279 387 l 279 246 q 292 173 279 197 q 333 148 304 148 q 390 226 390 148 l 390 279 l 600 279 l 600 233 q 530 49 600 113 q 333 -14 460 -14 z "},"ё":{"ha":652,"x_min":55,"x_max":600,"o":"m 386 899 l 386 1105 l 568 1105 l 568 899 l 386 899 m 87 899 l 87 1105 l 269 1105 l 269 899 l 87 899 m 279 493 l 390 493 l 390 573 q 375 636 390 618 q 332 655 360 655 q 293 633 306 655 q 279 559 279 612 l 279 493 m 333 -14 q 127 57 200 -14 q 55 258 55 128 l 55 545 q 128 746 55 675 q 333 817 201 817 q 533 748 467 817 q 600 545 600 679 l 600 387 l 279 387 l 279 246 q 292 173 279 197 q 333 148 304 148 q 390 226 390 148 l 390 279 l 600 279 l 600 233 q 530 49 600 113 q 333 -14 460 -14 z "},"ђ":{"ha":709,"x_min":-12,"x_max":654,"o":"m 266 -224 l 266 -111 l 290 -111 q 344 -104 321 -111 q 382 -83 367 -98 q 406 -50 397 -68 q 420 -1 415 -32 q 426 58 425 29 q 427 133 427 87 l 427 434 q 416 498 427 477 q 376 519 405 519 q 304 498 347 519 l 304 0 l 78 0 l 78 823 l -12 823 l -12 937 l 78 937 l 78 1124 l 304 1124 l 304 937 l 482 937 l 482 823 l 304 823 l 304 629 q 359 649 342 643 q 412 663 377 655 q 474 671 446 671 q 654 427 654 671 l 654 142 q 647 9 654 65 q 622 -88 640 -46 q 578 -155 604 -130 q 511 -196 553 -180 q 420 -218 469 -212 q 300 -224 370 -224 l 266 -224 z "},"ѓ":{"ha":487,"x_min":71,"x_max":516,"o":"m 199 899 l 284 1179 l 516 1179 l 340 899 l 199 899 m 71 0 l 71 803 l 469 803 l 469 651 l 297 651 l 297 0 l 71 0 z "},"є":{"ha":639,"x_min":55,"x_max":603,"o":"m 332 -14 q 127 57 200 -14 q 55 257 55 129 l 55 547 q 127 746 55 675 q 332 817 200 817 q 533 756 463 817 q 603 575 603 695 l 603 519 l 385 519 l 385 576 q 372 639 385 622 q 333 656 359 656 q 295 635 307 656 q 283 562 283 614 l 283 459 l 468 459 l 468 358 l 283 358 l 283 239 q 295 168 283 188 q 334 148 308 148 q 372 166 360 148 q 385 226 385 184 l 385 298 l 603 298 l 603 230 q 532 48 603 111 q 332 -14 461 -14 z "},"ѕ":{"ha":587,"x_min":26,"x_max":562,"o":"m 306 -14 q 136 34 203 -14 q 26 188 68 83 l 183 256 q 237 168 206 199 q 296 140 265 140 q 302 140 299 140 q 338 156 323 141 q 351 194 352 172 q 343 219 351 205 q 313 253 335 232 q 283 281 292 273 q 244 314 275 288 l 182 368 q 45 593 45 483 q 80 710 45 658 q 170 789 114 762 q 292 817 227 817 q 457 763 391 817 q 550 610 523 709 l 404 542 q 364 622 390 587 q 306 659 338 656 q 304 659 304 659 q 266 646 279 659 q 250 612 251 632 q 347 496 248 579 q 359 486 355 489 l 419 431 q 472 384 454 401 q 515 336 490 366 q 551 273 540 305 q 562 205 562 241 q 526 85 562 136 q 432 10 489 35 q 306 -14 374 -14 z "},"і":{"ha":351,"x_min":64,"x_max":292,"o":"m 64 933 l 64 1093 l 292 1093 l 292 933 l 64 933 m 65 0 l 65 803 l 292 803 l 292 0 l 65 0 z "},"ї":{"ha":389,"x_min":-45,"x_max":436,"o":"m 254 899 l 254 1105 l 436 1105 l 436 899 l 254 899 m -45 899 l -45 1105 l 137 1105 l 137 899 l -45 899 m 82 0 l 82 803 l 309 803 l 309 0 l 82 0 z "},"ј":{"ha":357,"x_min":-16,"x_max":313,"o":"m 85 938 l 85 1097 l 313 1097 l 313 938 l 85 938 m -16 -230 l -16 -68 q 24 -73 17 -73 q 85 -5 85 -73 l 85 803 l 312 803 l 312 -33 q 258 -190 312 -131 q 104 -248 205 -248 q -16 -230 46 -248 z "},"љ":{"ha":1121,"x_min":47,"x_max":1084,"o":"m 743 130 l 749 130 q 850 153 821 130 q 880 234 880 176 q 850 321 880 298 q 747 346 820 345 l 743 346 l 743 130 m 47 -2 l 47 152 q 73 151 61 151 q 110 155 95 152 q 151 174 133 160 q 178 227 168 188 q 194 316 187 266 q 206 456 200 366 l 233 803 l 743 803 l 743 479 l 751 479 q 896 468 836 479 q 999 429 955 456 q 1063 354 1042 401 q 1084 235 1084 306 q 1007 55 1084 109 q 751 0 929 1 l 517 0 l 517 648 l 425 648 l 407 408 q 394 271 401 329 q 375 167 387 214 q 348 90 364 121 q 310 38 331 60 q 258 6 289 17 q 193 -7 228 -4 q 150 -9 173 -9 q 110 -8 131 -9 q 47 -2 73 -5 z "},"њ":{"ha":1006,"x_min":71,"x_max":971,"o":"m 639 130 q 642 131 640 130 q 646 131 644 131 q 739 156 712 134 q 766 235 766 178 q 739 320 766 296 q 645 347 711 344 l 639 347 l 639 130 m 71 0 l 71 803 l 297 803 l 297 482 l 412 482 l 412 804 l 639 804 l 639 480 l 653 480 q 791 466 734 479 q 889 426 848 454 q 951 352 931 399 q 971 236 971 304 q 894 56 971 110 q 639 1 817 2 l 412 1 l 412 298 l 297 298 l 297 0 l 71 0 z "},"ћ":{"ha":720,"x_min":-12,"x_max":654,"o":"m 78 0 l 78 823 l -12 823 l -12 937 l 78 937 l 78 1124 l 304 1124 l 304 937 l 482 937 l 482 823 l 304 823 l 304 629 q 359 649 342 643 q 412 663 377 655 q 474 671 446 671 q 654 427 654 671 l 654 0 l 427 0 l 427 434 q 416 498 427 477 q 376 519 405 519 q 304 498 347 519 l 304 0 l 78 0 z "},"ќ":{"ha":710,"x_min":71,"x_max":699,"o":"m 314 899 l 399 1179 l 631 1179 l 456 899 l 314 899 m 71 0 l 71 803 l 297 803 l 297 487 l 330 487 l 451 803 l 695 803 l 536 424 l 699 0 l 459 0 l 330 356 l 297 356 l 297 0 l 71 0 z "},"ѝ":{"ha":707,"x_min":71,"x_max":636,"o":"m 283 899 l 107 1179 l 340 1179 l 424 899 l 283 899 m 71 0 l 71 803 l 250 803 l 250 374 l 460 803 l 636 803 l 636 0 l 453 0 l 453 425 l 249 0 l 71 0 z "},"ў":{"ha":650,"x_min":16,"x_max":637,"o":"m 472 945 q 446 922 472 945 q 326 899 420 899 q 181 945 233 899 q 129 1074 129 991 l 229 1074 q 252 1012 229 1031 q 326 992 275 992 q 401 1012 377 992 q 425 1074 425 1032 l 524 1074 q 472 945 524 991 m 85 -256 l 68 -94 q 137 -92 111 -94 q 183 -84 163 -90 q 211 -69 203 -77 q 222 -43 220 -61 q 222 -7 225 -26 q 212 45 219 12 l 16 803 l 210 803 l 275 507 l 329 259 l 378 507 l 435 803 l 637 803 l 431 -14 q 406 -102 416 -68 q 376 -165 395 -135 q 336 -210 357 -195 q 278 -237 315 -225 q 197 -252 242 -249 q 85 -256 152 -256 z "},"џ":{"ha":718,"x_min":71,"x_max":648,"o":"m 286 -219 l 271 0 l 71 0 l 71 803 l 297 803 l 297 139 l 421 139 l 421 803 l 648 803 l 648 0 l 458 0 l 446 -219 l 286 -219 z "},"Ґ":{"ha":636,"x_min":87,"x_max":606,"o":"m 87 0 l 87 1124 l 460 1124 l 460 1308 l 606 1308 l 606 941 l 336 941 l 336 0 l 87 0 z "},"ґ":{"ha":489,"x_min":71,"x_max":477,"o":"m 71 0 l 71 803 l 360 803 l 360 972 l 477 972 l 477 651 l 297 651 l 297 0 l 71 0 z "},"Ү":{"ha":684,"x_min":10,"x_max":674,"o":"m 224 0 l 224 484 l 10 1124 l 244 1124 l 313 869 l 351 718 l 385 869 l 448 1124 l 674 1124 l 463 484 l 463 0 l 224 0 z "},"ү":{"ha":618,"x_min":3,"x_max":606,"o":"m 216 -244 l 216 110 l 3 803 l 208 803 l 314 388 l 402 803 l 606 803 l 414 112 l 414 -244 l 216 -244 z "}}}
